Jost-BoldItalic.ufo
<glyph name="exclam" format="2">
  <advance width="333"/>
  <unicode hex="0021"/>
  <outline>
    <contour>
      <point x="167" y="700" type="line"/>
      <point x="352" y="700" type="line"/>
      <point x="241" y="232" type="line"/>
      <point x="118" y="232" type="line"/>
    </contour>
    <contour>
      <point x="57" y="62" type="curve" smooth="yes"/>
      <point x="57" y="113"/>
      <point x="97" y="149"/>
      <point x="152" y="149" type="curve" smooth="yes"/>
      <point x="207" y="149"/>
      <point x="247" y="113"/>
      <point x="247" y="62" type="curve" smooth="yes"/>
      <point x="247" y="11"/>
      <point x="207" y="-25"/>
      <point x="152" y="-25" type="curve" smooth="yes"/>
      <point x="97" y="-25"/>
      <point x="57" y="11"/>
    </contour>
  </outline>
</glyph>
<glyph name="quotedbl" format="2">
  <advance width="502"/>
  <unicode hex="0022"/>
  <outline>
    <contour>
      <point x="191" y="700" type="line"/>
      <point x="352" y="700" type="line"/>
      <point x="200" y="381" type="line"/>
      <point x="98" y="381" type="line"/>
    </contour>
    <contour>
      <point x="396" y="700" type="line"/>
      <point x="557" y="700" type="line"/>
      <point x="405" y="381" type="line"/>
      <point x="304" y="381" type="line"/>
    </contour>
  </outline>
</glyph>
<glyph name="numbersign" format="1">
  <advance width="648"/>
  <unicode hex="0023"/>
  <outline>
    <contour>
      <point x="116.5" y="412" type="line"/>
      <point x="136" y="533.5" type="line"/>
      <point x="680" y="533.5" type="line"/>
      <point x="659" y="411.5" type="line"/>
      <point x="512" y="411.5" type="line"/>
      <point x="484.5" y="417.5" type="line"/>
      <point x="286" y="417.5" type="line"/>
      <point x="259" y="411.5" type="line"/>
    </contour>
    <contour>
      <point x="34.5" y="171.5" type="line"/>
      <point x="56" y="293.5" type="line"/>
      <point x="189.5" y="293.5" type="line"/>
      <point x="219.5" y="287.5" type="line"/>
      <point x="443" y="287.5" type="line"/>
      <point x="473.5" y="293.5" type="line"/>
      <point x="600.5" y="293.5" type="line"/>
      <point x="579" y="171.5" type="line"/>
    </contour>
    <contour>
      <point x="549" y="699.5" type="line"/>
      <point x="684" y="699.5" type="line"/>
      <point x="398.5" y="0" type="line"/>
      <point x="265" y="0" type="line"/>
      <point x="356.5" y="224" type="line"/>
      <point x="373" y="249.5" type="line"/>
      <point x="457" y="456" type="line"/>
      <point x="463" y="487.5" type="line"/>
    </contour>
    <contour>
      <point x="315" y="700" type="line"/>
      <point x="449.5" y="699.5" type="line"/>
      <point x="362.5" y="488" type="line"/>
      <point x="343" y="456" type="line"/>
      <point x="259.5" y="251.5" type="line"/>
      <point x="255.5" y="225.5" type="line"/>
      <point x="164" y="0" type="line"/>
      <point x="31" y="0" type="line"/>
    </contour>
  </outline>
</glyph>
<glyph name="dollar" format="1">
  <advance width="603"/>
  <unicode hex="0024"/>
  <outline>
    <contour>
      <point x="362.5" y="818" type="line"/>
      <point x="486.5" y="818" type="line"/>
      <point x="451" y="636.5" type="line"/>
      <point x="339.5" y="636.5" type="line"/>
    </contour>
    <contour>
      <point x="252" y="62" type="line"/>
      <point x="363" y="62" type="line"/>
      <point x="341.5" y="-112" type="line"/>
      <point x="218.5" y="-112" type="line"/>
    </contour>
    <contour>
      <point x="497" y="489" type="line"/>
      <point x="475.5" y="540"/>
      <point x="446.5" y="583.5"/>
      <point x="393.5" y="584" type="curve" smooth="yes"/>
      <point x="346.5" y="584.5"/>
      <point x="312.5" y="557.5"/>
      <point x="305.5" y="521" type="curve" smooth="yes"/>
      <point x="293.5" y="459.5"/>
      <point x="377.5" y="439.5"/>
      <point x="440.5" y="414" type="curve" smooth="yes"/>
      <point x="532.5" y="377"/>
      <point x="598" y="304.5"/>
      <point x="584.5" y="196" type="curve" smooth="yes"/>
      <point x="566" y="62.5"/>
      <point x="443" y="-11"/>
      <point x="294.5" y="-10" type="curve" smooth="yes"/>
      <point x="173" y="-9"/>
      <point x="78" y="68.5"/>
      <point x="39.5" y="168.5" type="curve"/>
      <point x="166.5" y="251.5" type="line"/>
      <point x="200" y="179.5"/>
      <point x="237.5" y="126.5"/>
      <point x="311.5" y="126.5" type="curve" smooth="yes"/>
      <point x="362.5" y="126.5"/>
      <point x="401" y="151"/>
      <point x="408" y="195" type="curve" smooth="yes"/>
      <point x="418" y="252.5"/>
      <point x="349" y="275.5"/>
      <point x="287.5" y="301.5" type="curve" smooth="yes"/>
      <point x="209" y="335.5"/>
      <point x="119" y="403.5"/>
      <point x="133" y="521.5" type="curve" smooth="yes"/>
      <point x="149.5" y="632"/>
      <point x="268.5" y="710"/>
      <point x="399.5" y="710" type="curve" smooth="yes"/>
      <point x="523.5" y="710"/>
      <point x="592" y="646"/>
      <point x="631" y="561" type="curve"/>
    </contour>
  </outline>
</glyph>
<glyph name="percent" format="1">
  <advance width="895"/>
  <unicode hex="0025"/>
  <outline>
    <contour>
      <point x="84" y="534.5" type="curve" smooth="yes"/>
      <point x="98.5" y="634.5"/>
      <point x="191" y="719.5"/>
      <point x="297" y="719.5" type="curve" smooth="yes"/>
      <point x="402" y="719.5"/>
      <point x="469" y="631"/>
      <point x="455.5" y="533.5" type="curve" smooth="yes"/>
      <point x="441" y="433.5"/>
      <point x="349" y="349.5"/>
      <point x="243" y="349.5" type="curve" smooth="yes"/>
      <point x="138" y="349.5"/>
      <point x="70.5" y="437"/>
    </contour>
    <contour>
      <point x="207" y="533" type="curve" smooth="yes"/>
      <point x="203" y="502"/>
      <point x="221.5" y="469.5"/>
      <point x="259.5" y="469" type="curve" smooth="yes"/>
      <point x="295" y="468.5"/>
      <point x="327" y="502"/>
      <point x="332" y="535" type="curve" smooth="yes"/>
      <point x="336" y="566"/>
      <point x="319" y="598.5"/>
      <point x="281" y="599" type="curve" smooth="yes"/>
      <point x="245.5" y="599.5"/>
      <point x="212" y="566"/>
    </contour>
    <contour>
      <point x="506" y="167" type="curve" smooth="yes"/>
      <point x="520.5" y="267"/>
      <point x="612" y="351.5"/>
      <point x="718" y="351.5" type="curve" smooth="yes"/>
      <point x="823" y="351.5"/>
      <point x="890" y="263.5"/>
      <point x="876.5" y="166" type="curve" smooth="yes"/>
      <point x="862" y="66"/>
      <point x="770.5" y="-18.5"/>
      <point x="664.5" y="-18.5" type="curve" smooth="yes"/>
      <point x="559.5" y="-18.5"/>
      <point x="492.5" y="69.5"/>
    </contour>
    <contour>
      <point x="629" y="165.5" type="curve" smooth="yes"/>
      <point x="624.5" y="134.5"/>
      <point x="644.5" y="102"/>
      <point x="679" y="101.5" type="curve" smooth="yes"/>
      <point x="714.5" y="101"/>
      <point x="747" y="131"/>
      <point x="753.5" y="167.5" type="curve" smooth="yes"/>
      <point x="758" y="198.5"/>
      <point x="738" y="231"/>
      <point x="703.5" y="231.5" type="curve" smooth="yes"/>
      <point x="668" y="232"/>
      <point x="635.5" y="202"/>
    </contour>
    <contour>
      <point x="721.5" y="699.5" type="line"/>
      <point x="883" y="699.5" type="line"/>
      <point x="239" y="0" type="line"/>
      <point x="79" y="0" type="line"/>
    </contour>
  </outline>
</glyph>
<glyph name="ampersand" format="1">
  <advance width="731"/>
  <unicode hex="0026"/>
  <outline>
    <contour>
      <point x="258" y="371.5" type="line" smooth="yes"/>
      <point x="220.5" y="425.5"/>
      <point x="179.5" y="477"/>
      <point x="188" y="544" type="curve" smooth="yes"/>
      <point x="202" y="641"/>
      <point x="303" y="717"/>
      <point x="422" y="717" type="curve" smooth="yes"/>
      <point x="534.5" y="717"/>
      <point x="610.5" y="639"/>
      <point x="598" y="547" type="curve" smooth="yes"/>
      <point x="585" y="450.5"/>
      <point x="500.5" y="402.5"/>
      <point x="402" y="343.5" type="curve" smooth="yes"/>
      <point x="332.5" y="303"/>
      <point x="221.5" y="283.5"/>
      <point x="208.5" y="201" type="curve" smooth="yes"/>
      <point x="200.5" y="152.5"/>
      <point x="235.5" y="118"/>
      <point x="293" y="116" type="curve" smooth="yes"/>
      <point x="419.5" y="110"/>
      <point x="538.5" y="234.5"/>
      <point x="622" y="341" type="curve"/>
      <point x="713.5" y="262" type="line"/>
      <point x="608.5" y="133"/>
      <point x="455.5" y="-14.5"/>
      <point x="261.5" y="-13" type="curve" smooth="yes"/>
      <point x="137.5" y="-12.5"/>
      <point x="33" y="64"/>
      <point x="49.5" y="188" type="curve" smooth="yes"/>
      <point x="68.5" y="338"/>
      <point x="233" y="378"/>
      <point x="327" y="420" type="curve" smooth="yes"/>
      <point x="388.5" y="449"/>
      <point x="453" y="486.5"/>
      <point x="459.5" y="534" type="curve" smooth="yes"/>
      <point x="462.5" y="563.5"/>
      <point x="443.5" y="594.5"/>
      <point x="405" y="595" type="curve" smooth="yes"/>
      <point x="365" y="595.5"/>
      <point x="337" y="567.5"/>
      <point x="331.5" y="533.5" type="curve" smooth="yes"/>
      <point x="324" y="489"/>
      <point x="361" y="447.5"/>
      <point x="399" y="399.5" type="curve" smooth="yes"/>
      <point x="696.5" y="0" type="line"/>
      <point x="531" y="0" type="line"/>
    </contour>
  </outline>
</glyph>
<glyph name="quotesingle" format="1">
  <advance width="297"/>
  <unicode hex="0027"/>
  <outline>
    <contour>
      <point x="190.5" y="700" type="line"/>
      <point x="352.5" y="699.5" type="line"/>
      <point x="199.5" y="381.5" type="line"/>
      <point x="98.5" y="381" type="line"/>
    </contour>
  </outline>
</glyph>
<glyph name="parenleft" format="1">
  <advance width="331"/>
  <unicode hex="0028"/>
  <outline>
    <contour>
      <point x="283" y="779.5" type="curve"/>
      <point x="421.5" y="779" type="line"/>
      <point x="334.5" y="628"/>
      <point x="269" y="463"/>
      <point x="241" y="290" type="curve" smooth="yes"/>
      <point x="216" y="126"/>
      <point x="224.5" y="-43"/>
      <point x="272" y="-200.5" type="curve"/>
      <point x="138" y="-200.5" type="line"/>
      <point x="82.5" y="-43.5"/>
      <point x="68.5" y="125"/>
      <point x="92" y="290" type="curve" smooth="yes"/>
      <point x="118.5" y="464.5"/>
      <point x="185" y="632"/>
    </contour>
  </outline>
</glyph>
<glyph name="parenright" format="1">
  <advance width="331"/>
  <unicode hex="0029"/>
  <outline>
    <contour>
      <point x="103.5" y="-199.5" type="curve"/>
      <point x="-34.5" y="-199" type="line"/>
      <point x="52.5" y="-48"/>
      <point x="118.5" y="117"/>
      <point x="146.5" y="290" type="curve" smooth="yes"/>
      <point x="171.5" y="454"/>
      <point x="162" y="623"/>
      <point x="114.5" y="780.5" type="curve"/>
      <point x="249.5" y="780.5" type="line"/>
      <point x="305" y="623.5"/>
      <point x="318.5" y="455"/>
      <point x="295" y="290" type="curve" smooth="yes"/>
      <point x="268.5" y="115.5"/>
      <point x="201.5" y="-52"/>
    </contour>
  </outline>
</glyph>
<glyph name="asterisk" format="1">
  <advance width="574"/>
  <unicode hex="002A"/>
  <outline>
    <contour>
      <point x="558" y="603.5" type="line"/>
      <point x="579" y="469.5" type="line"/>
      <point x="344" y="427" type="line"/>
      <point x="332.5" y="500.5" type="line"/>
    </contour>
    <contour>
      <point x="504.5" y="312" type="line"/>
      <point x="380" y="230" type="line"/>
      <point x="306.5" y="444.5" type="line"/>
      <point x="368" y="485.5" type="line"/>
    </contour>
    <contour>
      <point x="223.5" y="232.5" type="line"/>
      <point x="122.5" y="317.5" type="line"/>
      <point x="310.5" y="485" type="line"/>
      <point x="365.5" y="439.5" type="line"/>
    </contour>
    <contour>
      <point x="100.5" y="471.5" type="line"/>
      <point x="163.5" y="603" type="line"/>
      <point x="358.5" y="497" type="line"/>
      <point x="325" y="428" type="line"/>
    </contour>
    <contour>
      <point x="309" y="700" type="line"/>
      <point x="450.5" y="699.5" type="line"/>
      <point x="377" y="464" type="line"/>
      <point x="303" y="463.5" type="line"/>
    </contour>
  </outline>
</glyph>
<glyph name="plus" format="1">
  <advance width="655"/>
  <unicode hex="002B"/>
  <outline>
    <contour>
      <point x="68" y="196" type="line"/>
      <point x="94" y="343" type="line"/>
      <point x="626" y="343" type="line"/>
      <point x="600.5" y="196" type="line"/>
    </contour>
    <contour>
      <point x="314.5" y="541" type="line"/>
      <point x="472" y="541" type="line"/>
      <point x="378" y="-2.5" type="line"/>
      <point x="221.5" y="-2.5" type="line"/>
    </contour>
  </outline>
</glyph>
<glyph name="comma" format="2">
  <advance width="313"/>
  <unicode hex="002C"/>
  <outline>
    <contour>
      <point x="105" y="109" type="line"/>
      <point x="253" y="75" type="line"/>
      <point x="89" y="-172" type="line"/>
      <point x="-24" y="-148" type="line"/>
    </contour>
  </outline>
</glyph>
<glyph name="hyphen" format="1">
  <advance width="215"/>
  <unicode hex="002D"/>
  <outline>
    <contour>
      <point x="5.5" y="171.5" type="line"/>
      <point x="28.5" y="303.5" type="line"/>
      <point x="238.5" y="303.5" type="line"/>
      <point x="215" y="171.5" type="line"/>
    </contour>
  </outline>
</glyph>
<glyph name="period" format="1">
  <advance width="313"/>
  <unicode hex="002E"/>
  <outline>
    <contour>
      <point x="49.5" y="68.5" type="curve" smooth="yes"/>
      <point x="49.5" y="119"/>
      <point x="89" y="161.5"/>
      <point x="144.5" y="161.5" type="curve" smooth="yes"/>
      <point x="200" y="161.5"/>
      <point x="240" y="119"/>
      <point x="240" y="68.5" type="curve" smooth="yes"/>
      <point x="240" y="18"/>
      <point x="200" y="-24"/>
      <point x="144.5" y="-24" type="curve" smooth="yes"/>
      <point x="89" y="-24"/>
      <point x="49.5" y="18"/>
    </contour>
  </outline>
</glyph>
<glyph name="slash" format="1">
  <advance width="591"/>
  <unicode hex="002F"/>
  <outline>
    <contour>
      <point x="524" y="699.5" type="line"/>
      <point x="674" y="699.5" type="line"/>
      <point x="113.5" y="-149.5" type="line"/>
      <point x="-41" y="-149.5" type="line"/>
    </contour>
  </outline>
</glyph>
<glyph name="zero" format="2">
  <advance width="643"/>
  <unicode hex="0030"/>
  <outline>
    <contour>
      <point x="232" y="350" type="curve" smooth="yes"/>
      <point x="222" y="256"/>
      <point x="224" y="136"/>
      <point x="313" y="134" type="curve" smooth="yes"/>
      <point x="403" y="132"/>
      <point x="462" y="244"/>
      <point x="477" y="350" type="curve" smooth="yes"/>
      <point x="487" y="444"/>
      <point x="485" y="564"/>
      <point x="396" y="566" type="curve" smooth="yes"/>
      <point x="306" y="568"/>
      <point x="247" y="456"/>
    </contour>
    <contour>
      <point x="70" y="350" type="curve" smooth="yes"/>
      <point x="98" y="549"/>
      <point x="226" y="713"/>
      <point x="412" y="713" type="curve" smooth="yes"/>
      <point x="603" y="713"/>
      <point x="663" y="538"/>
      <point x="639" y="350" type="curve" smooth="yes"/>
      <point x="611" y="150"/>
      <point x="487" y="-13"/>
      <point x="298" y="-13" type="curve" smooth="yes"/>
      <point x="111" y="-13"/>
      <point x="46" y="162"/>
    </contour>
  </outline>
</glyph>
<glyph name="one" format="2">
  <advance width="493"/>
  <unicode hex="0031"/>
  <outline>
    <contour>
      <point x="121" y="495" type="line"/>
      <point x="147" y="646" type="line"/>
      <point x="490" y="714" type="line"/>
      <point x="367" y="0" type="line"/>
      <point x="206" y="0" type="line"/>
      <point x="297" y="538" type="line"/>
    </contour>
  </outline>
</glyph>
<glyph name="two" format="1">
  <advance width="638"/>
  <unicode hex="0032"/>
  <outline>
    <contour>
      <point x="-1" y="0" type="line"/>
      <point x="350.5" y="322.5" type="line" smooth="yes"/>
      <point x="404" y="373.5"/>
      <point x="457" y="418.5"/>
      <point x="466" y="480" type="curve" smooth="yes"/>
      <point x="472" y="523.5"/>
      <point x="449" y="565.5"/>
      <point x="393" y="566.5" type="curve" smooth="yes"/>
      <point x="325" y="568.5"/>
      <point x="281" y="506"/>
      <point x="268" y="441" type="curve"/>
      <point x="103" y="441.5" type="line"/>
      <point x="128" y="590"/>
      <point x="238.5" y="714.5"/>
      <point x="412" y="714" type="curve" smooth="yes"/>
      <point x="561" y="714"/>
      <point x="658.5" y="609"/>
      <point x="641" y="489" type="curve" smooth="yes"/>
      <point x="630.5" y="411.5"/>
      <point x="578" y="350"/>
      <point x="516" y="300" type="curve" smooth="yes"/>
      <point x="338" y="157" type="line"/>
      <point x="606.5" y="156.5" type="line"/>
      <point x="582" y="0" type="line"/>
    </contour>
  </outline>
</glyph>
<glyph name="three" format="2">
  <advance width="603"/>
  <unicode hex="0033"/>
  <outline>
    <contour>
      <point x="302" y="339" type="curve"/>
      <point x="312" y="415" type="line"/>
      <point x="378" y="419"/>
      <point x="447" y="451"/>
      <point x="454" y="508" type="curve" smooth="yes"/>
      <point x="459" y="546"/>
      <point x="438" y="576"/>
      <point x="392" y="577" type="curve" smooth="yes"/>
      <point x="339" y="578"/>
      <point x="301" y="538"/>
      <point x="289" y="494" type="curve"/>
      <point x="134" y="495" type="line"/>
      <point x="157" y="619"/>
      <point x="260" y="713"/>
      <point x="404" y="713" type="curve" smooth="yes"/>
      <point x="539" y="713"/>
      <point x="637" y="633"/>
      <point x="620" y="518" type="curve" smooth="yes"/>
      <point x="600" y="385"/>
      <point x="449" y="341"/>
    </contour>
    <contour>
      <point x="293" y="-16" type="curve" smooth="yes"/>
      <point x="137" y="-16"/>
      <point x="50" y="93"/>
      <point x="61" y="223" type="curve"/>
      <point x="225" y="222" type="line"/>
      <point x="222" y="161"/>
      <point x="252" y="122"/>
      <point x="312" y="121" type="curve" smooth="yes"/>
      <point x="368" y="120"/>
      <point x="418" y="152"/>
      <point x="426" y="208" type="curve" smooth="yes"/>
      <point x="439" y="274"/>
      <point x="377" y="303"/>
      <point x="298" y="306" type="curve"/>
      <point x="309" y="392" type="line"/>
      <point x="462" y="390"/>
      <point x="610" y="340"/>
      <point x="589" y="191" type="curve" smooth="yes"/>
      <point x="571" y="62"/>
      <point x="445" y="-16"/>
    </contour>
  </outline>
</glyph>
<glyph name="four" format="1">
  <advance width="679"/>
  <unicode hex="0034"/>
  <outline>
    <contour>
      <point x="4.5" y="124.5" type="line"/>
      <point x="496.5" y="699.5" type="line"/>
      <point x="625.5" y="700" type="line"/>
      <point x="506" y="0" type="line"/>
      <point x="330.5" y="0" type="line"/>
      <point x="360.5" y="177.5" type="line"/>
      <point x="381" y="189" type="line"/>
      <point x="425" y="445" type="line"/>
      <point x="251.228" y="247" type="line"/>
      <point x="476.5" y="247" type="line"/>
      <point x="497" y="269" type="line"/>
      <point x="659.5" y="269" type="line"/>
      <point x="634" y="124" type="line"/>
    </contour>
  </outline>
</glyph>
<glyph name="five" format="1">
  <advance width="627"/>
  <unicode hex="0035"/>
  <outline>
    <contour>
      <point x="607.5" y="223.5" type="curve" smooth="yes"/>
      <point x="587.5" y="68"/>
      <point x="439.5" y="-12.5"/>
      <point x="299" y="-13" type="curve" smooth="yes"/>
      <point x="186" y="-13.5"/>
      <point x="102" y="25.5"/>
      <point x="35" y="77.5" type="curve"/>
      <point x="118" y="217.5" type="line"/>
      <point x="165" y="173.5"/>
      <point x="222" y="144"/>
      <point x="278.5" y="143.5" type="curve" smooth="yes"/>
      <point x="352.5" y="143.5"/>
      <point x="417.5" y="175.5"/>
      <point x="427.5" y="243" type="curve" smooth="yes"/>
      <point x="436.5" y="307.5"/>
      <point x="377" y="337.5"/>
      <point x="316" y="338.5" type="curve" smooth="yes"/>
      <point x="253.5" y="340"/>
      <point x="182.5" y="325"/>
      <point x="114" y="296" type="curve"/>
      <point x="269" y="700" type="line"/>
      <point x="667" y="700" type="line"/>
      <point x="643.5" y="551.5" type="line"/>
      <point x="372" y="552" type="line"/>
      <point x="308.923" y="427.634" type="line"/>
      <point x="346.632" y="444.127"/>
      <point x="386.824" y="452.5"/>
      <point x="430" y="452" type="curve" smooth="yes"/>
      <point x="547.5" y="450.5"/>
      <point x="622.5" y="351"/>
    </contour>
  </outline>
</glyph>
<glyph name="six" format="1">
  <advance width="651"/>
  <unicode hex="0036"/>
  <outline>
    <contour>
      <point x="234" y="246" type="curve" smooth="yes"/>
      <point x="225" y="183.5"/>
      <point x="260.5" y="131"/>
      <point x="325.5" y="130" type="curve" smooth="yes"/>
      <point x="392" y="129"/>
      <point x="449.5" y="181"/>
      <point x="459.5" y="246.5" type="curve" smooth="yes"/>
      <point x="468.5" y="308.5"/>
      <point x="433.5" y="363"/>
      <point x="368.5" y="364" type="curve" smooth="yes"/>
      <point x="302" y="365"/>
      <point x="244" y="311.5"/>
    </contour>
    <contour>
      <point x="410" y="696.5" type="line"/>
      <point x="628" y="696.5" type="line"/>
      <point x="368" y="446" type="line"/>
      <point x="328.5" y="431" type="line"/>
      <point x="365" y="460"/>
      <point x="398.5" y="473.5"/>
      <point x="445" y="473.5" type="curve" smooth="yes"/>
      <point x="558" y="473"/>
      <point x="639" y="370"/>
      <point x="625" y="246" type="curve" smooth="yes"/>
      <point x="605" y="84"/>
      <point x="467" y="-16"/>
      <point x="310.5" y="-16" type="curve" smooth="yes"/>
      <point x="157" y="-16"/>
      <point x="47.5" y="87"/>
      <point x="68" y="246" type="curve" smooth="yes"/>
      <point x="79" y="323"/>
      <point x="124.5" y="386"/>
      <point x="176" y="441.5" type="curve" smooth="yes"/>
    </contour>
  </outline>
</glyph>
<glyph name="seven" format="2">
  <advance width="585"/>
  <unicode hex="0037"/>
  <outline>
    <contour>
      <point x="93" y="541" type="line"/>
      <point x="119" y="700" type="line"/>
      <point x="678" y="700" type="line"/>
      <point x="241" y="0" type="line"/>
      <point x="57" y="0" type="line"/>
      <point x="405" y="541" type="line"/>
    </contour>
  </outline>
</glyph>
<glyph name="eight" format="2">
  <advance width="609"/>
  <unicode hex="0038"/>
  <outline>
    <contour>
      <point x="137" y="532" type="curve" smooth="yes"/>
      <point x="155" y="650"/>
      <point x="272" y="716"/>
      <point x="395" y="716" type="curve" smooth="yes"/>
      <point x="513" y="716"/>
      <point x="617" y="647"/>
      <point x="600" y="530" type="curve" smooth="yes"/>
      <point x="583" y="408"/>
      <point x="457" y="342"/>
      <point x="341" y="342" type="curve" smooth="yes"/>
      <point x="229" y="342"/>
      <point x="120" y="410"/>
    </contour>
    <contour>
      <point x="291" y="514" type="curve" smooth="yes"/>
      <point x="285" y="474"/>
      <point x="306" y="437"/>
      <point x="349" y="436" type="curve" smooth="yes"/>
      <point x="396" y="435"/>
      <point x="434" y="473"/>
      <point x="441" y="515" type="curve" smooth="yes"/>
      <point x="447" y="556"/>
      <point x="425" y="593"/>
      <point x="382" y="594" type="curve" smooth="yes"/>
      <point x="334" y="595"/>
      <point x="298" y="556"/>
    </contour>
    <contour>
      <point x="55" y="190" type="curve" smooth="yes"/>
      <point x="74" y="328"/>
      <point x="219" y="396"/>
      <point x="341" y="396" type="curve" smooth="yes"/>
      <point x="458" y="396"/>
      <point x="585" y="328"/>
      <point x="566" y="190" type="curve" smooth="yes"/>
      <point x="547" y="62"/>
      <point x="413" y="-16"/>
      <point x="280" y="-16" type="curve" smooth="yes"/>
      <point x="153" y="-16"/>
      <point x="36" y="63"/>
    </contour>
    <contour>
      <point x="225" y="215" type="curve" smooth="yes"/>
      <point x="217" y="164"/>
      <point x="244" y="124"/>
      <point x="295" y="123" type="curve" smooth="yes"/>
      <point x="350" y="122"/>
      <point x="396" y="163"/>
      <point x="405" y="217" type="curve" smooth="yes"/>
      <point x="412" y="262"/>
      <point x="383" y="305"/>
      <point x="334" y="306" type="curve" smooth="yes"/>
      <point x="280" y="307"/>
      <point x="234" y="263"/>
    </contour>
  </outline>
</glyph>
<glyph name="nine" format="1">
  <advance width="651"/>
  <unicode hex="0039"/>
  <outline>
    <contour>
      <point x="491.5" y="454" type="curve" smooth="yes"/>
      <point x="500.5" y="516.5"/>
      <point x="465" y="569"/>
      <point x="400" y="570" type="curve" smooth="yes"/>
      <point x="333.5" y="571"/>
      <point x="276" y="519"/>
      <point x="266" y="453.5" type="curve" smooth="yes"/>
      <point x="257" y="391.5"/>
      <point x="292" y="337"/>
      <point x="357" y="336" type="curve" smooth="yes"/>
      <point x="423.5" y="335"/>
      <point x="481.5" y="388.5"/>
    </contour>
    <contour>
      <point x="315" y="3.5" type="line"/>
      <point x="97.5" y="3.5" type="line"/>
      <point x="357" y="254" type="line"/>
      <point x="397" y="269" type="line"/>
      <point x="360.5" y="240"/>
      <point x="327" y="226.5"/>
      <point x="280.5" y="226.5" type="curve" smooth="yes"/>
      <point x="167.5" y="227"/>
      <point x="86" y="330"/>
      <point x="100" y="454" type="curve" smooth="yes"/>
      <point x="120" y="616"/>
      <point x="258" y="716"/>
      <point x="414.5" y="716" type="curve" smooth="yes"/>
      <point x="568" y="716"/>
      <point x="678" y="613"/>
      <point x="657.5" y="454" type="curve" smooth="yes"/>
      <point x="646.5" y="377"/>
      <point x="601" y="314"/>
      <point x="549.5" y="258.5" type="curve" smooth="yes"/>
    </contour>
  </outline>
</glyph>
<glyph name="colon" format="1">
  <advance width="313"/>
  <unicode hex="003A"/>
  <outline>
    <contour>
      <point x="46.5" y="68.5" type="curve" smooth="yes"/>
      <point x="46.5" y="119"/>
      <point x="85.5" y="161.5"/>
      <point x="141" y="161.5" type="curve" smooth="yes"/>
      <point x="196.5" y="161.5"/>
      <point x="236.5" y="119"/>
      <point x="236.5" y="68.5" type="curve" smooth="yes"/>
      <point x="236.5" y="18"/>
      <point x="196.5" y="-24"/>
      <point x="141" y="-24" type="curve" smooth="yes"/>
      <point x="85.5" y="-24"/>
      <point x="46.5" y="18"/>
    </contour>
    <contour>
      <point x="110" y="442" type="curve" smooth="yes"/>
      <point x="110" y="492.5"/>
      <point x="149.5" y="535"/>
      <point x="205" y="535" type="curve" smooth="yes"/>
      <point x="260.5" y="535"/>
      <point x="300" y="492.5"/>
      <point x="300" y="442" type="curve" smooth="yes"/>
      <point x="300" y="391.5"/>
      <point x="260.5" y="349"/>
      <point x="205" y="349" type="curve" smooth="yes"/>
      <point x="149.5" y="349"/>
      <point x="110" y="391.5"/>
    </contour>
  </outline>
</glyph>
<glyph name="semicolon" format="2">
  <advance width="381"/>
  <unicode hex="003B"/>
  <outline>
    <contour>
      <point x="160" y="436" type="curve" smooth="yes"/>
      <point x="160" y="487"/>
      <point x="200" y="528"/>
      <point x="255" y="528" type="curve" smooth="yes"/>
      <point x="310" y="528"/>
      <point x="349" y="487"/>
      <point x="349" y="436" type="curve" smooth="yes"/>
      <point x="349" y="385"/>
      <point x="310" y="342"/>
      <point x="255" y="342" type="curve" smooth="yes"/>
      <point x="200" y="342"/>
      <point x="160" y="385"/>
    </contour>
    <contour>
      <point x="127" y="109" type="line"/>
      <point x="274" y="75" type="line"/>
      <point x="110" y="-172" type="line"/>
      <point x="-3" y="-148" type="line"/>
    </contour>
  </outline>
</glyph>
<glyph name="less" format="1">
  <advance width="621"/>
  <unicode hex="003C"/>
  <outline>
    <contour>
      <point x="292" y="264" type="line"/>
      <point x="557.5" y="144.5" type="line"/>
      <point x="532" y="0.5" type="line"/>
      <point x="71.5" y="214.5" type="line"/>
      <point x="89" y="316" type="line"/>
      <point x="624.5" y="531" type="line"/>
      <point x="596" y="375.5" type="line"/>
    </contour>
  </outline>
</glyph>
<glyph name="equal" format="2">
  <advance width="607"/>
  <unicode hex="003D"/>
  <outline>
    <contour>
      <point x="40" y="83" type="line"/>
      <point x="63" y="215" type="line"/>
      <point x="565" y="215" type="line"/>
      <point x="542" y="83" type="line"/>
    </contour>
    <contour>
      <point x="75" y="290" type="line"/>
      <point x="98" y="422" type="line"/>
      <point x="601" y="422" type="line"/>
      <point x="578" y="290" type="line"/>
    </contour>
  </outline>
</glyph>
<glyph name="greater" format="1">
  <advance width="621"/>
  <unicode hex="003E"/>
  <outline>
    <contour>
      <point x="365" y="264" type="line"/>
      <point x="99.5" y="383.5" type="line"/>
      <point x="124.5" y="527.5" type="line"/>
      <point x="585.5" y="313" type="line"/>
      <point x="568" y="211.5" type="line"/>
      <point x="33" y="-3" type="line"/>
      <point x="60.5" y="152.5" type="line"/>
    </contour>
  </outline>
</glyph>
<glyph name="question" format="2">
  <advance width="608"/>
  <unicode hex="003F"/>
  <outline>
    <contour>
      <point x="466" y="500" type="curve" smooth="yes"/>
      <point x="475" y="555"/>
      <point x="439" y="589"/>
      <point x="377" y="590" type="curve" smooth="yes"/>
      <point x="313" y="591"/>
      <point x="251" y="553"/>
      <point x="208" y="504" type="curve"/>
      <point x="118" y="591" type="line"/>
      <point x="195" y="667"/>
      <point x="284" y="720"/>
      <point x="399" y="719" type="curve" smooth="yes"/>
      <point x="526" y="718"/>
      <point x="636" y="632"/>
      <point x="617" y="500" type="curve" smooth="yes"/>
      <point x="598" y="378"/>
      <point x="486" y="308"/>
      <point x="375" y="285" type="curve"/>
      <point x="355" y="202" type="line"/>
      <point x="231" y="202" type="line"/>
      <point x="241" y="380" type="line"/>
      <point x="271" y="380" type="line"/>
      <point x="369" y="382"/>
      <point x="452" y="435"/>
    </contour>
    <contour>
      <point x="172" y="60" type="curve" smooth="yes"/>
      <point x="172" y="106"/>
      <point x="213" y="142"/>
      <point x="266" y="142" type="curve" smooth="yes"/>
      <point x="319" y="142"/>
      <point x="358" y="105"/>
      <point x="358" y="60" type="curve" smooth="yes"/>
      <point x="358" y="14"/>
      <point x="319" y="-24"/>
      <point x="266" y="-24" type="curve" smooth="yes"/>
      <point x="213" y="-24"/>
      <point x="172" y="14"/>
    </contour>
  </outline>
</glyph>
<glyph name="at" format="2">
  <advance width="747"/>
  <unicode hex="0040"/>
  <outline>
    <contour>
      <point x="335" y="320" type="curve" smooth="yes"/>
      <point x="331" y="288"/>
      <point x="336" y="256"/>
      <point x="364" y="253" type="curve" smooth="yes"/>
      <point x="404" y="247"/>
      <point x="451" y="313"/>
      <point x="457" y="364" type="curve" smooth="yes"/>
      <point x="460" y="398"/>
      <point x="454" y="428"/>
      <point x="426" y="431" type="curve" smooth="yes"/>
      <point x="383" y="436"/>
      <point x="341" y="368"/>
    </contour>
    <contour>
      <point x="216" y="313" type="curve" smooth="yes"/>
      <point x="229" y="428"/>
      <point x="314" y="532"/>
      <point x="407" y="530" type="curve" smooth="yes"/>
      <point x="485" y="528"/>
      <point x="514" y="444"/>
      <point x="505" y="370" type="curve" smooth="yes"/>
      <point x="493" y="255"/>
      <point x="416" y="154"/>
      <point x="321" y="154" type="curve" smooth="yes"/>
      <point x="235" y="154"/>
      <point x="206" y="229"/>
    </contour>
    <contour>
      <point x="44" y="320" type="curve" smooth="yes"/>
      <point x="77" y="537"/>
      <point x="264" y="724"/>
      <point x="494" y="723" type="curve" smooth="yes"/>
      <point x="696" y="722"/>
      <point x="796" y="554"/>
      <point x="770" y="390" type="curve" smooth="yes"/>
      <point x="753" y="246"/>
      <point x="656" y="141"/>
      <point x="544" y="144" type="curve" smooth="yes"/>
      <point x="472" y="146"/>
      <point x="443" y="200"/>
      <point x="452" y="264" type="curve"/>
      <point x="444" y="296" type="line"/>
      <point x="504" y="520" type="line"/>
      <point x="618" y="520" type="line"/>
      <point x="556" y="308" type="line" smooth="yes"/>
      <point x="554" y="300"/>
      <point x="551" y="290"/>
      <point x="550" y="281" type="curve" smooth="yes"/>
      <point x="548" y="263"/>
      <point x="548" y="245"/>
      <point x="566" y="242" type="curve" smooth="yes"/>
      <point x="603" y="232"/>
      <point x="654" y="313"/>
      <point x="660" y="390" type="curve" smooth="yes"/>
      <point x="679" y="507"/>
      <point x="630" y="621"/>
      <point x="486" y="622" type="curve" smooth="yes"/>
      <point x="312" y="623"/>
      <point x="183" y="485"/>
      <point x="155" y="320" type="curve" smooth="yes"/>
      <point x="133" y="183"/>
      <point x="192" y="77"/>
      <point x="347" y="75" type="curve" smooth="yes"/>
      <point x="416" y="74"/>
      <point x="476" y="92"/>
      <point x="536" y="118" type="curve"/>
      <point x="560" y="27" type="line"/>
      <point x="493" y="-6"/>
      <point x="419" y="-26"/>
      <point x="328" y="-26" type="curve" smooth="yes"/>
      <point x="115" y="-24"/>
      <point x="16" y="132"/>
    </contour>
  </outline>
</glyph>
<glyph name="A" format="2">
  <advance width="713"/>
  <unicode hex="0041"/>
  <outline>
    <contour>
      <point x="174" y="134" type="line"/>
      <point x="207" y="263" type="line"/>
      <point x="547" y="263" type="line"/>
      <point x="535" y="134" type="line"/>
    </contour>
    <contour>
      <point x="405" y="441" type="line"/>
      <point x="274" y="216" type="line"/>
      <point x="276" y="178" type="line"/>
      <point x="162" y="0" type="line"/>
      <point x="-32" y="0" type="line"/>
      <point x="456" y="747" type="line"/>
      <point x="688" y="0" type="line"/>
      <point x="502" y="0" type="line"/>
      <point x="452" y="172" type="line"/>
      <point x="463" y="215" type="line"/>
    </contour>
  </outline>
</glyph>
<glyph name="B" format="2">
  <advance width="645"/>
  <unicode hex="0042"/>
  <outline>
    <contour>
      <point x="226" y="348" type="line"/>
      <point x="239" y="422" type="line"/>
      <point x="345" y="422" type="line" smooth="yes"/>
      <point x="397" y="422"/>
      <point x="442" y="449"/>
      <point x="450" y="497" type="curve" smooth="yes"/>
      <point x="458" y="543"/>
      <point x="427" y="568"/>
      <point x="378" y="568" type="curve" smooth="yes"/>
      <point x="309" y="568" type="line"/>
      <point x="233" y="132" type="line"/>
      <point x="311" y="132" type="line" smooth="yes"/>
      <point x="372" y="133"/>
      <point x="432" y="157"/>
      <point x="442" y="221" type="curve" smooth="yes"/>
      <point x="451" y="279"/>
      <point x="406" y="302"/>
      <point x="349" y="303" type="curve" smooth="yes"/>
      <point x="218" y="303" type="line"/>
      <point x="235" y="396" type="line"/>
      <point x="375" y="396" type="line" smooth="yes"/>
      <point x="501" y="395"/>
      <point x="630" y="335"/>
      <point x="611" y="196" type="curve" smooth="yes"/>
      <point x="591" y="57"/>
      <point x="467" y="0"/>
      <point x="317" y="0" type="curve" smooth="yes"/>
      <point x="43" y="0" type="line"/>
      <point x="163" y="700" type="line"/>
      <point x="410" y="700" type="line" smooth="yes"/>
      <point x="534" y="700"/>
      <point x="646" y="643"/>
      <point x="628" y="521" type="curve" smooth="yes"/>
      <point x="610" y="404"/>
      <point x="490" y="349"/>
      <point x="360" y="348" type="curve" smooth="yes"/>
    </contour>
  </outline>
</glyph>
<glyph name="C" format="1">
  <advance width="679"/>
  <unicode hex="0043"/>
  <outline>
    <contour>
      <point x="247.5" y="350" type="curve" smooth="yes"/>
      <point x="229.5" y="237"/>
      <point x="296" y="148.5"/>
      <point x="409.5" y="147" type="curve" smooth="yes"/>
      <point x="502" y="146"/>
      <point x="573.5" y="190"/>
      <point x="631" y="238" type="curve"/>
      <point x="603.5" y="54" type="line"/>
      <point x="541" y="12"/>
      <point x="473" y="-16"/>
      <point x="381.5" y="-16" type="curve" smooth="yes"/>
      <point x="165.5" y="-15.5"/>
      <point x="34" y="146"/>
      <point x="64" y="350" type="curve" smooth="yes"/>
      <point x="96" y="561"/>
      <point x="275.5" y="715.5"/>
      <point x="496.5" y="716" type="curve" smooth="yes"/>
      <point x="584.5" y="716"/>
      <point x="645.5" y="690.5"/>
      <point x="701.5" y="645.5" type="curve"/>
      <point x="673" y="461" type="line"/>
      <point x="631" y="515"/>
      <point x="573.5" y="553"/>
      <point x="488" y="553" type="curve" smooth="yes"/>
      <point x="372" y="552.5"/>
      <point x="268" y="468.5"/>
    </contour>
  </outline>
</glyph>
<glyph name="D" format="1">
  <advance width="712"/>
  <unicode hex="0044"/>
  <outline>
    <contour>
      <point x="162.5" y="700" type="line"/>
      <point x="337" y="700" type="line"/>
      <point x="216.5" y="0" type="line"/>
      <point x="43.5" y="0" type="line"/>
    </contour>
    <contour>
      <point x="293" y="0" type="curve" smooth="yes"/>
      <point x="153" y="0" type="line"/>
      <point x="180" y="151.5" type="line"/>
      <point x="303.5" y="151.5" type="line" smooth="yes"/>
      <point x="419" y="151.5"/>
      <point x="518" y="218"/>
      <point x="539.5" y="350" type="curve" smooth="yes"/>
      <point x="559" y="477"/>
      <point x="492.5" y="548.5"/>
      <point x="380" y="548.5" type="curve" smooth="yes"/>
      <point x="246" y="548.5" type="line"/>
      <point x="273" y="700" type="line"/>
      <point x="402.5" y="700" type="line" smooth="yes"/>
      <point x="618" y="700"/>
      <point x="744.5" y="554.5"/>
      <point x="714" y="350" type="curve" smooth="yes"/>
      <point x="682" y="140"/>
      <point x="514" y="0"/>
    </contour>
  </outline>
</glyph>
<glyph name="E" format="1">
  <advance width="586"/>
  <unicode hex="0045"/>
  <outline>
    <contour>
      <point x="153.5" y="0" type="line"/>
      <point x="178" y="141" type="line"/>
      <point x="524" y="141" type="line"/>
      <point x="499" y="0" type="line"/>
    </contour>
    <contour>
      <point x="249" y="559" type="line"/>
      <point x="273.5" y="700" type="line"/>
      <point x="619" y="700" type="line"/>
      <point x="594.5" y="559" type="line"/>
    </contour>
    <contour>
      <point x="204" y="299" type="line"/>
      <point x="228.5" y="436" type="line"/>
      <point x="554.5" y="436" type="line"/>
      <point x="530.5" y="299" type="line"/>
    </contour>
    <contour>
      <point x="162.5" y="700" type="line"/>
      <point x="325.5" y="700" type="line"/>
      <point x="205" y="0" type="line"/>
      <point x="43.5" y="0" type="line"/>
    </contour>
  </outline>
</glyph>
<glyph name="F" format="2">
  <advance width="536"/>
  <unicode hex="0046"/>
  <outline>
    <contour>
      <point x="248" y="553" type="line"/>
      <point x="273" y="700" type="line"/>
      <point x="580" y="700" type="line"/>
      <point x="554" y="553" type="line"/>
    </contour>
    <contour>
      <point x="201" y="280" type="line"/>
      <point x="225" y="417" type="line"/>
      <point x="522" y="417" type="line"/>
      <point x="498" y="280" type="line"/>
    </contour>
    <contour>
      <point x="162" y="700" type="line"/>
      <point x="325" y="700" type="line"/>
      <point x="204" y="0" type="line"/>
      <point x="44" y="0" type="line"/>
    </contour>
  </outline>
</glyph>
<glyph name="G" format="2">
  <advance width="790"/>
  <unicode hex="0047"/>
  <outline>
    <contour>
      <point x="422" y="253" type="line"/>
      <point x="446" y="383" type="line"/>
      <point x="790" y="383" type="line"/>
      <point x="766" y="168"/>
      <point x="624" y="-23"/>
      <point x="382" y="-23" type="curve" smooth="yes"/>
      <point x="166" y="-23"/>
      <point x="34" y="145"/>
      <point x="64" y="350" type="curve" smooth="yes"/>
      <point x="97" y="563"/>
      <point x="281" y="716"/>
      <point x="501" y="716" type="curve" smooth="yes"/>
      <point x="635" y="716"/>
      <point x="728" y="651"/>
      <point x="786" y="549" type="curve"/>
      <point x="628" y="472" type="line"/>
      <point x="603" y="528"/>
      <point x="559" y="567"/>
      <point x="486" y="567" type="curve" smooth="yes"/>
      <point x="365" y="567"/>
      <point x="261" y="475"/>
      <point x="240" y="350" type="curve" smooth="yes"/>
      <point x="221" y="231"/>
      <point x="276" y="126"/>
      <point x="400" y="126" type="curve" smooth="yes"/>
      <point x="499" y="126"/>
      <point x="560" y="180"/>
      <point x="597" y="253" type="curve"/>
    </contour>
  </outline>
</glyph>
<glyph name="I" format="2">
  <advance width="311"/>
  <unicode hex="0049"/>
  <outline>
    <contour>
      <point x="162" y="700" type="line"/>
      <point x="334" y="700" type="line"/>
      <point x="214" y="0" type="line"/>
      <point x="44" y="0" type="line"/>
    </contour>
  </outline>
</glyph>
<glyph name="J" format="2">
  <advance width="320"/>
  <unicode hex="004A"/>
  <outline>
    <contour>
      <point x="-112" y="-64" type="line"/>
      <point x="-93" y="-81"/>
      <point x="-67" y="-97"/>
      <point x="-39" y="-96" type="curve" smooth="yes"/>
      <point x="-2" y="-95"/>
      <point x="33" y="-64"/>
      <point x="40" y="-15" type="curve" smooth="yes"/>
      <point x="163" y="700" type="line"/>
      <point x="345" y="700" type="line"/>
      <point x="217" y="-54" type="line" smooth="yes"/>
      <point x="196" y="-180"/>
      <point x="87" y="-240"/>
      <point x="-38" y="-239" type="curve" smooth="yes"/>
      <point x="-109" y="-239"/>
      <point x="-173" y="-212"/>
      <point x="-219" y="-181" type="curve"/>
    </contour>
  </outline>
</glyph>
<glyph name="K" format="1">
  <advance width="681"/>
  <unicode hex="004B"/>
  <outline>
    <contour>
      <point x="162.5" y="700" type="line"/>
      <point x="338" y="700" type="line"/>
      <point x="218" y="0" type="line"/>
      <point x="43.5" y="0" type="line"/>
    </contour>
    <contour>
      <point x="562" y="699.5" type="line"/>
      <point x="765.5" y="699.5" type="line"/>
      <point x="429" y="368.5" type="line"/>
      <point x="654" y="0" type="line"/>
      <point x="457" y="0" type="line"/>
      <point x="231" y="371" type="line"/>
    </contour>
  </outline>
</glyph>
<glyph name="L" format="2">
  <advance width="513"/>
  <unicode hex="004C"/>
  <outline>
    <contour>
      <point x="163" y="700" type="line"/>
      <point x="331" y="700" type="line"/>
      <point x="236" y="147" type="line"/>
      <point x="509" y="147" type="line"/>
      <point x="484" y="0" type="line"/>
      <point x="43" y="0" type="line"/>
    </contour>
  </outline>
</glyph>
<glyph name="M" format="2">
  <advance width="865"/>
  <unicode hex="004D"/>
  <outline>
    <contour>
      <point x="284" y="354" type="line"/>
      <point x="182" y="0" type="line"/>
      <point x="3" y="0" type="line"/>
      <point x="240" y="735" type="line"/>
      <point x="456" y="311" type="line"/>
      <point x="824" y="740" type="line"/>
      <point x="807" y="0" type="line"/>
      <point x="630" y="0" type="line"/>
      <point x="650" y="348" type="line"/>
      <point x="419" y="64" type="line"/>
    </contour>
  </outline>
</glyph>
<glyph name="N" format="1">
  <advance width="770"/>
  <unicode hex="004E"/>
  <outline>
    <contour>
      <point x="631" y="700" type="line"/>
      <point x="793" y="700" type="line"/>
      <point x="668" y="-33.5" type="line"/>
      <point x="272.5" y="388.278" type="line"/>
      <point x="205.5" y="0" type="line"/>
      <point x="43" y="0" type="line"/>
      <point x="168" y="733.5" type="line"/>
      <point x="563.5" y="311.394" type="line"/>
    </contour>
  </outline>
</glyph>
<glyph name="O" format="2">
  <advance width="796"/>
  <unicode hex="004F"/>
  <outline>
    <contour>
      <point x="241" y="350" type="curve" smooth="yes"/>
      <point x="224" y="243"/>
      <point x="272" y="142"/>
      <point x="390" y="141" type="curve" smooth="yes"/>
      <point x="509" y="140"/>
      <point x="601" y="235"/>
      <point x="621" y="350" type="curve" smooth="yes"/>
      <point x="638" y="458"/>
      <point x="592" y="558"/>
      <point x="472" y="559" type="curve" smooth="yes"/>
      <point x="353" y="560"/>
      <point x="260" y="465"/>
    </contour>
    <contour>
      <point x="64" y="350" type="curve" smooth="yes"/>
      <point x="95" y="558"/>
      <point x="274" y="716"/>
      <point x="488" y="716" type="curve" smooth="yes"/>
      <point x="699" y="716"/>
      <point x="828" y="551"/>
      <point x="799" y="350" type="curve" smooth="yes"/>
      <point x="768" y="141"/>
      <point x="591" y="-23"/>
      <point x="373" y="-23" type="curve" smooth="yes"/>
      <point x="159" y="-23"/>
      <point x="35" y="149"/>
    </contour>
  </outline>
</glyph>
<glyph name="P" format="2">
  <advance width="605"/>
  <unicode hex="0050"/>
  <outline>
    <contour>
      <point x="162" y="700" type="line"/>
      <point x="331" y="700" type="line"/>
      <point x="211" y="0" type="line"/>
      <point x="44" y="0" type="line"/>
    </contour>
    <contour>
      <point x="243" y="560" type="line"/>
      <point x="267" y="700" type="line"/>
      <point x="395" y="700" type="line"/>
      <point x="553" y="699"/>
      <point x="644" y="613"/>
      <point x="628" y="471" type="curve" smooth="yes"/>
      <point x="612" y="326"/>
      <point x="490" y="243"/>
      <point x="327" y="242" type="curve"/>
      <point x="188" y="242" type="line"/>
      <point x="213" y="382" type="line"/>
      <point x="341" y="382" type="line"/>
      <point x="404" y="383"/>
      <point x="455" y="414"/>
      <point x="466" y="471" type="curve" smooth="yes"/>
      <point x="476" y="526"/>
      <point x="440" y="560"/>
      <point x="380" y="560" type="curve" smooth="yes"/>
    </contour>
  </outline>
</glyph>
<glyph name="Q" format="2">
  <advance width="838"/>
  <unicode hex="0051"/>
  <outline>
    <contour>
      <point x="241" y="350" type="curve" smooth="yes"/>
      <point x="223" y="233"/>
      <point x="283" y="129"/>
      <point x="404" y="128" type="curve" smooth="yes"/>
      <point x="523" y="127"/>
      <point x="616" y="216"/>
      <point x="636" y="331" type="curve" smooth="yes"/>
      <point x="655" y="442"/>
      <point x="605" y="558"/>
      <point x="475" y="559" type="curve" smooth="yes"/>
      <point x="356" y="560"/>
      <point x="261" y="465"/>
    </contour>
    <contour>
      <point x="64" y="350" type="curve" smooth="yes"/>
      <point x="95" y="558"/>
      <point x="278" y="716"/>
      <point x="492" y="716" type="curve" smooth="yes"/>
      <point x="703" y="716"/>
      <point x="828" y="550"/>
      <point x="799" y="350" type="curve" smooth="yes"/>
      <point x="768" y="142"/>
      <point x="594" y="-23"/>
      <point x="376" y="-23" type="curve" smooth="yes"/>
      <point x="162" y="-23"/>
      <point x="35" y="149"/>
    </contour>
    <contour>
      <point x="373" y="300" type="line"/>
      <point x="538" y="300" type="line"/>
      <point x="813" y="-13" type="line"/>
      <point x="641" y="-13" type="line"/>
    </contour>
  </outline>
</glyph>
<glyph name="R" format="2">
  <advance width="628"/>
  <unicode hex="0052"/>
  <outline>
    <contour>
      <point x="270" y="316" type="line"/>
      <point x="440" y="316" type="line"/>
      <point x="597" y="0" type="line"/>
      <point x="406" y="0" type="line"/>
    </contour>
    <contour>
      <point x="162" y="700" type="line"/>
      <point x="331" y="700" type="line"/>
      <point x="211" y="0" type="line"/>
      <point x="44" y="0" type="line"/>
    </contour>
    <contour>
      <point x="242" y="555" type="line"/>
      <point x="267" y="700" type="line"/>
      <point x="408" y="700" type="line" smooth="yes"/>
      <point x="565" y="700"/>
      <point x="658" y="609"/>
      <point x="640" y="471" type="curve" smooth="yes"/>
      <point x="621" y="331"/>
      <point x="501" y="242"/>
      <point x="339" y="242" type="curve" smooth="yes"/>
      <point x="188" y="242" type="line"/>
      <point x="211" y="374" type="line"/>
      <point x="340" y="374" type="line" smooth="yes"/>
      <point x="403" y="374"/>
      <point x="454" y="408"/>
      <point x="465" y="465" type="curve" smooth="yes"/>
      <point x="475" y="520"/>
      <point x="440" y="555"/>
      <point x="380" y="555" type="curve" smooth="yes"/>
    </contour>
  </outline>
</glyph>
<glyph name="S" format="1">
  <advance width="608"/>
  <unicode hex="0053"/>
  <outline>
    <contour>
      <point x="162" y="251.5" type="line"/>
      <point x="194" y="179.5"/>
      <point x="230.5" y="126.5"/>
      <point x="304.5" y="126.5" type="curve" smooth="yes"/>
      <point x="353.5" y="126.5"/>
      <point x="393" y="150.5"/>
      <point x="401.5" y="194" type="curve" smooth="yes"/>
      <point x="413.5" y="253"/>
      <point x="345" y="275"/>
      <point x="284.5" y="301" type="curve" smooth="yes"/>
      <point x="206" y="335.5"/>
      <point x="117" y="400.5"/>
      <point x="132" y="519" type="curve" smooth="yes"/>
      <point x="151" y="640.5"/>
      <point x="270.5" y="716.5"/>
      <point x="405.5" y="716" type="curve" smooth="yes"/>
      <point x="532" y="715.5"/>
      <point x="603.5" y="644"/>
      <point x="631.5" y="561" type="curve"/>
      <point x="497" y="489" type="line"/>
      <point x="474" y="536"/>
      <point x="444.5" y="571"/>
      <point x="392" y="571" type="curve" smooth="yes"/>
      <point x="349.5" y="571"/>
      <point x="310" y="548"/>
      <point x="303" y="512.5" type="curve" smooth="yes"/>
      <point x="291.5" y="460.5"/>
      <point x="378.5" y="437"/>
      <point x="437.5" y="413.5" type="curve" smooth="yes"/>
      <point x="531.5" y="376"/>
      <point x="592.5" y="304"/>
      <point x="578" y="196" type="curve" smooth="yes"/>
      <point x="558" y="58"/>
      <point x="437.5" y="-23"/>
      <point x="287" y="-22.5" type="curve" smooth="yes"/>
      <point x="163.5" y="-22"/>
      <point x="67" y="55"/>
      <point x="33" y="168.5" type="curve"/>
    </contour>
  </outline>
</glyph>
<glyph name="T" format="2">
  <advance width="545"/>
  <unicode hex="0054"/>
  <outline>
    <contour>
      <point x="68" y="547" type="line"/>
      <point x="95" y="700" type="line"/>
      <point x="637" y="700" type="line"/>
      <point x="611" y="547" type="line"/>
      <point x="424" y="547" type="line"/>
      <point x="330" y="0" type="line"/>
      <point x="162" y="0" type="line"/>
      <point x="256" y="547" type="line"/>
    </contour>
  </outline>
</glyph>
<glyph name="U" format="2">
  <advance width="680"/>
  <unicode hex="0055"/>
  <outline>
    <contour>
      <point x="158" y="700" type="line"/>
      <point x="326" y="700" type="line"/>
      <point x="246" y="243" type="line" smooth="yes"/>
      <point x="238" y="181"/>
      <point x="258" y="125"/>
      <point x="330" y="124" type="curve" smooth="yes"/>
      <point x="406" y="123"/>
      <point x="449" y="177"/>
      <point x="461" y="243" type="curve"/>
      <point x="541" y="700" type="line"/>
      <point x="709" y="700" type="line"/>
      <point x="629" y="230" type="line" smooth="yes"/>
      <point x="603" y="67"/>
      <point x="479" y="-29"/>
      <point x="314" y="-29" type="curve" smooth="yes"/>
      <point x="159" y="-29"/>
      <point x="55" y="69"/>
      <point x="78" y="230" type="curve"/>
    </contour>
  </outline>
</glyph>
<glyph name="V" format="1">
  <advance width="714"/>
  <unicode hex="0056"/>
  <outline>
    <contour>
      <point x="383" y="288" type="line"/>
      <point x="610" y="699.5" type="line"/>
      <point x="810" y="699.5" type="line"/>
      <point x="334.5" y="-46.5" type="line"/>
      <point x="90" y="700" type="line"/>
      <point x="283" y="700" type="line"/>
    </contour>
  </outline>
</glyph>
<glyph name="W" format="1">
  <advance width="1034"/>
  <unicode hex="0057"/>
  <outline>
    <contour>
      <point x="735.243" y="290.078" type="line"/>
      <point x="922.5" y="700" type="line"/>
      <point x="1125" y="699.5" type="line"/>
      <point x="714.5" y="-43.5" type="line"/>
      <point x="560" y="375.5" type="line"/>
      <point x="275" y="-44.5" type="line"/>
      <point x="95" y="700" type="line"/>
      <point x="291.5" y="700" type="line"/>
      <point x="352.051" y="292.74" type="line"/>
      <point x="612.5" y="737.5" type="line"/>
    </contour>
  </outline>
</glyph>
<glyph name="X" format="1">
  <advance width="668"/>
  <unicode hex="0058"/>
  <outline>
    <contour>
      <point x="533" y="699.5" type="line"/>
      <point x="745" y="699.5" type="line"/>
      <point x="475" y="355" type="line"/>
      <point x="646" y="0" type="line"/>
      <point x="443.5" y="0" type="line"/>
      <point x="356.5" y="228.5" type="line"/>
      <point x="194.5" y="0" type="line"/>
      <point x="-17" y="0" type="line"/>
      <point x="275.5" y="362.5" type="line"/>
      <point x="119.5" y="700" type="line"/>
      <point x="323" y="700" type="line"/>
      <point x="395" y="501" type="line"/>
    </contour>
  </outline>
</glyph>
<glyph name="Y" format="1">
  <advance width="642"/>
  <unicode hex="0059"/>
  <outline>
    <contour>
      <point x="542" y="699.5" type="line"/>
      <point x="740.5" y="699.5" type="line"/>
      <point x="427.5" y="279.789" type="line"/>
      <point x="380" y="0" type="line"/>
      <point x="208" y="0" type="line"/>
      <point x="259" y="288.289" type="line"/>
      <point x="92" y="700" type="line"/>
      <point x="281.5" y="700" type="line"/>
      <point x="367.5" y="441" type="line"/>
    </contour>
  </outline>
</glyph>
<glyph name="Z" format="2">
  <advance width="602"/>
  <unicode hex="005A"/>
  <outline>
    <contour>
      <point x="120" y="547" type="line"/>
      <point x="147" y="700" type="line"/>
      <point x="685" y="700" type="line"/>
      <point x="271" y="147" type="line"/>
      <point x="555" y="147" type="line"/>
      <point x="528" y="0" type="line"/>
      <point x="-22" y="0" type="line"/>
      <point x="388" y="546" type="line"/>
    </contour>
  </outline>
</glyph>
<glyph name="bracketleft" format="2">
  <advance width="352"/>
  <unicode hex="005B"/>
  <outline>
    <contour>
      <point x="320" y="648" type="line"/>
      <point x="206" y="-88" type="line"/>
      <point x="304" y="-88" type="line"/>
      <point x="283" y="-220" type="line"/>
      <point x="35" y="-220" type="line"/>
      <point x="190" y="780" type="line"/>
      <point x="438" y="780" type="line"/>
      <point x="417" y="648" type="line"/>
    </contour>
  </outline>
</glyph>
<glyph name="backslash" format="2">
  <advance width="529"/>
  <unicode hex="005C"/>
  <outline>
    <contour>
      <point x="107" y="700" type="line"/>
      <point x="250" y="700" type="line"/>
      <point x="488" y="0" type="line"/>
      <point x="346" y="0" type="line"/>
    </contour>
  </outline>
</glyph>
<glyph name="bracketright" format="1">
  <advance width="352"/>
  <unicode hex="005D"/>
  <outline>
    <contour>
      <point x="85.5" y="-87" type="line"/>
      <point x="198.5" y="647" type="line"/>
      <point x="100" y="647" type="line"/>
      <point x="121.5" y="780" type="line"/>
      <point x="370" y="780" type="line"/>
      <point x="215" y="-220" type="line"/>
      <point x="-33.5" y="-220" type="line"/>
      <point x="-12.5" y="-87.5" type="line"/>
    </contour>
  </outline>
</glyph>
<glyph name="asciicircum" format="2">
  <advance width="494"/>
  <unicode hex="005E"/>
  <outline>
    <contour>
      <point x="322" y="577" type="line"/>
      <point x="224" y="448" type="line"/>
      <point x="84" y="448" type="line"/>
      <point x="294" y="710" type="line"/>
      <point x="384" y="710" type="line"/>
      <point x="504" y="447" type="line"/>
      <point x="374" y="447" type="line"/>
    </contour>
  </outline>
</glyph>
<glyph name="underscore" format="2">
  <advance width="515"/>
  <unicode hex="005F"/>
  <outline>
    <contour>
      <point x="-55" y="-153" type="line"/>
      <point x="-38" y="-58" type="line"/>
      <point x="481" y="-58" type="line"/>
      <point x="464" y="-153" type="line"/>
    </contour>
  </outline>
</glyph>
<glyph name="grave" format="1">
  <advance width="363"/>
  <unicode hex="0060"/>
  <outline>
    <contour>
      <point x="135" y="656" type="line"/>
      <point x="253" y="706.5" type="line"/>
      <point x="376.5" y="544" type="line"/>
      <point x="289.5" y="504" type="line"/>
    </contour>
  </outline>
</glyph>
<glyph name="b" format="1">
  <advance width="598"/>
  <unicode hex="0062"/>
  <outline>
    <contour>
      <point x="312.5" y="780" type="line"/>
      <point x="178.5" y="0" type="line"/>
      <point x="27" y="0" type="line"/>
      <point x="160.5" y="780" type="line"/>
    </contour>
    <contour>
      <point x="582" y="229.5" type="curve" smooth="yes"/>
      <point x="564" y="92"/>
      <point x="454.5" y="-10.5"/>
      <point x="332.5" y="-10" type="curve" smooth="yes"/>
      <point x="209" y="-9.5"/>
      <point x="159.5" y="105.5"/>
      <point x="175" y="230.5" type="curve" smooth="yes"/>
      <point x="192.5" y="362"/>
      <point x="282.5" y="469.5"/>
      <point x="405" y="469.5" type="curve" smooth="yes"/>
      <point x="527.5" y="469.5"/>
      <point x="598.5" y="361.5"/>
    </contour>
    <contour>
      <point x="425" y="230.5" type="curve" smooth="yes"/>
      <point x="434" y="290.5"/>
      <point x="403" y="345.5"/>
      <point x="342.5" y="346.5" type="curve" smooth="yes"/>
      <point x="285.5" y="347.5"/>
      <point x="228.5" y="294"/>
      <point x="218" y="229.5" type="curve" smooth="yes"/>
      <point x="209.5" y="169"/>
      <point x="240" y="115"/>
      <point x="295.5" y="113.5" type="curve" smooth="yes"/>
      <point x="357.5" y="112"/>
      <point x="414.5" y="167"/>
    </contour>
  </outline>
</glyph>
<glyph name="c" format="2">
  <advance width="478"/>
  <unicode hex="0063"/>
  <outline>
    <contour>
      <point x="200" y="230" type="curve" smooth="yes"/>
      <point x="190" y="164"/>
      <point x="231" y="114"/>
      <point x="297" y="112" type="curve" smooth="yes"/>
      <point x="353" y="111"/>
      <point x="406" y="141"/>
      <point x="441" y="179" type="curve"/>
      <point x="421" y="31" type="line"/>
      <point x="382" y="6"/>
      <point x="335" y="-10"/>
      <point x="274" y="-10" type="curve" smooth="yes"/>
      <point x="129" y="-10"/>
      <point x="28" y="91"/>
      <point x="46" y="230" type="curve" smooth="yes"/>
      <point x="65" y="372"/>
      <point x="190" y="470"/>
      <point x="339" y="470" type="curve" smooth="yes"/>
      <point x="398" y="470"/>
      <point x="442" y="454"/>
      <point x="479" y="430" type="curve"/>
      <point x="460" y="281" type="line"/>
      <point x="435" y="323"/>
      <point x="390" y="348"/>
      <point x="341" y="348" type="curve" smooth="yes"/>
      <point x="270" y="348"/>
      <point x="211" y="296"/>
    </contour>
  </outline>
</glyph>
<glyph name="d" format="1">
  <advance width="598"/>
  <unicode hex="0064"/>
  <outline>
    <contour>
      <point x="500" y="780" type="line"/>
      <point x="652" y="780" type="line"/>
      <point x="518" y="0" type="line"/>
      <point x="367" y="0" type="line"/>
    </contour>
    <contour>
      <point x="41.5" y="230.5" type="curve" smooth="yes"/>
      <point x="59.5" y="368"/>
      <point x="169" y="470.5"/>
      <point x="291" y="470" type="curve" smooth="yes"/>
      <point x="414.5" y="469.5"/>
      <point x="464.5" y="354.5"/>
      <point x="449" y="229.5" type="curve" smooth="yes"/>
      <point x="431.5" y="98"/>
      <point x="341.5" y="-9.5"/>
      <point x="219" y="-9.5" type="curve" smooth="yes"/>
      <point x="96.5" y="-9.5"/>
      <point x="25" y="98.5"/>
    </contour>
    <contour>
      <point x="199" y="229.5" type="curve" smooth="yes"/>
      <point x="190" y="169.5"/>
      <point x="220.5" y="114.5"/>
      <point x="281" y="113.5" type="curve" smooth="yes"/>
      <point x="338" y="112.5"/>
      <point x="396" y="166"/>
      <point x="406.5" y="230.5" type="curve" smooth="yes"/>
      <point x="415" y="291"/>
      <point x="384" y="345"/>
      <point x="328.5" y="346.5" type="curve" smooth="yes"/>
      <point x="266.5" y="348"/>
      <point x="209.5" y="293"/>
    </contour>
  </outline>
</glyph>
<glyph name="e" format="2">
  <advance width="556"/>
  <unicode hex="0065"/>
  <outline>
    <contour>
      <point x="128" y="197" type="line"/>
      <point x="140" y="281" type="line"/>
      <point x="393" y="281" type="line"/>
      <point x="393" y="328"/>
      <point x="374" y="367"/>
      <point x="322" y="368" type="curve" smooth="yes"/>
      <point x="259" y="369"/>
      <point x="217" y="316"/>
      <point x="205" y="253" type="curve"/>
      <point x="199" y="230" type="line"/>
      <point x="190" y="157"/>
      <point x="213" y="104"/>
      <point x="277" y="101" type="curve" smooth="yes"/>
      <point x="328" y="99"/>
      <point x="368" y="126"/>
      <point x="396" y="159" type="curve"/>
      <point x="529" y="125" type="line"/>
      <point x="471" y="45"/>
      <point x="391" y="-11"/>
      <point x="271" y="-10" type="curve" smooth="yes"/>
      <point x="117" y="-9"/>
      <point x="30" y="93"/>
      <point x="48" y="230" type="curve" smooth="yes"/>
      <point x="50" y="247"/>
      <point x="54" y="263"/>
      <point x="59" y="279" type="curve" smooth="yes"/>
      <point x="95" y="393"/>
      <point x="196" y="470"/>
      <point x="334" y="470" type="curve" smooth="yes"/>
      <point x="484" y="470"/>
      <point x="561" y="375"/>
      <point x="545" y="237" type="curve" smooth="yes"/>
      <point x="544" y="226"/>
      <point x="542" y="212"/>
      <point x="539" y="197" type="curve"/>
    </contour>
  </outline>
</glyph>
<glyph name="f" format="2">
  <advance width="334"/>
  <unicode hex="0066"/>
  <outline>
    <contour>
      <point x="68" y="460" type="line"/>
      <point x="377" y="460" type="line"/>
      <point x="355" y="334" type="line"/>
      <point x="45" y="334" type="line"/>
    </contour>
    <contour>
      <point x="392" y="634" type="line"/>
      <point x="381" y="648"/>
      <point x="368" y="660"/>
      <point x="351" y="660" type="curve" smooth="yes"/>
      <point x="318" y="660"/>
      <point x="296" y="628"/>
      <point x="291" y="591" type="curve" smooth="yes"/>
      <point x="189" y="0" type="line"/>
      <point x="44" y="0" type="line"/>
      <point x="151" y="630" type="line" smooth="yes"/>
      <point x="168" y="727"/>
      <point x="238" y="797"/>
      <point x="347" y="796" type="curve" smooth="yes"/>
      <point x="405" y="796"/>
      <point x="440" y="770"/>
      <point x="467" y="744" type="curve"/>
    </contour>
  </outline>
</glyph>
<glyph name="g" format="2">
  <advance width="592"/>
  <unicode hex="0067"/>
  <outline>
    <contour>
      <point x="6" y="-33" type="curve"/>
      <point x="149" y="-34" type="line"/>
      <point x="151" y="-86"/>
      <point x="177" y="-116"/>
      <point x="233" y="-117" type="curve" smooth="yes"/>
      <point x="302" y="-118"/>
      <point x="357" y="-64"/>
      <point x="368" y="10" type="curve" smooth="yes"/>
      <point x="445" y="460" type="line"/>
      <point x="591" y="460" type="line"/>
      <point x="514" y="10" type="line" smooth="yes"/>
      <point x="489" y="-148"/>
      <point x="379" y="-239"/>
      <point x="230" y="-239" type="curve" smooth="yes"/>
      <point x="78" y="-239"/>
      <point x="5" y="-159"/>
    </contour>
    <contour>
      <point x="42" y="237" type="curve" smooth="yes"/>
      <point x="60" y="374"/>
      <point x="169" y="471"/>
      <point x="291" y="470" type="curve" smooth="yes"/>
      <point x="414" y="469"/>
      <point x="466" y="362"/>
      <point x="450" y="236" type="curve" smooth="yes"/>
      <point x="432" y="105"/>
      <point x="343" y="3"/>
      <point x="221" y="3" type="curve" smooth="yes"/>
      <point x="99" y="3"/>
      <point x="25" y="104"/>
    </contour>
    <contour>
      <point x="200" y="236" type="curve" smooth="yes"/>
      <point x="191" y="176"/>
      <point x="223" y="127"/>
      <point x="283" y="126" type="curve" smooth="yes"/>
      <point x="339" y="125"/>
      <point x="397" y="173"/>
      <point x="407" y="237" type="curve" smooth="yes"/>
      <point x="416" y="298"/>
      <point x="383" y="346"/>
      <point x="328" y="347" type="curve" smooth="yes"/>
      <point x="263" y="348"/>
      <point x="210" y="299"/>
    </contour>
  </outline>
</glyph>
<glyph name="h" format="1">
  <advance width="551"/>
  <unicode hex="0068"/>
  <outline>
    <contour>
      <point x="314.5" y="780" type="line"/>
      <point x="180.5" y="0" type="line"/>
      <point x="29" y="0" type="line"/>
      <point x="162.5" y="780" type="line"/>
    </contour>
    <contour>
      <point x="368" y="280" type="line" smooth="yes"/>
      <point x="373" y="322.5"/>
      <point x="368.5" y="360"/>
      <point x="321.5" y="363" type="curve" smooth="yes"/>
      <point x="273.5" y="366"/>
      <point x="239.5" y="324.5"/>
      <point x="228.5" y="280.5" type="curve"/>
      <point x="201" y="281" type="line"/>
      <point x="219.5" y="382.5"/>
      <point x="278.5" y="476.5"/>
      <point x="392" y="477" type="curve" smooth="yes"/>
      <point x="503" y="477.5"/>
      <point x="535" y="402"/>
      <point x="521" y="302.5" type="curve"/>
      <point x="469.5" y="0" type="line"/>
      <point x="318.5" y="0" type="line"/>
    </contour>
  </outline>
</glyph>
<glyph name="i" format="2">
  <advance width="267"/>
  <unicode hex="0069"/>
  <outline>
    <contour>
      <point x="126" y="632" type="curve" smooth="yes"/>
      <point x="126" y="680"/>
      <point x="166" y="714"/>
      <point x="215" y="714" type="curve" smooth="yes"/>
      <point x="264" y="714"/>
      <point x="304" y="680"/>
      <point x="304" y="632" type="curve" smooth="yes"/>
      <point x="304" y="584"/>
      <point x="264" y="550"/>
      <point x="215" y="550" type="curve" smooth="yes"/>
      <point x="166" y="550"/>
      <point x="126" y="584"/>
    </contour>
    <contour>
      <point x="112" y="460" type="line"/>
      <point x="259" y="460" type="line"/>
      <point x="180" y="0" type="line"/>
      <point x="34" y="0" type="line"/>
    </contour>
  </outline>
</glyph>
<glyph name="j" format="2">
  <advance width="263"/>
  <unicode hex="006A"/>
  <outline>
    <contour>
      <point x="123" y="632" type="curve" smooth="yes"/>
      <point x="123" y="680"/>
      <point x="162" y="714"/>
      <point x="211" y="714" type="curve" smooth="yes"/>
      <point x="260" y="714"/>
      <point x="300" y="680"/>
      <point x="300" y="632" type="curve" smooth="yes"/>
      <point x="300" y="584"/>
      <point x="260" y="550"/>
      <point x="211" y="550" type="curve" smooth="yes"/>
      <point x="162" y="550"/>
      <point x="123" y="584"/>
    </contour>
    <contour>
      <point x="-76" y="-77" type="line"/>
      <point x="-65" y="-92"/>
      <point x="-50" y="-103"/>
      <point x="-33" y="-103" type="curve" smooth="yes"/>
      <point x="-1" y="-104"/>
      <point x="19" y="-70"/>
      <point x="24" y="-34" type="curve" smooth="yes"/>
      <point x="109" y="460" type="line"/>
      <point x="255" y="460" type="line"/>
      <point x="164" y="-73" type="line" smooth="yes"/>
      <point x="147" y="-170"/>
      <point x="80" y="-240"/>
      <point x="-29" y="-239" type="curve" smooth="yes"/>
      <point x="-87" y="-239"/>
      <point x="-124" y="-213"/>
      <point x="-152" y="-187" type="curve"/>
    </contour>
  </outline>
</glyph>
<glyph name="k" format="1">
  <advance width="562"/>
  <unicode hex="006B"/>
  <outline>
    <contour>
      <point x="160.5" y="780" type="line"/>
      <point x="306" y="780" type="line"/>
      <point x="172" y="0" type="line"/>
      <point x="27.5" y="0" type="line"/>
    </contour>
    <contour>
      <point x="407.5" y="459.5" type="line"/>
      <point x="593.5" y="459.5" type="line"/>
      <point x="363.5" y="265.5" type="line"/>
      <point x="527.5" y="0" type="line"/>
      <point x="357.5" y="0" type="line"/>
      <point x="189" y="274" type="line"/>
    </contour>
  </outline>
</glyph>
<glyph name="l" format="1">
  <advance width="262"/>
  <unicode hex="006C"/>
  <outline>
    <contour>
      <point x="162" y="780" type="line"/>
      <point x="314.5" y="780" type="line"/>
      <point x="180" y="0" type="line"/>
      <point x="29.5" y="0" type="line"/>
    </contour>
  </outline>
</glyph>
<glyph name="m" format="1">
  <advance width="796"/>
  <unicode hex="006D"/>
  <outline>
    <contour>
      <point x="342" y="280.5" type="line" smooth="yes"/>
      <point x="346" y="321"/>
      <point x="345" y="359.5"/>
      <point x="303" y="362.5" type="curve" smooth="yes"/>
      <point x="260" y="366"/>
      <point x="230.5" y="323"/>
      <point x="221.5" y="280.5" type="curve"/>
      <point x="193.5" y="275" type="line"/>
      <point x="211.5" y="375.5"/>
      <point x="269" y="469"/>
      <point x="378" y="470" type="curve" smooth="yes"/>
      <point x="484" y="471"/>
      <point x="507" y="399.5"/>
      <point x="495" y="302.5" type="curve" smooth="yes"/>
      <point x="443.5" y="0" type="line"/>
      <point x="292.5" y="0" type="line"/>
    </contour>
    <contour>
      <point x="253" y="460" type="line"/>
      <point x="174" y="0" type="line"/>
      <point x="28.5" y="0" type="line"/>
      <point x="108" y="460" type="line"/>
    </contour>
    <contour>
      <point x="764.5" y="296" type="curve" smooth="yes"/>
      <point x="714.5" y="0" type="line"/>
      <point x="562.5" y="0" type="line"/>
      <point x="612.5" y="280" type="line" smooth="yes"/>
      <point x="616.5" y="320.5"/>
      <point x="615" y="359.5"/>
      <point x="573" y="362.5" type="curve" smooth="yes"/>
      <point x="530" y="366"/>
      <point x="500.5" y="323"/>
      <point x="491.5" y="280.5" type="curve"/>
      <point x="440" y="275" type="line"/>
      <point x="460" y="377.5"/>
      <point x="537" y="469.5"/>
      <point x="648" y="470" type="curve" smooth="yes"/>
      <point x="755" y="470.5"/>
      <point x="776.5" y="393"/>
    </contour>
  </outline>
</glyph>
<glyph name="n" format="1">
  <advance width="558"/>
  <unicode hex="006E"/>
  <outline>
    <contour>
      <point x="259.5" y="460" type="line"/>
      <point x="180.5" y="0" type="line"/>
      <point x="28.5" y="0" type="line"/>
      <point x="108" y="460" type="line"/>
    </contour>
    <contour>
      <point x="368" y="280" type="line" smooth="yes"/>
      <point x="373" y="322.5"/>
      <point x="368" y="360"/>
      <point x="321" y="363" type="curve" smooth="yes"/>
      <point x="273" y="366"/>
      <point x="239.5" y="324.5"/>
      <point x="228.5" y="280.5" type="curve"/>
      <point x="200.5" y="275" type="line"/>
      <point x="218.5" y="376.5"/>
      <point x="277.5" y="469.5"/>
      <point x="391" y="470" type="curve" smooth="yes"/>
      <point x="501.5" y="470.5"/>
      <point x="540.5" y="396"/>
      <point x="526" y="296" type="curve"/>
      <point x="475.5" y="0" type="line"/>
      <point x="318.5" y="0" type="line"/>
    </contour>
  </outline>
</glyph>
<glyph name="o" format="1">
  <advance width="572"/>
  <unicode hex="006F"/>
  <outline>
    <contour>
      <point x="48" y="230.5" type="curve" smooth="yes"/>
      <point x="66.5" y="372"/>
      <point x="191.5" y="470"/>
      <point x="337.5" y="470" type="curve" smooth="yes"/>
      <point x="480.5" y="470"/>
      <point x="580" y="368.5"/>
      <point x="562" y="229.5" type="curve" smooth="yes"/>
      <point x="543.5" y="88"/>
      <point x="418.5" y="-10"/>
      <point x="272.5" y="-10" type="curve" smooth="yes"/>
      <point x="130" y="-10"/>
      <point x="30" y="91.5"/>
    </contour>
    <contour>
      <point x="202.5" y="229.5" type="curve" smooth="yes"/>
      <point x="194" y="170"/>
      <point x="224.5" y="117.5"/>
      <point x="284" y="116.5" type="curve" smooth="yes"/>
      <point x="344.5" y="115.5"/>
      <point x="398" y="167.5"/>
      <point x="407.5" y="230.5" type="curve" smooth="yes"/>
      <point x="416" y="290"/>
      <point x="385.5" y="343.5"/>
      <point x="326" y="344.5" type="curve" smooth="yes"/>
      <point x="265.5" y="345.5"/>
      <point x="212" y="292.5"/>
    </contour>
  </outline>
</glyph>
<glyph name="p" format="2">
  <advance width="598"/>
  <unicode hex="0070"/>
  <outline>
    <contour>
      <point x="141" y="-220" type="line"/>
      <point x="-11" y="-220" type="line"/>
      <point x="106" y="460" type="line"/>
      <point x="257" y="460" type="line"/>
    </contour>
    <contour>
      <point x="582" y="230" type="curve" smooth="yes"/>
      <point x="563" y="89"/>
      <point x="456" y="-17"/>
      <point x="332" y="-16" type="curve" smooth="yes"/>
      <point x="203" y="-15"/>
      <point x="165" y="106"/>
      <point x="181" y="230" type="curve" smooth="yes"/>
      <point x="199" y="361"/>
      <point x="278" y="476"/>
      <point x="405" y="476" type="curve" smooth="yes"/>
      <point x="529" y="476"/>
      <point x="599" y="365"/>
    </contour>
    <contour>
      <point x="425" y="230" type="curve" smooth="yes"/>
      <point x="434" y="290"/>
      <point x="402" y="340"/>
      <point x="342" y="341" type="curve" smooth="yes"/>
      <point x="286" y="342"/>
      <point x="228" y="295"/>
      <point x="218" y="230" type="curve" smooth="yes"/>
      <point x="209" y="169"/>
      <point x="241" y="121"/>
      <point x="296" y="119" type="curve" smooth="yes"/>
      <point x="358" y="117"/>
      <point x="415" y="167"/>
    </contour>
  </outline>
</glyph>
<glyph name="q" format="1">
  <advance width="598"/>
  <unicode hex="0071"/>
  <outline>
    <contour>
      <point x="329" y="-220" type="line"/>
      <point x="445.5" y="460" type="line"/>
      <point x="597.5" y="460" type="line"/>
      <point x="480.5" y="-220" type="line"/>
    </contour>
    <contour>
      <point x="41.5" y="230.5" type="curve" smooth="yes"/>
      <point x="60" y="371.5"/>
      <point x="168.5" y="476.5"/>
      <point x="292" y="476" type="curve" smooth="yes"/>
      <point x="421.5" y="475.5"/>
      <point x="458.5" y="354.5"/>
      <point x="443" y="230" type="curve" smooth="yes"/>
      <point x="425.5" y="98.5"/>
      <point x="345.5" y="-15.5"/>
      <point x="218" y="-16" type="curve" smooth="yes"/>
      <point x="94" y="-16.5"/>
      <point x="25" y="95.5"/>
    </contour>
    <contour>
      <point x="199" y="229.5" type="curve" smooth="yes"/>
      <point x="190" y="168.5"/>
      <point x="222.5" y="121"/>
      <point x="282.5" y="119.5" type="curve" smooth="yes"/>
      <point x="338.5" y="118"/>
      <point x="397" y="166"/>
      <point x="406.5" y="230.5" type="curve" smooth="yes"/>
      <point x="415" y="292"/>
      <point x="381.5" y="338.5"/>
      <point x="327" y="340.5" type="curve" smooth="yes"/>
      <point x="266" y="342.5"/>
      <point x="209" y="293"/>
    </contour>
  </outline>
</glyph>
<glyph name="r" format="2">
  <advance width="402"/>
  <unicode hex="0072"/>
  <outline>
    <contour>
      <point x="256" y="460" type="line"/>
      <point x="177" y="0" type="line"/>
      <point x="28" y="0" type="line"/>
      <point x="108" y="460" type="line"/>
    </contour>
    <contour>
      <point x="363" y="303" type="line"/>
      <point x="348" y="317"/>
      <point x="334" y="328"/>
      <point x="311" y="328" type="curve" smooth="yes"/>
      <point x="261" y="329"/>
      <point x="223" y="280"/>
      <point x="215" y="227" type="curve"/>
      <point x="193" y="281" type="line"/>
      <point x="210" y="376"/>
      <point x="288" y="470"/>
      <point x="368" y="471" type="curve" smooth="yes"/>
      <point x="401" y="471"/>
      <point x="428" y="454"/>
      <point x="447" y="431" type="curve"/>
    </contour>
  </outline>
</glyph>
<glyph name="s" format="1">
  <advance width="441"/>
  <unicode hex="0073"/>
  <outline>
    <contour>
      <point x="87" y="174" type="line"/>
      <point x="133" y="133.5"/>
      <point x="180.5" y="94.5"/>
      <point x="224.5" y="96.5" type="curve" smooth="yes"/>
      <point x="249.5" y="97"/>
      <point x="272" y="109.5"/>
      <point x="275" y="130" type="curve" smooth="yes"/>
      <point x="280" y="163"/>
      <point x="231.5" y="177.5"/>
      <point x="193" y="193" type="curve" smooth="yes"/>
      <point x="129.5" y="218.5"/>
      <point x="75.5" y="262"/>
      <point x="85" y="340.5" type="curve" smooth="yes"/>
      <point x="96.5" y="419.5"/>
      <point x="177" y="469"/>
      <point x="269" y="469.5" type="curve" smooth="yes"/>
      <point x="343" y="470"/>
      <point x="406" y="440"/>
      <point x="453.5" y="400" type="curve"/>
      <point x="388" y="305.5" type="line"/>
      <point x="352.5" y="338"/>
      <point x="314.5" y="363"/>
      <point x="274" y="363" type="curve" smooth="yes"/>
      <point x="248" y="363"/>
      <point x="225" y="352"/>
      <point x="221.5" y="333.5" type="curve" smooth="yes"/>
      <point x="215" y="300.5"/>
      <point x="276.5" y="288"/>
      <point x="316.5" y="272" type="curve" smooth="yes"/>
      <point x="378.5" y="246.5"/>
      <point x="430" y="206"/>
      <point x="422" y="128.5" type="curve" smooth="yes"/>
      <point x="410.5" y="34"/>
      <point x="335" y="-18.5"/>
      <point x="232" y="-19" type="curve" smooth="yes"/>
      <point x="141" y="-19.5"/>
      <point x="67" y="22"/>
      <point x="12" y="77.5" type="curve"/>
    </contour>
  </outline>
</glyph>
<glyph name="t" format="1">
  <advance width="309"/>
  <unicode hex="0074"/>
  <outline>
    <contour>
      <point x="56" y="460" type="line"/>
      <point x="359" y="460" type="line"/>
      <point x="336.5" y="334" type="line"/>
      <point x="33" y="334" type="line"/>
    </contour>
    <contour>
      <point x="161" y="620" type="line"/>
      <point x="307" y="620" type="line"/>
      <point x="200" y="0" type="line"/>
      <point x="55.5" y="0" type="line"/>
    </contour>
  </outline>
</glyph>
<glyph name="u" format="1">
  <advance width="558"/>
  <unicode hex="0075"/>
  <outline>
    <contour>
      <point x="324" y="0" type="line"/>
      <point x="403.5" y="460" type="line"/>
      <point x="555" y="460" type="line"/>
      <point x="476" y="0" type="line"/>
    </contour>
    <contour>
      <point x="215.5" y="180" type="line"/>
      <point x="211" y="137.5"/>
      <point x="215" y="100"/>
      <point x="262" y="97" type="curve" smooth="yes"/>
      <point x="310" y="94"/>
      <point x="344.5" y="135.5"/>
      <point x="355.5" y="179.5" type="curve"/>
      <point x="383" y="185" type="line"/>
      <point x="365" y="83.5"/>
      <point x="306" y="-9.5"/>
      <point x="192.5" y="-10" type="curve" smooth="yes"/>
      <point x="82" y="-10.5"/>
      <point x="45" y="63"/>
      <point x="57.5" y="164" type="curve"/>
      <point x="108" y="460" type="line"/>
      <point x="265" y="460" type="line"/>
    </contour>
  </outline>
</glyph>
<glyph name="v" format="1">
  <advance width="512"/>
  <unicode hex="0076"/>
  <outline>
    <contour>
      <point x="51.5" y="460" type="line"/>
      <point x="210.5" y="460" type="line"/>
      <point x="272" y="210" type="line"/>
      <point x="411" y="459.5" type="line"/>
      <point x="573.5" y="459.5" type="line"/>
      <point x="232.5" y="-56.5" type="line"/>
    </contour>
  </outline>
</glyph>
<glyph name="w" format="2">
  <advance width="739"/>
  <unicode hex="0077"/>
  <outline>
    <contour>
      <point x="45" y="460" type="line"/>
      <point x="198" y="460" type="line"/>
      <point x="250" y="229" type="line"/>
      <point x="425" y="497" type="line"/>
      <point x="508" y="228" type="line"/>
      <point x="641" y="460" type="line"/>
      <point x="803" y="460" type="line"/>
      <point x="485" y="-31" type="line"/>
      <point x="385" y="241" type="line"/>
      <point x="192" y="-31" type="line"/>
    </contour>
  </outline>
</glyph>
<glyph name="x" format="2">
  <advance width="517"/>
  <unicode hex="0078"/>
  <outline>
    <contour>
      <point x="395" y="460" type="line"/>
      <point x="566" y="460" type="line"/>
      <point x="357" y="233" type="line"/>
      <point x="500" y="0" type="line"/>
      <point x="338" y="0" type="line"/>
      <point x="264" y="135" type="line"/>
      <point x="156" y="0" type="line"/>
      <point x="-21" y="0" type="line"/>
      <point x="200" y="244" type="line"/>
      <point x="65" y="460" type="line"/>
      <point x="232" y="460" type="line"/>
      <point x="295" y="341" type="line"/>
    </contour>
  </outline>
</glyph>
<glyph name="y" format="2">
  <advance width="506"/>
  <unicode hex="0079"/>
  <outline>
    <contour>
      <point x="571" y="460" type="line"/>
      <point x="163" y="-220" type="line"/>
      <point x="8" y="-220" type="line"/>
      <point x="165" y="41" type="line"/>
      <point x="43" y="460" type="line"/>
      <point x="203" y="460" type="line"/>
      <point x="285" y="90" type="line"/>
      <point x="207" y="92" type="line"/>
      <point x="413" y="460" type="line"/>
    </contour>
  </outline>
</glyph>
<glyph name="z" format="2">
  <advance width="507"/>
  <unicode hex="007A"/>
  <outline>
    <contour>
      <point x="272" y="322" type="line"/>
      <point x="82" y="322" type="line"/>
      <point x="106" y="460" type="line"/>
      <point x="549" y="460" type="line"/>
      <point x="271" y="138" type="line"/>
      <point x="460" y="138" type="line"/>
      <point x="436" y="0" type="line"/>
      <point x="-17" y="0" type="line"/>
    </contour>
  </outline>
</glyph>
<glyph name="braceleft" format="2">
  <advance width="386"/>
  <unicode hex="007B"/>
  <outline>
    <contour>
      <point x="338" y="609" type="curve" smooth="yes"/>
      <point x="319" y="490" type="line" smooth="yes"/>
      <point x="301" y="390"/>
      <point x="274" y="289"/>
      <point x="144" y="280" type="curve"/>
      <point x="146" y="300" type="line"/>
      <point x="273" y="288"/>
      <point x="271" y="181"/>
      <point x="256" y="90" type="curve" smooth="yes"/>
      <point x="237" y="-30" type="line" smooth="yes"/>
      <point x="233" y="-57"/>
      <point x="245" y="-79"/>
      <point x="275" y="-79" type="curve" smooth="yes"/>
      <point x="311" y="-79" type="line"/>
      <point x="293" y="-200" type="line"/>
      <point x="206" y="-200" type="line" smooth="yes"/>
      <point x="125" y="-199"/>
      <point x="56" y="-150"/>
      <point x="68" y="-60" type="curve" smooth="yes"/>
      <point x="97" y="125" type="line" smooth="yes"/>
      <point x="104" y="188"/>
      <point x="97" y="215"/>
      <point x="54" y="235" type="curve"/>
      <point x="70" y="345" type="line"/>
      <point x="116" y="362"/>
      <point x="137" y="391"/>
      <point x="146" y="456" type="curve" smooth="yes"/>
      <point x="175" y="640" type="line" smooth="yes"/>
      <point x="189" y="731"/>
      <point x="266" y="779"/>
      <point x="350" y="780" type="curve"/>
      <point x="444" y="780" type="line"/>
      <point x="426" y="660" type="line"/>
      <point x="393" y="660" type="line" smooth="yes"/>
      <point x="362" y="660"/>
      <point x="343" y="638"/>
    </contour>
  </outline>
</glyph>
<glyph name="bar" format="1">
  <advance width="343"/>
  <unicode hex="007C"/>
  <outline>
    <contour>
      <point x="199.5" y="785" type="line"/>
      <point x="352" y="785" type="line"/>
      <point x="198" y="-215" type="line"/>
      <point x="45.5" y="-215" type="line"/>
    </contour>
  </outline>
</glyph>
<glyph name="braceright" format="2">
  <advance width="386"/>
  <unicode hex="007D"/>
  <outline>
    <contour>
      <point x="109" y="-29" type="curve" smooth="yes"/>
      <point x="127" y="90" type="line" smooth="yes"/>
      <point x="145" y="190"/>
      <point x="172" y="291"/>
      <point x="302" y="300" type="curve"/>
      <point x="300" y="280" type="line"/>
      <point x="173" y="292"/>
      <point x="175" y="399"/>
      <point x="190" y="490" type="curve" smooth="yes"/>
      <point x="209" y="610" type="line" smooth="yes"/>
      <point x="213" y="637"/>
      <point x="200" y="659"/>
      <point x="171" y="659" type="curve" smooth="yes"/>
      <point x="136" y="659" type="line"/>
      <point x="153" y="780" type="line"/>
      <point x="240" y="780" type="line" smooth="yes"/>
      <point x="321" y="779"/>
      <point x="390" y="730"/>
      <point x="378" y="640" type="curve" smooth="yes"/>
      <point x="349" y="455" type="line" smooth="yes"/>
      <point x="342" y="392"/>
      <point x="349" y="365"/>
      <point x="392" y="345" type="curve"/>
      <point x="376" y="235" type="line"/>
      <point x="330" y="218"/>
      <point x="309" y="189"/>
      <point x="300" y="124" type="curve" smooth="yes"/>
      <point x="272" y="-60" type="line" smooth="yes"/>
      <point x="258" y="-152"/>
      <point x="181" y="-199"/>
      <point x="97" y="-200" type="curve"/>
      <point x="2" y="-200" type="line"/>
      <point x="20" y="-80" type="line"/>
      <point x="53" y="-80" type="line" smooth="yes"/>
      <point x="84" y="-80"/>
      <point x="104" y="-58"/>
    </contour>
  </outline>
</glyph>
<glyph name="asciitilde" format="2">
  <advance width="558"/>
  <unicode hex="007E"/>
  <outline>
    <contour>
      <point x="162" y="163" type="curve"/>
      <point x="44" y="168" type="line"/>
      <point x="43" y="176"/>
      <point x="43" y="185"/>
      <point x="44" y="193" type="curve" smooth="yes"/>
      <point x="48" y="227"/>
      <point x="62" y="260"/>
      <point x="87" y="288" type="curve" smooth="yes"/>
      <point x="118" y="323"/>
      <point x="161" y="346"/>
      <point x="220" y="346" type="curve" smooth="yes"/>
      <point x="263" y="346"/>
      <point x="296" y="326"/>
      <point x="335" y="297" type="curve" smooth="yes"/>
      <point x="357" y="281"/>
      <point x="377" y="263"/>
      <point x="397" y="263" type="curve" smooth="yes"/>
      <point x="418" y="263"/>
      <point x="433" y="283"/>
      <point x="437" y="302" type="curve" smooth="yes"/>
      <point x="439" y="313"/>
      <point x="438" y="326"/>
      <point x="436" y="336" type="curve"/>
      <point x="555" y="331" type="line"/>
      <point x="556" y="322"/>
      <point x="557" y="312"/>
      <point x="556" y="302" type="curve" smooth="yes"/>
      <point x="552" y="268"/>
      <point x="539" y="234"/>
      <point x="515" y="206" type="curve" smooth="yes"/>
      <point x="486" y="173"/>
      <point x="449" y="153"/>
      <point x="399" y="153" type="curve" smooth="yes"/>
      <point x="359" y="153"/>
      <point x="325" y="175"/>
      <point x="285" y="203" type="curve" smooth="yes"/>
      <point x="260" y="221"/>
      <point x="237" y="238"/>
      <point x="212" y="237" type="curve" smooth="yes"/>
      <point x="184" y="236"/>
      <point x="166" y="214"/>
      <point x="161" y="192" type="curve" smooth="yes"/>
      <point x="159" y="181"/>
      <point x="161" y="172"/>
    </contour>
  </outline>
</glyph>
<glyph name="exclamdown" format="1">
  <advance width="333"/>
  <unicode hex="00A1"/>
  <outline>
    <contour>
      <point x="193.5" y="-229.5" type="line"/>
      <point x="7" y="-229.5" type="line"/>
      <point x="119.5" y="239" type="line"/>
      <point x="242" y="239" type="line"/>
    </contour>
    <contour>
      <point x="303" y="407.5" type="curve" smooth="yes"/>
      <point x="297" y="359"/>
      <point x="249.5" y="322"/>
      <point x="198" y="322.5" type="curve" smooth="yes"/>
      <point x="146.5" y="323"/>
      <point x="110.5" y="360"/>
      <point x="117" y="409.5" type="curve" smooth="yes"/>
      <point x="123" y="458"/>
      <point x="170" y="495.5"/>
      <point x="221.5" y="495" type="curve" smooth="yes"/>
      <point x="273" y="494.5"/>
      <point x="309.5" y="457"/>
    </contour>
  </outline>
</glyph>
<glyph name="cent" format="1">
  <advance width="562"/>
  <unicode hex="00A2"/>
  <outline>
    <contour>
      <point x="207" y="38" type="line"/>
      <point x="318" y="38" type="line"/>
      <point x="300" y="-112" type="line"/>
      <point x="171" y="-112" type="line"/>
    </contour>
    <contour>
      <point x="212.5" y="229.5" type="curve" smooth="yes"/>
      <point x="202" y="163"/>
      <point x="242" y="113.5"/>
      <point x="307" y="112" type="curve" smooth="yes"/>
      <point x="367" y="110.5"/>
      <point x="417" y="144.5"/>
      <point x="452.5" y="180" type="curve"/>
      <point x="430" y="29.5" type="line"/>
      <point x="391" y="4.5"/>
      <point x="340.5" y="-10"/>
      <point x="282.5" y="-10" type="curve" smooth="yes"/>
      <point x="137.5" y="-9.5"/>
      <point x="38.5" y="91.5"/>
      <point x="58.5" y="230.5" type="curve" smooth="yes"/>
      <point x="79.5" y="372.5"/>
      <point x="206" y="469.5"/>
      <point x="355" y="470" type="curve" smooth="yes"/>
      <point x="411.5" y="470"/>
      <point x="459" y="455.5"/>
      <point x="495.5" y="430" type="curve"/>
      <point x="473" y="279" type="line"/>
      <point x="449" y="319"/>
      <point x="410.5" y="348.5"/>
      <point x="355" y="348.5" type="curve" smooth="yes"/>
      <point x="288.5" y="348.5"/>
      <point x="224" y="296.5"/>
    </contour>
    <contour>
      <point x="290" y="578" type="line"/>
      <point x="419.5" y="578" type="line"/>
      <point x="384" y="428" type="line"/>
      <point x="273.5" y="428" type="line"/>
    </contour>
  </outline>
</glyph>
<glyph name="sterling" format="1">
  <advance width="593"/>
  <unicode hex="00A3"/>
  <outline>
    <contour>
      <point x="100" y="370" type="line"/>
      <point x="471" y="370" type="line"/>
      <point x="452.5" y="269.5" type="line"/>
      <point x="82" y="269.5" type="line"/>
    </contour>
    <contour>
      <point x="475.5" y="467" type="line"/>
      <point x="477" y="517.5"/>
      <point x="467" y="573.5"/>
      <point x="399" y="574.5" type="curve" smooth="yes"/>
      <point x="350" y="575.5"/>
      <point x="305" y="544.5"/>
      <point x="295.5" y="494" type="curve" smooth="yes"/>
      <point x="280" y="415"/>
      <point x="357.5" y="364"/>
      <point x="346.5" y="270" type="curve" smooth="yes"/>
      <point x="330" y="160"/>
      <point x="206.5" y="77.5"/>
      <point x="117" y="51.5" type="curve"/>
      <point x="180.5" y="140" type="line"/>
      <point x="522.5" y="140.5" type="line"/>
      <point x="497.5" y="0" type="line"/>
      <point x="23" y="0" type="line"/>
      <point x="114.5" y="93.5"/>
      <point x="186.5" y="177"/>
      <point x="204.5" y="287" type="curve" smooth="yes"/>
      <point x="217" y="375"/>
      <point x="130.5" y="422"/>
      <point x="142" y="521.5" type="curve" smooth="yes"/>
      <point x="158.5" y="640"/>
      <point x="283" y="710"/>
      <point x="406.5" y="709.5" type="curve" smooth="yes"/>
      <point x="540" y="709"/>
      <point x="620.5" y="616.5"/>
      <point x="618" y="517" type="curve"/>
    </contour>
  </outline>
</glyph>
<glyph name="currency" format="1">
  <advance width="559"/>
  <unicode hex="00A4"/>
  <outline>
    <contour>
      <point x="80" y="505" type="line"/>
      <point x="150.5" y="565.5" type="line"/>
      <point x="232" y="461" type="line"/>
      <point x="165.5" y="404" type="line"/>
    </contour>
    <contour>
      <point x="65.5" y="34.5" type="line"/>
      <point x="11.5" y="101.5" type="line"/>
      <point x="124" y="196.5" type="line"/>
      <point x="176.5" y="132.5" type="line"/>
    </contour>
    <contour>
      <point x="486" y="404" type="line"/>
      <point x="432" y="469.5" type="line"/>
      <point x="544.5" y="565.5" type="line"/>
      <point x="597" y="500.5" type="line"/>
    </contour>
    <contour>
      <point x="375" y="136.5" type="line"/>
      <point x="444.5" y="196.5" type="line"/>
      <point x="526.5" y="93" type="line"/>
      <point x="460" y="35" type="line"/>
    </contour>
    <contour>
      <point x="72" y="300.5" type="curve" smooth="yes"/>
      <point x="91" y="433"/>
      <point x="205" y="540"/>
      <point x="340.5" y="540" type="curve" smooth="yes"/>
      <point x="474.5" y="540"/>
      <point x="554.5" y="427.5"/>
      <point x="536.5" y="299.5" type="curve" smooth="yes"/>
      <point x="517.5" y="167"/>
      <point x="404" y="60"/>
      <point x="268.5" y="60" type="curve" smooth="yes"/>
      <point x="134.5" y="60"/>
      <point x="54" y="172.5"/>
    </contour>
    <contour>
      <point x="207.5" y="299.5" type="curve" smooth="yes"/>
      <point x="199" y="246.5"/>
      <point x="227" y="200"/>
      <point x="283.5" y="199" type="curve" smooth="yes"/>
      <point x="341.5" y="198"/>
      <point x="392" y="244.5"/>
      <point x="401" y="300.5" type="curve" smooth="yes"/>
      <point x="409.5" y="353.5"/>
      <point x="381.5" y="400"/>
      <point x="325" y="401" type="curve" smooth="yes"/>
      <point x="267" y="402"/>
      <point x="216.5" y="355.5"/>
    </contour>
  </outline>
</glyph>
<glyph name="yen" format="1">
  <advance width="650"/>
  <unicode hex="00A5"/>
  <outline>
    <contour>
      <point x="60.5" y="264.5" type="line"/>
      <point x="78" y="365" type="line"/>
      <point x="641" y="365" type="line"/>
      <point x="623" y="264.5" type="line"/>
    </contour>
    <contour>
      <point x="35" y="114.5" type="line"/>
      <point x="52.5" y="215" type="line"/>
      <point x="615.5" y="215" type="line"/>
      <point x="597.5" y="114.5" type="line"/>
    </contour>
    <contour>
      <point x="546.5" y="699.5" type="line"/>
      <point x="743" y="699.5" type="line"/>
      <point x="432.5" y="282.5" type="line"/>
      <point x="384.5" y="0" type="line"/>
      <point x="211.5" y="0" type="line"/>
      <point x="263" y="288.5" type="line"/>
      <point x="96" y="700" type="line"/>
      <point x="284.5" y="700" type="line"/>
      <point x="370.5" y="441" type="line"/>
    </contour>
  </outline>
</glyph>
<glyph name="brokenbar" format="2">
  <advance width="342"/>
  <unicode hex="00A6"/>
  <outline>
    <contour>
      <point x="188" y="695" type="line"/>
      <point x="339" y="695" type="line"/>
      <point x="294" y="430" type="line"/>
      <point x="141" y="430" type="line"/>
    </contour>
    <contour>
      <point x="267" y="270" type="line"/>
      <point x="221" y="5" type="line"/>
      <point x="69" y="5" type="line"/>
      <point x="115" y="270" type="line"/>
    </contour>
  </outline>
</glyph>
<glyph name="section" format="1">
  <advance width="562"/>
  <unicode hex="00A7"/>
  <outline>
    <contour>
      <point x="460.5" y="549" type="line"/>
      <point x="436" y="577"/>
      <point x="399" y="598.5"/>
      <point x="365.5" y="598" type="curve" smooth="yes"/>
      <point x="339.5" y="598"/>
      <point x="310.5" y="586.5"/>
      <point x="308" y="567" type="curve" smooth="yes"/>
      <point x="304.5" y="539.5"/>
      <point x="357.5" y="531"/>
      <point x="393.5" y="519.5" type="curve" smooth="yes"/>
      <point x="462.5" y="498.5"/>
      <point x="516" y="448.5"/>
      <point x="506.5" y="377.5" type="curve" smooth="yes"/>
      <point x="491" y="271"/>
      <point x="377" y="232.5"/>
      <point x="273" y="229.5" type="curve"/>
      <point x="280" y="270.5" type="line"/>
      <point x="317.5" y="280"/>
      <point x="359.5" y="303"/>
      <point x="366" y="344" type="curve" smooth="yes"/>
      <point x="375.5" y="398"/>
      <point x="310" y="415.5"/>
      <point x="265.5" y="435" type="curve" smooth="yes"/>
      <point x="208" y="461"/>
      <point x="157.5" y="504"/>
      <point x="167" y="578.5" type="curve" smooth="yes"/>
      <point x="180.5" y="672.5"/>
      <point x="279" y="723"/>
      <point x="369" y="723.5" type="curve" smooth="yes"/>
      <point x="443" y="724"/>
      <point x="510.5" y="694"/>
      <point x="544" y="647" type="curve"/>
    </contour>
    <contour>
      <point x="123.5" y="172.5" type="line"/>
      <point x="162" y="129.5"/>
      <point x="212" y="102"/>
      <point x="258" y="103" type="curve" smooth="yes"/>
      <point x="288" y="103"/>
      <point x="316" y="116"/>
      <point x="320" y="138.5" type="curve" smooth="yes"/>
      <point x="325" y="170.5"/>
      <point x="276" y="181.5"/>
      <point x="238" y="194" type="curve" smooth="yes"/>
      <point x="169.5" y="215.5"/>
      <point x="101" y="259"/>
      <point x="111" y="334.5" type="curve" smooth="yes"/>
      <point x="126" y="437"/>
      <point x="244.5" y="476"/>
      <point x="350.5" y="479" type="curve"/>
      <point x="344.5" y="441.5" type="line"/>
      <point x="306" y="427.5"/>
      <point x="263.5" y="409.5"/>
      <point x="256.5" y="368.5" type="curve" smooth="yes"/>
      <point x="246.5" y="310"/>
      <point x="322" y="298.5"/>
      <point x="366" y="279" type="curve" smooth="yes"/>
      <point x="427.5" y="251"/>
      <point x="478" y="202"/>
      <point x="468.5" y="129.5" type="curve" smooth="yes"/>
      <point x="454.5" y="28"/>
      <point x="349" y="-22"/>
      <point x="252" y="-22.5" type="curve" smooth="yes"/>
      <point x="154.5" y="-23"/>
      <point x="84.5" y="17.5"/>
      <point x="39" y="76.5" type="curve"/>
    </contour>
  </outline>
</glyph>
<glyph name="dieresis" format="1">
  <advance width="496"/>
  <unicode hex="00A8"/>
  <outline>
    <contour>
      <point x="359.5" y="632.5" type="curve" smooth="yes"/>
      <point x="364.5" y="678"/>
      <point x="410.5" y="714"/>
      <point x="457" y="713.5" type="curve" smooth="yes"/>
      <point x="504" y="713"/>
      <point x="539.5" y="677"/>
      <point x="534" y="630.5" type="curve" smooth="yes"/>
      <point x="529" y="585"/>
      <point x="483.5" y="549"/>
      <point x="437" y="549.5" type="curve" smooth="yes"/>
      <point x="390" y="550"/>
      <point x="354" y="586"/>
    </contour>
    <contour>
      <point x="122.5" y="632.5" type="curve" smooth="yes"/>
      <point x="127.5" y="678"/>
      <point x="173.5" y="714"/>
      <point x="220" y="713.5" type="curve" smooth="yes"/>
      <point x="267" y="713"/>
      <point x="302.5" y="677"/>
      <point x="297" y="630.5" type="curve" smooth="yes"/>
      <point x="292" y="585"/>
      <point x="246.5" y="549"/>
      <point x="200" y="549.5" type="curve" smooth="yes"/>
      <point x="153" y="550"/>
      <point x="117" y="586"/>
    </contour>
  </outline>
</glyph>
<glyph name="copyright" format="1">
  <advance width="776"/>
  <unicode hex="00A9"/>
  <outline>
    <contour>
      <point x="318.5" y="349.5" type="curve" smooth="yes"/>
      <point x="308.5" y="281"/>
      <point x="349.5" y="230"/>
      <point x="418" y="228.5" type="curve" smooth="yes"/>
      <point x="473" y="227.5"/>
      <point x="516" y="254.5"/>
      <point x="550" y="282.5" type="curve"/>
      <point x="535.5" y="172.5" type="line"/>
      <point x="498" y="148"/>
      <point x="459" y="130.5"/>
      <point x="404.5" y="130.5" type="curve" smooth="yes"/>
      <point x="275" y="130.5"/>
      <point x="192" y="227"/>
      <point x="208" y="350.5" type="curve" smooth="yes"/>
      <point x="224.5" y="477"/>
      <point x="332" y="569.5"/>
      <point x="463.5" y="570" type="curve" smooth="yes"/>
      <point x="517" y="570"/>
      <point x="553.5" y="553.5"/>
      <point x="588.5" y="527" type="curve"/>
      <point x="573.5" y="417" type="line"/>
      <point x="547.5" y="448.5"/>
      <point x="514" y="472"/>
      <point x="462.5" y="472" type="curve" smooth="yes"/>
      <point x="392" y="472"/>
      <point x="330" y="421.5"/>
    </contour>
    <contour>
      <point x="130" y="350" type="curve" smooth="yes"/>
      <point x="106" y="189"/>
      <point x="201.5" y="41.5"/>
      <point x="373" y="40.5" type="curve" smooth="yes"/>
      <point x="547.5" y="39.5"/>
      <point x="693.5" y="181"/>
      <point x="720" y="350" type="curve" smooth="yes"/>
      <point x="744" y="511"/>
      <point x="648.5" y="658.5"/>
      <point x="477" y="659.5" type="curve" smooth="yes"/>
      <point x="302.5" y="660.5"/>
      <point x="156.5" y="519"/>
    </contour>
    <contour>
      <point x="74" y="350" type="curve" smooth="yes"/>
      <point x="101" y="550"/>
      <point x="271.5" y="710.5"/>
      <point x="475.5" y="710" type="curve" smooth="yes"/>
      <point x="676.5" y="709.5"/>
      <point x="800.5" y="543"/>
      <point x="775.5" y="350" type="curve" smooth="yes"/>
      <point x="748.5" y="150"/>
      <point x="578" y="-10.5"/>
      <point x="374" y="-10" type="curve" smooth="yes"/>
      <point x="173" y="-9.5"/>
      <point x="49" y="157"/>
    </contour>
  </outline>
</glyph>
<glyph name="ordfeminine" format="1">
  <advance width="262"/>
  <unicode hex="00AA"/>
  <outline>
    <contour>
      <point x="155" y="529" type="curve" smooth="yes"/>
      <point x="153.5" y="515"/>
      <point x="164" y="506"/>
      <point x="180.5" y="505.5" type="curve" smooth="yes"/>
      <point x="209" y="505"/>
      <point x="231.5" y="524"/>
      <point x="240" y="552.5" type="curve"/>
      <point x="243" y="523.5" type="line"/>
      <point x="231.5" y="483.5"/>
      <point x="199" y="455"/>
      <point x="151.5" y="455.5" type="curve" smooth="yes"/>
      <point x="107" y="456"/>
      <point x="73" y="484.5"/>
      <point x="79" y="529" type="curve" smooth="yes"/>
      <point x="86" y="575"/>
      <point x="136" y="602"/>
      <point x="186" y="602.5" type="curve" smooth="yes"/>
      <point x="218" y="603"/>
      <point x="244.5" y="590.5"/>
      <point x="261" y="578" type="curve"/>
      <point x="255" y="543" type="line"/>
      <point x="239.5" y="554"/>
      <point x="224" y="563"/>
      <point x="201.5" y="562.5" type="curve" smooth="yes"/>
      <point x="181" y="562.5"/>
      <point x="157.5" y="547.5"/>
    </contour>
    <contour>
      <point x="143" y="624" type="curve"/>
      <point x="125.5" y="680" type="line"/>
      <point x="155" y="692"/>
      <point x="190.5" y="705"/>
      <point x="229.5" y="705" type="curve" smooth="yes"/>
      <point x="283.5" y="705"/>
      <point x="328.5" y="680.5"/>
      <point x="324" y="630" type="curve"/>
      <point x="296" y="460" type="line"/>
      <point x="222.5" y="460.5" type="line"/>
      <point x="250.5" y="610.5" type="line"/>
      <point x="249" y="629"/>
      <point x="241.5" y="641.5"/>
      <point x="219" y="643.5" type="curve" smooth="yes"/>
      <point x="190" y="646"/>
      <point x="160" y="632"/>
    </contour>
  </outline>
</glyph>
<glyph name="guillemotleft" format="1">
  <advance width="525"/>
  <unicode hex="00AB"/>
  <outline>
    <contour>
      <point x="359.5" y="256" type="line"/>
      <point x="472" y="62" type="line"/>
      <point x="372" y="0" type="line"/>
      <point x="241.5" y="259.5" type="line"/>
      <point x="453.5" y="508.5" type="line"/>
      <point x="538.5" y="441.5" type="line"/>
    </contour>
    <contour>
      <point x="161" y="256" type="line"/>
      <point x="274" y="62" type="line"/>
      <point x="173.5" y="0" type="line"/>
      <point x="43" y="259.5" type="line"/>
      <point x="255" y="508.5" type="line"/>
      <point x="340" y="441.5" type="line"/>
    </contour>
  </outline>
</glyph>
<glyph name="logicalnot" format="1">
  <advance width="631"/>
  <unicode hex="00AC"/>
  <outline>
    <contour>
      <point x="82.5" y="271.5" type="line"/>
      <point x="104" y="403.5" type="line"/>
      <point x="612.5" y="403.5" type="line"/>
      <point x="572.5" y="175" type="line"/>
      <point x="466.5" y="175" type="line"/>
      <point x="485.5" y="271.5" type="line"/>
    </contour>
  </outline>
</glyph>
<glyph name="uni00AD" format="2">
  <advance width="203"/>
  <unicode hex="00AD"/>
  <outline>
    <contour>
      <point x="12" y="200" type="line"/>
      <point x="24" y="275" type="line"/>
      <point x="221" y="275" type="line"/>
      <point x="209" y="200" type="line"/>
    </contour>
  </outline>
</glyph>
<glyph name="registered" format="2">
  <advance width="776"/>
  <unicode hex="00AE"/>
  <outline>
    <contour>
      <point x="399" y="327" type="line"/>
      <point x="489" y="327" type="line"/>
      <point x="577" y="150" type="line"/>
      <point x="462" y="150" type="line"/>
    </contour>
    <contour>
      <point x="316" y="570" type="line"/>
      <point x="417" y="570" type="line"/>
      <point x="352" y="150" type="line"/>
      <point x="251" y="150" type="line"/>
    </contour>
    <contour>
      <point x="365" y="484" type="line"/>
      <point x="378" y="570" type="line"/>
      <point x="462" y="570" type="line"/>
      <point x="554" y="568"/>
      <point x="615" y="518"/>
      <point x="605" y="438" type="curve" smooth="yes"/>
      <point x="594" y="355"/>
      <point x="523" y="304"/>
      <point x="428" y="302" type="curve"/>
      <point x="335" y="302" type="line"/>
      <point x="348" y="380" type="line"/>
      <point x="426" y="380" type="line"/>
      <point x="462" y="382"/>
      <point x="495" y="399"/>
      <point x="500" y="433" type="curve" smooth="yes"/>
      <point x="504" y="465"/>
      <point x="481" y="482"/>
      <point x="448" y="484" type="curve"/>
    </contour>
    <contour>
      <point x="130" y="350" type="curve" smooth="yes"/>
      <point x="106" y="189"/>
      <point x="201" y="41"/>
      <point x="373" y="40" type="curve" smooth="yes"/>
      <point x="548" y="39"/>
      <point x="694" y="181"/>
      <point x="720" y="350" type="curve" smooth="yes"/>
      <point x="744" y="511"/>
      <point x="648" y="659"/>
      <point x="477" y="660" type="curve" smooth="yes"/>
      <point x="303" y="661"/>
      <point x="156" y="519"/>
    </contour>
    <contour>
      <point x="74" y="350" type="curve" smooth="yes"/>
      <point x="101" y="550"/>
      <point x="271" y="710"/>
      <point x="475" y="710" type="curve" smooth="yes"/>
      <point x="676" y="710"/>
      <point x="800" y="543"/>
      <point x="775" y="350" type="curve" smooth="yes"/>
      <point x="748" y="150"/>
      <point x="578" y="-10"/>
      <point x="374" y="-10" type="curve" smooth="yes"/>
      <point x="173" y="-10"/>
      <point x="49" y="157"/>
    </contour>
  </outline>
</glyph>
<glyph name="macron" format="1">
  <advance width="515"/>
  <unicode hex="00AF"/>
  <outline>
    <contour>
      <point x="147" y="571.5" type="line"/>
      <point x="168" y="703.5" type="line"/>
      <point x="532" y="703.5" type="line"/>
      <point x="511" y="571.5" type="line"/>
    </contour>
  </outline>
</glyph>
<glyph name="degree" format="2">
  <advance width="286"/>
  <unicode hex="00B0"/>
  <outline>
    <contour>
      <point x="90" y="597" type="curve" smooth="yes"/>
      <point x="100" y="666"/>
      <point x="162" y="720"/>
      <point x="235" y="720" type="curve" smooth="yes"/>
      <point x="308" y="720"/>
      <point x="356" y="666"/>
      <point x="347" y="596" type="curve" smooth="yes"/>
      <point x="337" y="527"/>
      <point x="274" y="474"/>
      <point x="201" y="474" type="curve" smooth="yes"/>
      <point x="128" y="474"/>
      <point x="81" y="528"/>
    </contour>
    <contour>
      <point x="164" y="596" type="curve" smooth="yes"/>
      <point x="160" y="567"/>
      <point x="176" y="540"/>
      <point x="206" y="539" type="curve" smooth="yes"/>
      <point x="237" y="538"/>
      <point x="268" y="566"/>
      <point x="273" y="597" type="curve" smooth="yes"/>
      <point x="277" y="626"/>
      <point x="261" y="654"/>
      <point x="231" y="655" type="curve" smooth="yes"/>
      <point x="200" y="656"/>
      <point x="169" y="627"/>
    </contour>
  </outline>
</glyph>
<glyph name="plusminus" format="1">
  <advance width="614"/>
  <unicode hex="00B1"/>
  <outline>
    <contour>
      <point x="46" y="6" type="line"/>
      <point x="66.5" y="137" type="line"/>
      <point x="558.5" y="137" type="line"/>
      <point x="537.5" y="6" type="line"/>
    </contour>
    <contour>
      <point x="96" y="332.5" type="line"/>
      <point x="117.5" y="469" type="line"/>
      <point x="609.5" y="469" type="line"/>
      <point x="587.5" y="332.5" type="line"/>
    </contour>
    <contour>
      <point x="309.5" y="620" type="line"/>
      <point x="463" y="620" type="line"/>
      <point x="394.5" y="181.5" type="line"/>
      <point x="242" y="182" type="line"/>
    </contour>
  </outline>
</glyph>
<glyph name="uni00B2" format="1">
  <advance width="397"/>
  <unicode hex="00B2"/>
  <outline>
    <contour>
      <point x="41.5" y="282.5" type="line"/>
      <point x="256" y="475.5" type="line" smooth="yes"/>
      <point x="288.5" y="505.5"/>
      <point x="323" y="533"/>
      <point x="328.5" y="570" type="curve" smooth="yes"/>
      <point x="331.5" y="595"/>
      <point x="319.5" y="621"/>
      <point x="287" y="622.5" type="curve" smooth="yes"/>
      <point x="246.5" y="625"/>
      <point x="219.5" y="584.5"/>
      <point x="210.5" y="547" type="curve"/>
      <point x="109.5" y="547.5" type="line"/>
      <point x="127.5" y="635"/>
      <point x="192.5" y="711"/>
      <point x="297" y="710.5" type="curve" smooth="yes"/>
      <point x="387" y="710.5"/>
      <point x="444" y="646"/>
      <point x="432.5" y="574.5" type="curve" smooth="yes"/>
      <point x="425.5" y="528.5"/>
      <point x="395" y="492"/>
      <point x="358" y="462.5" type="curve" smooth="yes"/>
      <point x="249.5" y="376.5" type="line"/>
      <point x="409.5" y="375.5" type="line"/>
      <point x="393" y="282" type="line"/>
    </contour>
  </outline>
</glyph>
<glyph name="uni00B3" format="1">
  <advance width="354"/>
  <unicode hex="00B3"/>
  <outline>
    <contour>
      <point x="205" y="483.5" type="curve"/>
      <point x="212.5" y="528.5" type="line"/>
      <point x="253" y="532"/>
      <point x="293" y="551"/>
      <point x="299" y="586" type="curve" smooth="yes"/>
      <point x="302" y="608"/>
      <point x="288.5" y="625.5"/>
      <point x="262.5" y="626" type="curve" smooth="yes"/>
      <point x="231" y="626.5"/>
      <point x="209" y="603"/>
      <point x="200.5" y="577.5" type="curve"/>
      <point x="105.5" y="578.5" type="line"/>
      <point x="122.5" y="651"/>
      <point x="182" y="707"/>
      <point x="268.5" y="707.5" type="curve" smooth="yes"/>
      <point x="349" y="707.5"/>
      <point x="409" y="660.5"/>
      <point x="398" y="591" type="curve" smooth="yes"/>
      <point x="385" y="511.5"/>
      <point x="293" y="486"/>
    </contour>
    <contour>
      <point x="198" y="270" type="curve" smooth="yes"/>
      <point x="103" y="270.5"/>
      <point x="54.5" y="335.5"/>
      <point x="59" y="413.5" type="curve"/>
      <point x="157" y="413.5" type="line"/>
      <point x="157" y="378"/>
      <point x="172" y="354.5"/>
      <point x="207.5" y="353" type="curve" smooth="yes"/>
      <point x="239.5" y="351.5"/>
      <point x="273" y="373"/>
      <point x="277.5" y="405.5" type="curve" smooth="yes"/>
      <point x="285" y="445.5"/>
      <point x="246" y="461"/>
      <point x="200" y="464" type="curve"/>
      <point x="208.5" y="514.5" type="line"/>
      <point x="300" y="512"/>
      <point x="390" y="484"/>
      <point x="376.5" y="394" type="curve" smooth="yes"/>
      <point x="365.5" y="317.5"/>
      <point x="288" y="269.5"/>
    </contour>
  </outline>
</glyph>
<glyph name="acute" format="1">
  <advance width="363"/>
  <unicode hex="00B4"/>
  <outline>
    <contour>
      <point x="394.5" y="651" type="line"/>
      <point x="199" y="504.5" type="line"/>
      <point x="116.5" y="549" type="line"/>
      <point x="284.5" y="706" type="line"/>
    </contour>
  </outline>
</glyph>
<glyph name="paragraph" format="2">
  <advance width="651"/>
  <unicode hex="00B6"/>
  <outline>
    <contour>
      <point x="354" y="606" type="line"/>
      <point x="371" y="700" type="line"/>
      <point x="598" y="700" type="line"/>
      <point x="582" y="606" type="line"/>
    </contour>
    <contour>
      <point x="557" y="700" type="line"/>
      <point x="689" y="700" type="line"/>
      <point x="532" y="-220" type="line"/>
      <point x="400" y="-220" type="line"/>
    </contour>
    <contour>
      <point x="371" y="700" type="line"/>
      <point x="503" y="700" type="line"/>
      <point x="345" y="-220" type="line"/>
      <point x="214" y="-220" type="line"/>
    </contour>
    <contour>
      <point x="301" y="270" type="line"/>
      <point x="179" y="276"/>
      <point x="94" y="356"/>
      <point x="113" y="486" type="curve" smooth="yes"/>
      <point x="134" y="621"/>
      <point x="243" y="700"/>
      <point x="371" y="700" type="curve"/>
    </contour>
  </outline>
</glyph>
<glyph name="periodcentered" format="2">
  <advance width="312"/>
  <unicode hex="00B7"/>
  <outline>
    <contour>
      <point x="82" y="270" type="curve" smooth="yes"/>
      <point x="88" y="319"/>
      <point x="136" y="362"/>
      <point x="188" y="361" type="curve" smooth="yes"/>
      <point x="241" y="360"/>
      <point x="274" y="317"/>
      <point x="268" y="268" type="curve" smooth="yes"/>
      <point x="262" y="219"/>
      <point x="215" y="175"/>
      <point x="163" y="176" type="curve" smooth="yes"/>
      <point x="110" y="177"/>
      <point x="76" y="221"/>
    </contour>
  </outline>
</glyph>
<glyph name="cedilla" format="2">
  <advance width="381"/>
  <unicode hex="00B8"/>
  <outline>
    <contour>
      <point x="159" y="71" type="line"/>
      <point x="273" y="67" type="line"/>
      <point x="164" y="-55" type="line"/>
      <point x="174" y="-52"/>
      <point x="186" y="-51"/>
      <point x="198" y="-51" type="curve" smooth="yes"/>
      <point x="244" y="-54"/>
      <point x="282" y="-93"/>
      <point x="275" y="-150" type="curve" smooth="yes"/>
      <point x="266" y="-219"/>
      <point x="195" y="-256"/>
      <point x="132" y="-257" type="curve" smooth="yes"/>
      <point x="79" y="-258"/>
      <point x="38" y="-245"/>
      <point x="-6" y="-217" type="curve"/>
      <point x="46" y="-150" type="line"/>
      <point x="69" y="-166"/>
      <point x="97" y="-175"/>
      <point x="119" y="-175" type="curve" smooth="yes"/>
      <point x="146" y="-175"/>
      <point x="178" y="-162"/>
      <point x="180" y="-139" type="curve" smooth="yes"/>
      <point x="182" y="-115"/>
      <point x="153" y="-107"/>
      <point x="130" y="-107" type="curve" smooth="yes"/>
      <point x="111" y="-106"/>
      <point x="77" y="-113"/>
      <point x="45" y="-123" type="curve"/>
    </contour>
  </outline>
</glyph>
<glyph name="uni00B9" format="1">
  <advance width="468"/>
  <unicode hex="00B9"/>
  <outline>
    <contour>
      <point x="197.5" y="571" type="line"/>
      <point x="213.5" y="661.5" type="line"/>
      <point x="421" y="703" type="line"/>
      <point x="347" y="274" type="line"/>
      <point x="248.5" y="274" type="line"/>
      <point x="303.5" y="596" type="line"/>
    </contour>
  </outline>
</glyph>
<glyph name="ordmasculine" format="2">
  <advance width="269"/>
  <unicode hex="00BA"/>
  <outline>
    <contour>
      <point x="89" y="581" type="curve" smooth="yes"/>
      <point x="99" y="650"/>
      <point x="162" y="700"/>
      <point x="234" y="700" type="curve" smooth="yes"/>
      <point x="306" y="700"/>
      <point x="356" y="649"/>
      <point x="347" y="579" type="curve" smooth="yes"/>
      <point x="337" y="510"/>
      <point x="273" y="460"/>
      <point x="201" y="460" type="curve" smooth="yes"/>
      <point x="129" y="460"/>
      <point x="80" y="511"/>
    </contour>
    <contour>
      <point x="166" y="580" type="curve" smooth="yes"/>
      <point x="162" y="552"/>
      <point x="177" y="525"/>
      <point x="205" y="524" type="curve" smooth="yes"/>
      <point x="234" y="523"/>
      <point x="265" y="550"/>
      <point x="269" y="580" type="curve" smooth="yes"/>
      <point x="273" y="608"/>
      <point x="258" y="636"/>
      <point x="230" y="637" type="curve" smooth="yes"/>
      <point x="201" y="638"/>
      <point x="170" y="610"/>
    </contour>
  </outline>
</glyph>
<glyph name="guillemotright" format="1">
  <advance width="525"/>
  <unicode hex="00BB"/>
  <outline>
    <contour>
      <point x="199" y="254" type="line"/>
      <point x="86" y="448" type="line"/>
      <point x="186.5" y="510" type="line"/>
      <point x="317" y="250.5" type="line"/>
      <point x="105" y="1.5" type="line"/>
      <point x="20" y="68.5" type="line"/>
    </contour>
    <contour>
      <point x="398" y="254" type="line"/>
      <point x="284.5" y="448" type="line"/>
      <point x="385" y="510" type="line"/>
      <point x="515.5" y="250.5" type="line"/>
      <point x="303.5" y="1.5" type="line"/>
      <point x="218.5" y="68.5" type="line"/>
    </contour>
  </outline>
</glyph>
<glyph name="onequarter" format="1">
  <advance width="798"/>
  <unicode hex="00BC"/>
  <outline>
    <contour>
      <point x="700.5" y="699.5" type="line"/>
      <point x="801.5" y="699" type="line"/>
      <point x="177.5" y="0" type="line"/>
      <point x="76.5" y="0" type="line"/>
    </contour>
    <contour>
      <point x="92" y="571" type="line"/>
      <point x="107.5" y="661.5" type="line"/>
      <point x="315" y="703" type="line"/>
      <point x="240.5" y="274" type="line"/>
      <point x="142.5" y="274" type="line"/>
      <point x="197" y="596" type="line"/>
    </contour>
    <contour>
      <point x="376.5" y="75.5" type="line"/>
      <point x="470.5" y="147.5" type="line"/>
      <point x="650" y="148" type="line"/>
      <point x="662.5" y="161.5" type="line"/>
      <point x="772" y="161.5" type="line"/>
      <point x="756.5" y="75" type="line"/>
    </contour>
    <contour>
      <point x="489" y="105" type="line"/>
      <point x="373.5" y="72" type="line"/>
      <point x="673.5" y="419.5" type="line"/>
      <point x="752" y="420" type="line"/>
      <point x="680" y="0" type="line"/>
      <point x="574" y="0" type="line"/>
      <point x="590.5" y="96.5" type="line"/>
      <point x="602.5" y="102.5" type="line"/>
      <point x="630" y="265" type="line"/>
    </contour>
  </outline>
</glyph>
<glyph name="onehalf" format="2">
  <advance width="868"/>
  <unicode hex="00BD"/>
  <outline>
    <contour>
      <point x="701" y="699" type="line"/>
      <point x="802" y="699" type="line"/>
      <point x="177" y="0" type="line"/>
      <point x="77" y="0" type="line"/>
    </contour>
    <contour>
      <point x="92" y="571" type="line"/>
      <point x="108" y="661" type="line"/>
      <point x="315" y="703" type="line"/>
      <point x="241" y="274" type="line"/>
      <point x="142" y="274" type="line"/>
      <point x="197" y="596" type="line"/>
    </contour>
    <contour>
      <point x="461" y="3" type="line"/>
      <point x="675" y="196" type="line" smooth="yes"/>
      <point x="707" y="226"/>
      <point x="742" y="253"/>
      <point x="748" y="290" type="curve" smooth="yes"/>
      <point x="751" y="315"/>
      <point x="738" y="341"/>
      <point x="706" y="343" type="curve" smooth="yes"/>
      <point x="665" y="346"/>
      <point x="638" y="305"/>
      <point x="629" y="267" type="curve"/>
      <point x="528" y="268" type="line"/>
      <point x="546" y="355"/>
      <point x="611" y="432"/>
      <point x="716" y="431" type="curve" smooth="yes"/>
      <point x="806" y="431"/>
      <point x="863" y="367"/>
      <point x="852" y="295" type="curve" smooth="yes"/>
      <point x="845" y="249"/>
      <point x="814" y="212"/>
      <point x="777" y="183" type="curve" smooth="yes"/>
      <point x="668" y="96" type="line"/>
      <point x="828" y="95" type="line"/>
      <point x="811" y="2" type="line"/>
    </contour>
  </outline>
</glyph>
<glyph name="threequarters" format="2">
  <advance width="852"/>
  <unicode hex="00BE"/>
  <outline>
    <contour>
      <point x="762" y="699" type="line"/>
      <point x="864" y="699" type="line"/>
      <point x="239" y="0" type="line"/>
      <point x="139" y="0" type="line"/>
    </contour>
    <contour>
      <point x="214" y="484" type="curve"/>
      <point x="220" y="529" type="line"/>
      <point x="260" y="533"/>
      <point x="300" y="552"/>
      <point x="306" y="586" type="curve" smooth="yes"/>
      <point x="309" y="608"/>
      <point x="296" y="625"/>
      <point x="270" y="626" type="curve" smooth="yes"/>
      <point x="239" y="626"/>
      <point x="216" y="602"/>
      <point x="208" y="577" type="curve"/>
      <point x="113" y="578" type="line"/>
      <point x="130" y="651"/>
      <point x="191" y="708"/>
      <point x="277" y="708" type="curve" smooth="yes"/>
      <point x="358" y="708"/>
      <point x="417" y="659"/>
      <point x="406" y="590" type="curve" smooth="yes"/>
      <point x="393" y="511"/>
      <point x="302" y="486"/>
    </contour>
    <contour>
      <point x="206" y="271" type="curve" smooth="yes"/>
      <point x="111" y="271"/>
      <point x="63" y="336"/>
      <point x="67" y="414" type="curve"/>
      <point x="165" y="414" type="line"/>
      <point x="165" y="379"/>
      <point x="179" y="354"/>
      <point x="215" y="353" type="curve" smooth="yes"/>
      <point x="247" y="352"/>
      <point x="281" y="374"/>
      <point x="285" y="406" type="curve" smooth="yes"/>
      <point x="293" y="446"/>
      <point x="254" y="461"/>
      <point x="208" y="464" type="curve"/>
      <point x="217" y="514" type="line"/>
      <point x="309" y="512"/>
      <point x="397" y="484"/>
      <point x="384" y="394" type="curve" smooth="yes"/>
      <point x="373" y="318"/>
      <point x="296" y="271"/>
    </contour>
    <contour>
      <point x="432" y="75" type="line"/>
      <point x="526" y="148" type="line"/>
      <point x="705" y="148" type="line"/>
      <point x="718" y="162" type="line"/>
      <point x="828" y="161" type="line"/>
      <point x="813" y="75" type="line"/>
    </contour>
    <contour>
      <point x="545" y="105" type="line"/>
      <point x="429" y="72" type="line"/>
      <point x="729" y="419" type="line"/>
      <point x="808" y="420" type="line"/>
      <point x="735" y="0" type="line"/>
      <point x="630" y="0" type="line"/>
      <point x="646" y="96" type="line"/>
      <point x="658" y="102" type="line"/>
      <point x="686" y="265" type="line"/>
    </contour>
  </outline>
</glyph>
<glyph name="questiondown" format="2">
  <advance width="608"/>
  <unicode hex="00BF"/>
  <outline>
    <contour>
      <point x="208" y="200" type="curve" smooth="yes"/>
      <point x="199" y="145"/>
      <point x="236" y="111"/>
      <point x="298" y="110" type="curve" smooth="yes"/>
      <point x="362" y="109"/>
      <point x="423" y="147"/>
      <point x="466" y="196" type="curve"/>
      <point x="556" y="109" type="line"/>
      <point x="479" y="33"/>
      <point x="390" y="-20"/>
      <point x="275" y="-19" type="curve" smooth="yes"/>
      <point x="148" y="-18"/>
      <point x="39" y="68"/>
      <point x="58" y="200" type="curve" smooth="yes"/>
      <point x="77" y="322"/>
      <point x="189" y="392"/>
      <point x="300" y="415" type="curve"/>
      <point x="319" y="498" type="line"/>
      <point x="443" y="498" type="line"/>
      <point x="434" y="320" type="line"/>
      <point x="403" y="320" type="line"/>
      <point x="305" y="318"/>
      <point x="222" y="265"/>
    </contour>
    <contour>
      <point x="499" y="640" type="curve" smooth="yes"/>
      <point x="493" y="596"/>
      <point x="445" y="557"/>
      <point x="395" y="558" type="curve" smooth="yes"/>
      <point x="345" y="559"/>
      <point x="307" y="597"/>
      <point x="313" y="642" type="curve" smooth="yes"/>
      <point x="319" y="686"/>
      <point x="367" y="725"/>
      <point x="417" y="724" type="curve" smooth="yes"/>
      <point x="467" y="723"/>
      <point x="505" y="685"/>
    </contour>
  </outline>
</glyph>
<glyph name="Aacute" format="1">
  <advance width="713"/>
  <unicode hex="00C1"/>
  <outline>
    <contour>
      <point x="173.5" y="134.5" type="line"/>
      <point x="207" y="263" type="line"/>
      <point x="547.5" y="263.5" type="line"/>
      <point x="535" y="134" type="line"/>
    </contour>
    <contour>
      <point x="408" y="440.5" type="line"/>
      <point x="274" y="216.5" type="line"/>
      <point x="276" y="177.5" type="line"/>
      <point x="162" y="0" type="line"/>
      <point x="-32" y="0" type="line"/>
      <point x="456" y="746.5" type="line"/>
      <point x="688" y="0" type="line"/>
      <point x="501.5" y="0" type="line"/>
      <point x="448" y="171.5" type="line"/>
      <point x="462.5" y="215" type="line"/>
    </contour>
    <contour>
      <point x="648" y="951" type="line"/>
      <point x="450.5" y="805" type="line"/>
      <point x="369" y="850" type="line"/>
      <point x="539.5" y="1006.5" type="line"/>
    </contour>
  </outline>
</glyph>
<glyph name="Acircumflex" format="1">
  <advance width="713"/>
  <unicode hex="00C2"/>
  <outline>
    <contour>
      <point x="173.5" y="134.5" type="line"/>
      <point x="207" y="263" type="line"/>
      <point x="547.5" y="263.5" type="line"/>
      <point x="535" y="134" type="line"/>
    </contour>
    <contour>
      <point x="408" y="440.5" type="line"/>
      <point x="274" y="216.5" type="line"/>
      <point x="276" y="177.5" type="line"/>
      <point x="162" y="0" type="line"/>
      <point x="-32" y="0" type="line"/>
      <point x="456" y="746.5" type="line"/>
      <point x="688" y="0" type="line"/>
      <point x="501.5" y="0" type="line"/>
      <point x="448" y="171.5" type="line"/>
      <point x="462.5" y="215" type="line"/>
    </contour>
    <contour>
      <point x="483" y="874.5" type="line"/>
      <point x="380.5" y="790" type="line"/>
      <point x="285" y="864.5" type="line"/>
      <point x="497.5" y="1001.5" type="line"/>
      <point x="670" y="859" type="line"/>
      <point x="556.5" y="789.5" type="line"/>
    </contour>
  </outline>
</glyph>
<glyph name="Atilde" format="1">
  <advance width="713"/>
  <unicode hex="00C3"/>
  <outline>
    <contour>
      <point x="173.5" y="134.5" type="line"/>
      <point x="207" y="263" type="line"/>
      <point x="547.5" y="263.5" type="line"/>
      <point x="535" y="134" type="line"/>
    </contour>
    <contour>
      <point x="408" y="440.5" type="line"/>
      <point x="274" y="216.5" type="line"/>
      <point x="276" y="177.5" type="line"/>
      <point x="162" y="0" type="line"/>
      <point x="-32" y="0" type="line"/>
      <point x="456" y="746.5" type="line"/>
      <point x="688" y="0" type="line"/>
      <point x="501.5" y="0" type="line"/>
      <point x="448" y="171.5" type="line"/>
      <point x="462.5" y="215" type="line"/>
    </contour>
    <contour>
      <point x="285.5" y="865" type="line"/>
      <point x="306.5" y="911.5"/>
      <point x="353" y="959.5"/>
      <point x="415" y="958" type="curve" smooth="yes"/>
      <point x="469.5" y="957"/>
      <point x="489" y="905.5"/>
      <point x="538.5" y="907" type="curve" smooth="yes"/>
      <point x="567.5" y="908"/>
      <point x="590.5" y="933"/>
      <point x="612" y="959" type="curve"/>
      <point x="673" y="883" type="line"/>
      <point x="647" y="845"/>
      <point x="591.5" y="796.5"/>
      <point x="531.5" y="799" type="curve" smooth="yes"/>
      <point x="482.5" y="801"/>
      <point x="451.5" y="854"/>
      <point x="405" y="851" type="curve" smooth="yes"/>
      <point x="371.5" y="849"/>
      <point x="357.5" y="819"/>
      <point x="349" y="801" type="curve"/>
    </contour>
  </outline>
</glyph>
<glyph name="Adieresis" format="2">
  <advance width="713"/>
  <unicode hex="00C4"/>
  <outline>
    <contour>
      <point x="174" y="134" type="line"/>
      <point x="207" y="263" type="line"/>
      <point x="547" y="263" type="line"/>
      <point x="535" y="134" type="line"/>
    </contour>
    <contour>
      <point x="408" y="441" type="line"/>
      <point x="274" y="216" type="line"/>
      <point x="276" y="178" type="line"/>
      <point x="162" y="0" type="line"/>
      <point x="-32" y="0" type="line"/>
      <point x="456" y="747" type="line"/>
      <point x="688" y="0" type="line"/>
      <point x="502" y="0" type="line"/>
      <point x="448" y="172" type="line"/>
      <point x="463" y="215" type="line"/>
    </contour>
    <contour>
      <point x="522" y="831" type="curve" smooth="yes"/>
      <point x="528" y="876"/>
      <point x="574" y="912"/>
      <point x="620" y="911" type="curve" smooth="yes"/>
      <point x="667" y="910"/>
      <point x="702" y="875"/>
      <point x="696" y="829" type="curve" smooth="yes"/>
      <point x="690" y="784"/>
      <point x="644" y="747"/>
      <point x="598" y="748" type="curve" smooth="yes"/>
      <point x="551" y="749"/>
      <point x="516" y="785"/>
    </contour>
    <contour>
      <point x="243" y="837" type="curve" smooth="yes"/>
      <point x="249" y="882"/>
      <point x="294" y="919"/>
      <point x="340" y="918" type="curve" smooth="yes"/>
      <point x="387" y="917"/>
      <point x="422" y="881"/>
      <point x="416" y="835" type="curve" smooth="yes"/>
      <point x="410" y="790"/>
      <point x="365" y="754"/>
      <point x="319" y="755" type="curve" smooth="yes"/>
      <point x="272" y="756"/>
      <point x="237" y="791"/>
    </contour>
  </outline>
</glyph>
<glyph name="Aring" format="2">
  <advance width="713"/>
  <unicode hex="00C5"/>
  <outline>
    <contour>
      <point x="174" y="134" type="line"/>
      <point x="207" y="263" type="line"/>
      <point x="547" y="263" type="line"/>
      <point x="535" y="134" type="line"/>
    </contour>
    <contour>
      <point x="408" y="441" type="line"/>
      <point x="274" y="216" type="line"/>
      <point x="276" y="178" type="line"/>
      <point x="162" y="0" type="line"/>
      <point x="-32" y="0" type="line"/>
      <point x="456" y="747" type="line"/>
      <point x="688" y="0" type="line"/>
      <point x="502" y="0" type="line"/>
      <point x="448" y="172" type="line"/>
      <point x="463" y="215" type="line"/>
    </contour>
    <contour>
      <point x="344" y="802" type="curve" smooth="yes"/>
      <point x="353" y="867"/>
      <point x="415" y="916"/>
      <point x="482" y="916" type="curve" smooth="yes"/>
      <point x="549" y="916"/>
      <point x="598" y="866"/>
      <point x="589" y="800" type="curve" smooth="yes"/>
      <point x="580" y="734"/>
      <point x="517" y="685"/>
      <point x="450" y="685" type="curve" smooth="yes"/>
      <point x="383" y="685"/>
      <point x="335" y="737"/>
    </contour>
    <contour>
      <point x="421" y="800" type="curve" smooth="yes"/>
      <point x="418" y="777"/>
      <point x="432" y="755"/>
      <point x="455" y="754" type="curve" smooth="yes"/>
      <point x="479" y="752"/>
      <point x="509" y="777"/>
      <point x="512" y="802" type="curve" smooth="yes"/>
      <point x="515" y="825"/>
      <point x="500" y="847"/>
      <point x="477" y="848" type="curve" smooth="yes"/>
      <point x="453" y="850"/>
      <point x="424" y="825"/>
    </contour>
  </outline>
</glyph>
<glyph name="AE" format="1">
  <advance width="1054"/>
  <unicode hex="00C6"/>
  <outline>
    <contour>
      <point x="259.5" y="150" type="line"/>
      <point x="293.5" y="306" type="line"/>
      <point x="587" y="306" type="line"/>
      <point x="559.5" y="149.5" type="line"/>
    </contour>
    <contour>
      <point x="521" y="700" type="line"/>
      <point x="672" y="658" type="line"/>
      <point x="199.5" y="0" type="line"/>
      <point x="-16.5" y="0" type="line"/>
    </contour>
    <contour>
      <point x="585" y="0" type="line"/>
      <point x="609.5" y="140.5" type="line"/>
      <point x="986" y="140.5" type="line"/>
      <point x="961" y="0" type="line"/>
    </contour>
    <contour>
      <point x="693.5" y="559.5" type="line"/>
      <point x="521" y="700" type="line"/>
      <point x="1081" y="700" type="line"/>
      <point x="1056.5" y="559.5" type="line"/>
    </contour>
    <contour>
      <point x="636" y="299" type="line"/>
      <point x="660" y="436" type="line"/>
      <point x="1017" y="436" type="line"/>
      <point x="992.5" y="299" type="line"/>
    </contour>
    <contour>
      <point x="625" y="700" type="line"/>
      <point x="806" y="700" type="line"/>
      <point x="686" y="0" type="line"/>
      <point x="505.5" y="0" type="line"/>
    </contour>
  </outline>
</glyph>
<glyph name="Ccedilla" format="2">
  <advance width="679"/>
  <unicode hex="00C7"/>
  <outline>
    <contour>
      <point x="247" y="350" type="curve" smooth="yes"/>
      <point x="229" y="237"/>
      <point x="295" y="148"/>
      <point x="409" y="146" type="curve" smooth="yes"/>
      <point x="502" y="145"/>
      <point x="572" y="190"/>
      <point x="630" y="238" type="curve"/>
      <point x="603" y="54" type="line"/>
      <point x="541" y="12"/>
      <point x="473" y="-16"/>
      <point x="382" y="-16" type="curve" smooth="yes"/>
      <point x="166" y="-15"/>
      <point x="34" y="146"/>
      <point x="64" y="350" type="curve" smooth="yes"/>
      <point x="96" y="561"/>
      <point x="275" y="716"/>
      <point x="496" y="716" type="curve" smooth="yes"/>
      <point x="584" y="716"/>
      <point x="645" y="690"/>
      <point x="701" y="645" type="curve"/>
      <point x="673" y="461" type="line"/>
      <point x="631" y="515"/>
      <point x="573" y="554"/>
      <point x="488" y="554" type="curve" smooth="yes"/>
      <point x="372" y="554"/>
      <point x="268" y="469"/>
    </contour>
    <contour>
      <point x="325" y="47" type="line"/>
      <point x="438" y="44" type="line"/>
      <point x="329" y="-78" type="line"/>
      <point x="339" y="-75"/>
      <point x="351" y="-74"/>
      <point x="363" y="-74" type="curve" smooth="yes"/>
      <point x="409" y="-77"/>
      <point x="447" y="-116"/>
      <point x="440" y="-173" type="curve" smooth="yes"/>
      <point x="430" y="-242"/>
      <point x="360" y="-280"/>
      <point x="297" y="-281" type="curve" smooth="yes"/>
      <point x="244" y="-282"/>
      <point x="202" y="-268"/>
      <point x="158" y="-240" type="curve"/>
      <point x="212" y="-174" type="line"/>
      <point x="235" y="-190"/>
      <point x="262" y="-198"/>
      <point x="284" y="-198" type="curve" smooth="yes"/>
      <point x="311" y="-198"/>
      <point x="344" y="-185"/>
      <point x="346" y="-162" type="curve" smooth="yes"/>
      <point x="348" y="-138"/>
      <point x="319" y="-131"/>
      <point x="296" y="-131" type="curve" smooth="yes"/>
      <point x="277" y="-130"/>
      <point x="242" y="-135"/>
      <point x="210" y="-145" type="curve"/>
    </contour>
  </outline>
</glyph>
<glyph name="Egrave" format="2">
  <advance width="584"/>
  <unicode hex="00C8"/>
  <outline>
    <contour>
      <point x="153" y="0" type="line"/>
      <point x="177" y="140" type="line"/>
      <point x="523" y="140" type="line"/>
      <point x="498" y="0" type="line"/>
    </contour>
    <contour>
      <point x="249" y="560" type="line"/>
      <point x="273" y="700" type="line"/>
      <point x="619" y="700" type="line"/>
      <point x="594" y="560" type="line"/>
    </contour>
    <contour>
      <point x="204" y="299" type="line"/>
      <point x="228" y="436" type="line"/>
      <point x="554" y="436" type="line"/>
      <point x="530" y="299" type="line"/>
    </contour>
    <contour>
      <point x="162" y="700" type="line"/>
      <point x="325" y="700" type="line"/>
      <point x="204" y="0" type="line"/>
      <point x="44" y="0" type="line"/>
    </contour>
    <contour>
      <point x="273" y="935" type="line"/>
      <point x="391" y="986" type="line"/>
      <point x="512" y="823" type="line"/>
      <point x="425" y="783" type="line"/>
    </contour>
  </outline>
</glyph>
<glyph name="Eacute" format="1">
  <advance width="585"/>
  <unicode hex="00C9"/>
  <outline>
    <contour>
      <point x="153.5" y="0" type="line"/>
      <point x="178" y="140.5" type="line"/>
      <point x="523.5" y="140.5" type="line"/>
      <point x="498.5" y="0" type="line"/>
    </contour>
    <contour>
      <point x="249" y="560" type="line"/>
      <point x="273.5" y="700" type="line"/>
      <point x="618.5" y="700" type="line"/>
      <point x="594" y="559.5" type="line"/>
    </contour>
    <contour>
      <point x="204" y="299" type="line"/>
      <point x="228.5" y="436" type="line"/>
      <point x="554" y="436" type="line"/>
      <point x="530" y="299" type="line"/>
    </contour>
    <contour>
      <point x="162.5" y="700" type="line"/>
      <point x="325" y="700" type="line"/>
      <point x="204.5" y="0" type="line"/>
      <point x="43.5" y="0" type="line"/>
    </contour>
    <contour>
      <point x="585.5" y="929.5" type="line"/>
      <point x="388" y="783" type="line"/>
      <point x="306" y="828.5" type="line"/>
      <point x="476.5" y="984.5" type="line"/>
    </contour>
  </outline>
</glyph>
<glyph name="Ecircumflex" format="1">
  <advance width="585"/>
  <unicode hex="00CA"/>
  <outline>
    <contour>
      <point x="153.5" y="0" type="line"/>
      <point x="178" y="140.5" type="line"/>
      <point x="523.5" y="140.5" type="line"/>
      <point x="498.5" y="0" type="line"/>
    </contour>
    <contour>
      <point x="249" y="560" type="line"/>
      <point x="273.5" y="700" type="line"/>
      <point x="618.5" y="700" type="line"/>
      <point x="594" y="559.5" type="line"/>
    </contour>
    <contour>
      <point x="204" y="299" type="line"/>
      <point x="228.5" y="436" type="line"/>
      <point x="554" y="436" type="line"/>
      <point x="530" y="299" type="line"/>
    </contour>
    <contour>
      <point x="162.5" y="700" type="line"/>
      <point x="325" y="700" type="line"/>
      <point x="204.5" y="0" type="line"/>
      <point x="43.5" y="0" type="line"/>
    </contour>
    <contour>
      <point x="429.5" y="883.5" type="line"/>
      <point x="305.5" y="789.5" type="line"/>
      <point x="259.5" y="831.5" type="line"/>
      <point x="436" y="969.5" type="line"/>
      <point x="572" y="827.5" type="line"/>
      <point x="519.5" y="789.5" type="line"/>
    </contour>
  </outline>
</glyph>
<glyph name="Edieresis" format="1">
  <advance width="585"/>
  <unicode hex="00CB"/>
  <outline>
    <contour>
      <point x="153.5" y="0" type="line"/>
      <point x="178" y="140.5" type="line"/>
      <point x="523.5" y="140.5" type="line"/>
      <point x="498.5" y="0" type="line"/>
    </contour>
    <contour>
      <point x="249" y="560" type="line"/>
      <point x="273.5" y="700" type="line"/>
      <point x="618.5" y="700" type="line"/>
      <point x="594" y="559.5" type="line"/>
    </contour>
    <contour>
      <point x="204" y="299" type="line"/>
      <point x="228.5" y="436" type="line"/>
      <point x="554" y="436" type="line"/>
      <point x="530" y="299" type="line"/>
    </contour>
    <contour>
      <point x="162.5" y="700" type="line"/>
      <point x="325" y="700" type="line"/>
      <point x="204.5" y="0" type="line"/>
      <point x="43.5" y="0" type="line"/>
    </contour>
    <contour>
      <point x="454" y="867" type="curve" smooth="yes"/>
      <point x="460" y="912.5"/>
      <point x="505.5" y="948"/>
      <point x="552" y="947.5" type="curve" smooth="yes"/>
      <point x="599" y="947"/>
      <point x="634" y="911"/>
      <point x="628" y="864.5" type="curve" smooth="yes"/>
      <point x="622" y="819"/>
      <point x="576.5" y="783.5"/>
      <point x="530" y="784" type="curve" smooth="yes"/>
      <point x="483" y="784.5"/>
      <point x="448" y="820.5"/>
    </contour>
    <contour>
      <point x="217" y="867" type="curve" smooth="yes"/>
      <point x="223" y="912.5"/>
      <point x="268.5" y="948"/>
      <point x="315" y="947.5" type="curve" smooth="yes"/>
      <point x="362" y="947"/>
      <point x="397" y="911"/>
      <point x="391" y="864.5" type="curve" smooth="yes"/>
      <point x="385" y="819"/>
      <point x="339.5" y="783.5"/>
      <point x="293" y="784" type="curve" smooth="yes"/>
      <point x="246" y="784.5"/>
      <point x="211" y="820.5"/>
    </contour>
  </outline>
</glyph>
<glyph name="Igrave" format="1">
  <advance width="311"/>
  <unicode hex="00CC"/>
  <outline>
    <contour>
      <point x="162.5" y="700" type="line"/>
      <point x="334.5" y="700" type="line"/>
      <point x="214" y="0" type="line"/>
      <point x="43.5" y="0" type="line"/>
    </contour>
    <contour>
      <point x="125" y="935" type="line"/>
      <point x="244" y="986" type="line"/>
      <point x="364.5" y="823" type="line"/>
      <point x="277" y="782.5" type="line"/>
    </contour>
  </outline>
</glyph>
<glyph name="Iacute" format="1">
  <advance width="311"/>
  <unicode hex="00CD"/>
  <outline>
    <contour>
      <point x="162.5" y="700" type="line"/>
      <point x="334.5" y="700" type="line"/>
      <point x="214" y="0" type="line"/>
      <point x="43.5" y="0" type="line"/>
    </contour>
    <contour>
      <point x="437" y="929.5" type="line"/>
      <point x="240" y="783" type="line"/>
      <point x="158.5" y="828.5" type="line"/>
      <point x="328.5" y="984.5" type="line"/>
    </contour>
  </outline>
</glyph>
<glyph name="Icircumflex" format="1">
  <advance width="311"/>
  <unicode hex="00CE"/>
  <outline>
    <contour>
      <point x="162.5" y="700" type="line"/>
      <point x="334.5" y="700" type="line"/>
      <point x="214" y="0" type="line"/>
      <point x="43.5" y="0" type="line"/>
    </contour>
    <contour>
      <point x="277" y="883.5" type="line"/>
      <point x="153" y="789.5" type="line"/>
      <point x="107.5" y="831.5" type="line"/>
      <point x="284" y="969.5" type="line"/>
      <point x="420" y="827.5" type="line"/>
      <point x="367.5" y="789.5" type="line"/>
    </contour>
  </outline>
</glyph>
<glyph name="Idieresis" format="1">
  <advance width="311"/>
  <unicode hex="00CF"/>
  <outline>
    <contour>
      <point x="162.5" y="700" type="line"/>
      <point x="334.5" y="700" type="line"/>
      <point x="214" y="0" type="line"/>
      <point x="43.5" y="0" type="line"/>
    </contour>
    <contour>
      <point x="307.5" y="860" type="curve" smooth="yes"/>
      <point x="313.5" y="905"/>
      <point x="359" y="941"/>
      <point x="405.5" y="940.5" type="curve" smooth="yes"/>
      <point x="452.5" y="940"/>
      <point x="487.5" y="904"/>
      <point x="481.5" y="857.5" type="curve" smooth="yes"/>
      <point x="475.5" y="812"/>
      <point x="430" y="776.5"/>
      <point x="383.5" y="777" type="curve" smooth="yes"/>
      <point x="336" y="777.5"/>
      <point x="301.5" y="814"/>
    </contour>
    <contour>
      <point x="70.5" y="860" type="curve" smooth="yes"/>
      <point x="76.5" y="905"/>
      <point x="121" y="941"/>
      <point x="167.5" y="940.5" type="curve" smooth="yes"/>
      <point x="214.5" y="940"/>
      <point x="250" y="904"/>
      <point x="244" y="857.5" type="curve" smooth="yes"/>
      <point x="238" y="812"/>
      <point x="192.5" y="776.5"/>
      <point x="146" y="777" type="curve" smooth="yes"/>
      <point x="98.5" y="777.5"/>
      <point x="64.5" y="814"/>
    </contour>
  </outline>
</glyph>
<glyph name="Ntilde" format="2">
  <advance width="769"/>
  <unicode hex="00D1"/>
  <outline>
    <contour>
      <point x="631" y="700" type="line"/>
      <point x="793" y="700" type="line"/>
      <point x="668" y="-34" type="line"/>
      <point x="273" y="393" type="line"/>
      <point x="205" y="0" type="line"/>
      <point x="43" y="0" type="line"/>
      <point x="168" y="734" type="line"/>
      <point x="563" y="307" type="line"/>
    </contour>
    <contour>
      <point x="280" y="836" type="line"/>
      <point x="301" y="882"/>
      <point x="347" y="930"/>
      <point x="409" y="928" type="curve" smooth="yes"/>
      <point x="464" y="927"/>
      <point x="482" y="875"/>
      <point x="532" y="877" type="curve" smooth="yes"/>
      <point x="561" y="878"/>
      <point x="584" y="903"/>
      <point x="606" y="929" type="curve"/>
      <point x="667" y="853" type="line"/>
      <point x="641" y="815"/>
      <point x="585" y="768"/>
      <point x="525" y="770" type="curve" smooth="yes"/>
      <point x="476" y="772"/>
      <point x="445" y="825"/>
      <point x="399" y="822" type="curve" smooth="yes"/>
      <point x="366" y="820"/>
      <point x="351" y="790"/>
      <point x="343" y="772" type="curve"/>
    </contour>
  </outline>
</glyph>
<glyph name="Ograve" format="1">
  <advance width="797"/>
  <unicode hex="00D2"/>
  <outline>
    <contour>
      <point x="241.5" y="350" type="curve" smooth="yes"/>
      <point x="224.5" y="242.5"/>
      <point x="272.5" y="142.5"/>
      <point x="390.5" y="141" type="curve" smooth="yes"/>
      <point x="509.5" y="139.5"/>
      <point x="601.5" y="235.5"/>
      <point x="621.5" y="350" type="curve" smooth="yes"/>
      <point x="638.5" y="458"/>
      <point x="591" y="558"/>
      <point x="471.5" y="559" type="curve" smooth="yes"/>
      <point x="352.5" y="560"/>
      <point x="261" y="464.5"/>
    </contour>
    <contour>
      <point x="64" y="350" type="curve" smooth="yes"/>
      <point x="95.5" y="557.5"/>
      <point x="275.5" y="716"/>
      <point x="488.5" y="716" type="curve" smooth="yes"/>
      <point x="699.5" y="716"/>
      <point x="828" y="550.5"/>
      <point x="799" y="350" type="curve" smooth="yes"/>
      <point x="767.5" y="142"/>
      <point x="590.5" y="-23"/>
      <point x="372.5" y="-22.5" type="curve" smooth="yes"/>
      <point x="158" y="-22"/>
      <point x="35" y="149.5"/>
    </contour>
    <contour>
      <point x="387.5" y="935" type="line"/>
      <point x="505.5" y="986" type="line"/>
      <point x="626.5" y="823" type="line"/>
      <point x="539.5" y="782.5" type="line"/>
    </contour>
  </outline>
</glyph>
<glyph name="Ocircumflex" format="2">
  <advance width="796"/>
  <unicode hex="00D4"/>
  <outline>
    <contour>
      <point x="241" y="350" type="curve" smooth="yes"/>
      <point x="224" y="243"/>
      <point x="272" y="142"/>
      <point x="390" y="141" type="curve" smooth="yes"/>
      <point x="509" y="140"/>
      <point x="601" y="235"/>
      <point x="621" y="350" type="curve" smooth="yes"/>
      <point x="638" y="458"/>
      <point x="592" y="558"/>
      <point x="472" y="559" type="curve" smooth="yes"/>
      <point x="353" y="560"/>
      <point x="260" y="465"/>
    </contour>
    <contour>
      <point x="64" y="350" type="curve" smooth="yes"/>
      <point x="95" y="558"/>
      <point x="275" y="716"/>
      <point x="489" y="716" type="curve" smooth="yes"/>
      <point x="700" y="716"/>
      <point x="828" y="551"/>
      <point x="799" y="350" type="curve" smooth="yes"/>
      <point x="768" y="141"/>
      <point x="591" y="-23"/>
      <point x="373" y="-23" type="curve" smooth="yes"/>
      <point x="159" y="-23"/>
      <point x="35" y="149"/>
    </contour>
    <contour>
      <point x="536" y="883" type="line"/>
      <point x="412" y="789" type="line"/>
      <point x="366" y="832" type="line"/>
      <point x="543" y="970" type="line"/>
      <point x="678" y="827" type="line"/>
      <point x="626" y="789" type="line"/>
    </contour>
  </outline>
</glyph>
<glyph name="Otilde" format="2">
  <advance width="796"/>
  <unicode hex="00D5"/>
  <outline>
    <contour>
      <point x="241" y="350" type="curve" smooth="yes"/>
      <point x="224" y="243"/>
      <point x="272" y="142"/>
      <point x="390" y="141" type="curve" smooth="yes"/>
      <point x="509" y="140"/>
      <point x="601" y="235"/>
      <point x="621" y="350" type="curve" smooth="yes"/>
      <point x="638" y="458"/>
      <point x="592" y="558"/>
      <point x="472" y="559" type="curve" smooth="yes"/>
      <point x="353" y="560"/>
      <point x="260" y="465"/>
    </contour>
    <contour>
      <point x="64" y="350" type="curve" smooth="yes"/>
      <point x="95" y="558"/>
      <point x="275" y="716"/>
      <point x="489" y="716" type="curve" smooth="yes"/>
      <point x="700" y="716"/>
      <point x="828" y="551"/>
      <point x="799" y="350" type="curve" smooth="yes"/>
      <point x="768" y="141"/>
      <point x="591" y="-23"/>
      <point x="373" y="-23" type="curve" smooth="yes"/>
      <point x="159" y="-23"/>
      <point x="35" y="149"/>
    </contour>
    <contour>
      <point x="357" y="845" type="line"/>
      <point x="357" y="889"/>
      <point x="433" y="924"/>
      <point x="469" y="924" type="curve" smooth="yes"/>
      <point x="521" y="923"/>
      <point x="535" y="877"/>
      <point x="582" y="879" type="curve" smooth="yes"/>
      <point x="606" y="880"/>
      <point x="625" y="902"/>
      <point x="645" y="926" type="curve"/>
      <point x="686" y="880" type="line"/>
      <point x="663" y="846"/>
      <point x="624" y="808"/>
      <point x="575" y="810" type="curve" smooth="yes"/>
      <point x="529" y="812"/>
      <point x="507" y="857"/>
      <point x="465" y="856" type="curve" smooth="yes"/>
      <point x="429" y="855"/>
      <point x="414" y="824"/>
      <point x="406" y="806" type="curve"/>
    </contour>
  </outline>
</glyph>
<glyph name="Odieresis" format="2">
  <advance width="796"/>
  <unicode hex="00D6"/>
  <outline>
    <contour>
      <point x="241" y="350" type="curve" smooth="yes"/>
      <point x="224" y="243"/>
      <point x="272" y="142"/>
      <point x="390" y="141" type="curve" smooth="yes"/>
      <point x="509" y="140"/>
      <point x="601" y="235"/>
      <point x="621" y="350" type="curve" smooth="yes"/>
      <point x="638" y="458"/>
      <point x="592" y="558"/>
      <point x="472" y="559" type="curve" smooth="yes"/>
      <point x="353" y="560"/>
      <point x="260" y="465"/>
    </contour>
    <contour>
      <point x="64" y="350" type="curve" smooth="yes"/>
      <point x="95" y="558"/>
      <point x="274" y="716"/>
      <point x="488" y="716" type="curve" smooth="yes"/>
      <point x="699" y="716"/>
      <point x="828" y="551"/>
      <point x="799" y="350" type="curve" smooth="yes"/>
      <point x="768" y="141"/>
      <point x="591" y="-23"/>
      <point x="373" y="-23" type="curve" smooth="yes"/>
      <point x="159" y="-23"/>
      <point x="35" y="149"/>
    </contour>
    <contour>
      <point x="550" y="860" type="curve" smooth="yes"/>
      <point x="556" y="905"/>
      <point x="602" y="941"/>
      <point x="648" y="940" type="curve" smooth="yes"/>
      <point x="695" y="939"/>
      <point x="730" y="903"/>
      <point x="724" y="857" type="curve" smooth="yes"/>
      <point x="718" y="812"/>
      <point x="672" y="776"/>
      <point x="626" y="777" type="curve" smooth="yes"/>
      <point x="579" y="778"/>
      <point x="544" y="814"/>
    </contour>
    <contour>
      <point x="313" y="860" type="curve" smooth="yes"/>
      <point x="319" y="905"/>
      <point x="365" y="941"/>
      <point x="411" y="940" type="curve" smooth="yes"/>
      <point x="458" y="939"/>
      <point x="493" y="903"/>
      <point x="487" y="857" type="curve" smooth="yes"/>
      <point x="481" y="812"/>
      <point x="435" y="776"/>
      <point x="389" y="777" type="curve" smooth="yes"/>
      <point x="342" y="778"/>
      <point x="307" y="814"/>
    </contour>
  </outline>
</glyph>
<glyph name="multiply" format="1">
  <advance width="578"/>
  <unicode hex="00D7"/>
  <outline>
    <contour>
      <point x="112" y="2.5" type="line"/>
      <point x="34" y="101.5" type="line"/>
      <point x="219" y="258.5" type="line"/>
      <point x="87.5" y="416.5" type="line"/>
      <point x="192.5" y="508" type="line"/>
      <point x="318" y="346" type="line"/>
      <point x="499" y="507.5" type="line"/>
      <point x="577.5" y="408.5" type="line"/>
      <point x="392" y="251.5" type="line"/>
      <point x="523.5" y="93.5" type="line"/>
      <point x="418.5" y="2" type="line"/>
      <point x="293.5" y="164" type="line"/>
    </contour>
  </outline>
</glyph>
<glyph name="Oslash" format="2">
  <advance width="766"/>
  <unicode hex="00D8"/>
  <outline>
    <contour>
      <point x="241" y="350" type="curve" smooth="yes"/>
      <point x="224" y="241"/>
      <point x="272" y="142"/>
      <point x="390" y="141" type="curve" smooth="yes"/>
      <point x="509" y="140"/>
      <point x="601" y="234"/>
      <point x="621" y="350" type="curve" smooth="yes"/>
      <point x="638" y="459"/>
      <point x="590" y="558"/>
      <point x="472" y="559" type="curve" smooth="yes"/>
      <point x="353" y="560"/>
      <point x="261" y="466"/>
    </contour>
    <contour>
      <point x="64" y="350" type="curve" smooth="yes"/>
      <point x="95" y="558"/>
      <point x="274" y="716"/>
      <point x="489" y="716" type="curve" smooth="yes"/>
      <point x="700" y="716"/>
      <point x="828" y="551"/>
      <point x="799" y="350" type="curve" smooth="yes"/>
      <point x="768" y="142"/>
      <point x="589" y="-23"/>
      <point x="373" y="-23" type="curve" smooth="yes"/>
      <point x="161" y="-23"/>
      <point x="35" y="149"/>
    </contour>
    <contour>
      <point x="775" y="756" type="line"/>
      <point x="840" y="700" type="line"/>
      <point x="82" y="-56" type="line"/>
      <point x="19" y="-3" type="line"/>
    </contour>
  </outline>
</glyph>
<glyph name="Ugrave" format="1">
  <advance width="680"/>
  <unicode hex="00D9"/>
  <outline>
    <contour>
      <point x="158" y="700" type="line"/>
      <point x="326.5" y="700" type="line"/>
      <point x="247" y="242.5" type="line" smooth="yes"/>
      <point x="239" y="180.5"/>
      <point x="259" y="126"/>
      <point x="330.5" y="124.5" type="curve" smooth="yes"/>
      <point x="403" y="123"/>
      <point x="449" y="177.5"/>
      <point x="461.5" y="243" type="curve"/>
      <point x="540.5" y="700" type="line"/>
      <point x="709" y="700" type="line"/>
      <point x="629" y="230" type="line" smooth="yes"/>
      <point x="602" y="67.5"/>
      <point x="473.5" y="-29"/>
      <point x="313.5" y="-29" type="curve" smooth="yes"/>
      <point x="158" y="-29"/>
      <point x="57" y="69"/>
      <point x="78.5" y="230" type="curve"/>
    </contour>
    <contour>
      <point x="315" y="928.5" type="line"/>
      <point x="433.5" y="979.5" type="line"/>
      <point x="554" y="816.5" type="line"/>
      <point x="467.5" y="776" type="line"/>
    </contour>
  </outline>
</glyph>
<glyph name="Uacute" format="1">
  <advance width="680"/>
  <unicode hex="00DA"/>
  <outline>
    <contour>
      <point x="158" y="700" type="line"/>
      <point x="326.5" y="700" type="line"/>
      <point x="247" y="242.5" type="line" smooth="yes"/>
      <point x="239" y="180.5"/>
      <point x="259" y="126"/>
      <point x="330.5" y="124.5" type="curve" smooth="yes"/>
      <point x="403" y="123"/>
      <point x="449" y="177.5"/>
      <point x="461.5" y="243" type="curve"/>
      <point x="540.5" y="700" type="line"/>
      <point x="709" y="700" type="line"/>
      <point x="629" y="230" type="line" smooth="yes"/>
      <point x="602" y="67.5"/>
      <point x="473.5" y="-29"/>
      <point x="313.5" y="-29" type="curve" smooth="yes"/>
      <point x="158" y="-29"/>
      <point x="57" y="69"/>
      <point x="78.5" y="230" type="curve"/>
    </contour>
    <contour>
      <point x="629.5" y="923" type="line"/>
      <point x="432" y="777" type="line"/>
      <point x="350.5" y="822" type="line"/>
      <point x="521" y="978.5" type="line"/>
    </contour>
  </outline>
</glyph>
<glyph name="Ucircumflex" format="1">
  <advance width="680"/>
  <unicode hex="00DB"/>
  <outline>
    <contour>
      <point x="158" y="700" type="line"/>
      <point x="326.5" y="700" type="line"/>
      <point x="247" y="242.5" type="line" smooth="yes"/>
      <point x="239" y="180.5"/>
      <point x="259" y="126"/>
      <point x="330.5" y="124.5" type="curve" smooth="yes"/>
      <point x="403" y="123"/>
      <point x="449" y="177.5"/>
      <point x="461.5" y="243" type="curve"/>
      <point x="540.5" y="700" type="line"/>
      <point x="709" y="700" type="line"/>
      <point x="629" y="230" type="line" smooth="yes"/>
      <point x="602" y="67.5"/>
      <point x="473.5" y="-29"/>
      <point x="313.5" y="-29" type="curve" smooth="yes"/>
      <point x="158" y="-29"/>
      <point x="57" y="69"/>
      <point x="78.5" y="230" type="curve"/>
    </contour>
    <contour>
      <point x="464" y="860.5" type="line"/>
      <point x="361.5" y="776.5" type="line"/>
      <point x="266" y="851" type="line"/>
      <point x="478.5" y="988" type="line"/>
      <point x="650.5" y="845.5" type="line"/>
      <point x="538" y="776" type="line"/>
    </contour>
  </outline>
</glyph>
<glyph name="Udieresis" format="1">
  <advance width="680"/>
  <unicode hex="00DC"/>
  <outline>
    <contour>
      <point x="158" y="700" type="line"/>
      <point x="326.5" y="700" type="line"/>
      <point x="247" y="242.5" type="line" smooth="yes"/>
      <point x="239" y="180.5"/>
      <point x="259" y="126"/>
      <point x="330.5" y="124.5" type="curve" smooth="yes"/>
      <point x="403" y="123"/>
      <point x="449" y="177.5"/>
      <point x="461.5" y="243" type="curve"/>
      <point x="540.5" y="700" type="line"/>
      <point x="709" y="700" type="line"/>
      <point x="629" y="230" type="line" smooth="yes"/>
      <point x="602" y="67.5"/>
      <point x="473.5" y="-29"/>
      <point x="313.5" y="-29" type="curve" smooth="yes"/>
      <point x="158" y="-29"/>
      <point x="57" y="69"/>
      <point x="78.5" y="230" type="curve"/>
    </contour>
    <contour>
      <point x="510.5" y="860" type="curve" smooth="yes"/>
      <point x="516.5" y="905.5"/>
      <point x="561.5" y="941"/>
      <point x="608" y="940.5" type="curve" smooth="yes"/>
      <point x="655" y="940"/>
      <point x="690.5" y="904"/>
      <point x="684.5" y="857.5" type="curve" smooth="yes"/>
      <point x="678.5" y="812"/>
      <point x="633" y="776.5"/>
      <point x="586.5" y="777" type="curve" smooth="yes"/>
      <point x="539.5" y="777.5"/>
      <point x="504.5" y="813.5"/>
    </contour>
    <contour>
      <point x="236" y="860" type="curve" smooth="yes"/>
      <point x="242" y="905.5"/>
      <point x="287.5" y="941"/>
      <point x="334" y="940.5" type="curve" smooth="yes"/>
      <point x="381" y="940"/>
      <point x="416.5" y="904"/>
      <point x="410.5" y="857.5" type="curve" smooth="yes"/>
      <point x="404.5" y="812"/>
      <point x="358.5" y="776.5"/>
      <point x="312" y="777" type="curve" smooth="yes"/>
      <point x="265" y="777.5"/>
      <point x="230" y="813.5"/>
    </contour>
  </outline>
</glyph>
<glyph name="Yacute" format="2">
  <advance width="641"/>
  <unicode hex="00DD"/>
  <outline>
    <contour>
      <point x="610" y="924" type="line"/>
      <point x="413" y="777" type="line"/>
      <point x="331" y="822" type="line"/>
      <point x="501" y="978" type="line"/>
    </contour>
    <contour>
      <point x="542" y="700" type="line"/>
      <point x="739" y="700" type="line"/>
      <point x="428" y="281" type="line"/>
      <point x="380" y="0" type="line"/>
      <point x="209" y="0" type="line"/>
      <point x="259" y="288" type="line"/>
      <point x="92" y="700" type="line"/>
      <point x="281" y="700" type="line"/>
      <point x="367" y="441" type="line"/>
    </contour>
  </outline>
</glyph>
<glyph name="Thorn" format="2">
  <advance width="594"/>
  <unicode hex="00DE"/>
  <outline>
    <contour>
      <point x="168" y="700" type="line"/>
      <point x="316" y="700" type="line"/>
      <point x="196" y="0" type="line"/>
      <point x="49" y="0" type="line"/>
    </contour>
    <contour>
      <point x="216" y="445" type="line"/>
      <point x="240" y="579" type="line"/>
      <point x="368" y="579" type="line"/>
      <point x="525" y="577"/>
      <point x="623" y="495"/>
      <point x="601" y="353" type="curve" smooth="yes"/>
      <point x="579" y="209"/>
      <point x="464" y="129"/>
      <point x="302" y="127" type="curve"/>
      <point x="162" y="127" type="line"/>
      <point x="186" y="261" type="line"/>
      <point x="315" y="261" type="line"/>
      <point x="385" y="263"/>
      <point x="441" y="287"/>
      <point x="453" y="353" type="curve" smooth="yes"/>
      <point x="464" y="417"/>
      <point x="421" y="443"/>
      <point x="355" y="445" type="curve"/>
    </contour>
  </outline>
</glyph>
<glyph name="germandbls" format="1">
  <advance width="574"/>
  <unicode hex="00DF"/>
  <outline>
    <contour>
      <point x="266" y="128" type="line"/>
      <point x="343" y="134.5"/>
      <point x="405.5" y="180"/>
      <point x="419" y="255" type="curve" smooth="yes"/>
      <point x="433" y="324.5"/>
      <point x="382.5" y="363"/>
      <point x="295" y="367" type="curve"/>
      <point x="312" y="472" type="line"/>
      <point x="464.5" y="467"/>
      <point x="587.5" y="375.5"/>
      <point x="565" y="224.5" type="curve" smooth="yes"/>
      <point x="541" y="70"/>
      <point x="407.5" y="-5"/>
      <point x="245" y="-9.5" type="curve"/>
    </contour>
    <contour>
      <point x="302.5" y="413" type="curve"/>
      <point x="317" y="505" type="line"/>
      <point x="384.5" y="508.5"/>
      <point x="429" y="533.5"/>
      <point x="437" y="584" type="curve" smooth="yes"/>
      <point x="443" y="627.5"/>
      <point x="416" y="657.5"/>
      <point x="365.5" y="657.5" type="curve" smooth="yes"/>
      <point x="314.5" y="657.5"/>
      <point x="277.5" y="631"/>
      <point x="270" y="586.5" type="curve" smooth="yes"/>
      <point x="169" y="0" type="line"/>
      <point x="24" y="0" type="line"/>
      <point x="127" y="606.5" type="line" smooth="yes"/>
      <point x="147" y="724.5"/>
      <point x="257" y="796"/>
      <point x="381.5" y="796" type="curve" smooth="yes"/>
      <point x="514.5" y="796"/>
      <point x="602.5" y="719.5"/>
      <point x="585" y="605.5" type="curve" smooth="yes"/>
      <point x="565" y="477"/>
      <point x="451" y="416.5"/>
    </contour>
  </outline>
</glyph>
<glyph name="acircumflex" format="2">
  <advance width="598"/>
  <unicode hex="00E2"/>
  <outline>
    <contour>
      <point x="447" y="460" type="line"/>
      <point x="597" y="460" type="line"/>
      <point x="518" y="0" type="line"/>
      <point x="369" y="0" type="line"/>
    </contour>
    <contour>
      <point x="42" y="230" type="curve" smooth="yes"/>
      <point x="60" y="367"/>
      <point x="168" y="471"/>
      <point x="291" y="470" type="curve" smooth="yes"/>
      <point x="415" y="469"/>
      <point x="465" y="355"/>
      <point x="449" y="230" type="curve" smooth="yes"/>
      <point x="431" y="99"/>
      <point x="342" y="-10"/>
      <point x="219" y="-10" type="curve" smooth="yes"/>
      <point x="96" y="-10"/>
      <point x="25" y="98"/>
    </contour>
    <contour>
      <point x="199" y="230" type="curve" smooth="yes"/>
      <point x="190" y="170"/>
      <point x="220" y="114"/>
      <point x="281" y="113" type="curve" smooth="yes"/>
      <point x="338" y="112"/>
      <point x="395" y="165"/>
      <point x="406" y="230" type="curve" smooth="yes"/>
      <point x="415" y="290"/>
      <point x="383" y="345"/>
      <point x="328" y="347" type="curve" smooth="yes"/>
      <point x="266" y="349"/>
      <point x="210" y="294"/>
    </contour>
    <contour>
      <point x="387" y="615" type="line"/>
      <point x="284" y="531" type="line"/>
      <point x="188" y="605" type="line"/>
      <point x="401" y="743" type="line"/>
      <point x="574" y="600" type="line"/>
      <point x="461" y="530" type="line"/>
    </contour>
  </outline>
</glyph>
<glyph name="atilde" format="2">
  <advance width="598"/>
  <unicode hex="00E3"/>
  <outline>
    <contour>
      <point x="447" y="460" type="line"/>
      <point x="597" y="460" type="line"/>
      <point x="518" y="0" type="line"/>
      <point x="369" y="0" type="line"/>
    </contour>
    <contour>
      <point x="42" y="230" type="curve" smooth="yes"/>
      <point x="60" y="367"/>
      <point x="168" y="471"/>
      <point x="291" y="470" type="curve" smooth="yes"/>
      <point x="415" y="469"/>
      <point x="465" y="355"/>
      <point x="449" y="230" type="curve" smooth="yes"/>
      <point x="431" y="99"/>
      <point x="342" y="-10"/>
      <point x="219" y="-10" type="curve" smooth="yes"/>
      <point x="96" y="-10"/>
      <point x="25" y="98"/>
    </contour>
    <contour>
      <point x="199" y="230" type="curve" smooth="yes"/>
      <point x="190" y="170"/>
      <point x="220" y="114"/>
      <point x="281" y="113" type="curve" smooth="yes"/>
      <point x="338" y="112"/>
      <point x="395" y="165"/>
      <point x="406" y="230" type="curve" smooth="yes"/>
      <point x="415" y="290"/>
      <point x="383" y="345"/>
      <point x="328" y="347" type="curve" smooth="yes"/>
      <point x="266" y="349"/>
      <point x="210" y="294"/>
    </contour>
    <contour>
      <point x="194" y="598" type="line"/>
      <point x="214" y="646"/>
      <point x="260" y="691"/>
      <point x="323" y="691" type="curve" smooth="yes"/>
      <point x="378" y="691"/>
      <point x="397" y="638"/>
      <point x="447" y="640" type="curve" smooth="yes"/>
      <point x="476" y="641"/>
      <point x="499" y="667"/>
      <point x="521" y="693" type="curve"/>
      <point x="582" y="616" type="line"/>
      <point x="556" y="578"/>
      <point x="500" y="530"/>
      <point x="440" y="532" type="curve" smooth="yes"/>
      <point x="391" y="534"/>
      <point x="359" y="587"/>
      <point x="313" y="584" type="curve" smooth="yes"/>
      <point x="280" y="582"/>
      <point x="267" y="552"/>
      <point x="258" y="534" type="curve"/>
    </contour>
  </outline>
</glyph>
<glyph name="adieresis" format="1">
  <advance width="598"/>
  <unicode hex="00E4"/>
  <outline>
    <contour>
      <point x="447" y="460" type="line"/>
      <point x="597.5" y="460" type="line"/>
      <point x="517.5" y="0" type="line"/>
      <point x="369" y="0" type="line"/>
    </contour>
    <contour>
      <point x="41.5" y="230.5" type="curve" smooth="yes"/>
      <point x="59.5" y="367.5"/>
      <point x="169" y="470.5"/>
      <point x="291.5" y="470" type="curve" smooth="yes"/>
      <point x="415" y="469.5"/>
      <point x="464.5" y="354.5"/>
      <point x="449" y="229.5" type="curve" smooth="yes"/>
      <point x="431.5" y="98"/>
      <point x="342" y="-9.5"/>
      <point x="219.5" y="-9.5" type="curve" smooth="yes"/>
      <point x="96.5" y="-9.5"/>
      <point x="25" y="99"/>
    </contour>
    <contour>
      <point x="198.5" y="229.5" type="curve" smooth="yes"/>
      <point x="189.5" y="169.5"/>
      <point x="220.5" y="114.5"/>
      <point x="281" y="113.5" type="curve" smooth="yes"/>
      <point x="338" y="112.5"/>
      <point x="396" y="166"/>
      <point x="406.5" y="230.5" type="curve" smooth="yes"/>
      <point x="415" y="291"/>
      <point x="384" y="345"/>
      <point x="328.5" y="346.5" type="curve" smooth="yes"/>
      <point x="266.5" y="348"/>
      <point x="209" y="293"/>
    </contour>
    <contour>
      <point x="408.5" y="614" type="curve" smooth="yes"/>
      <point x="414.5" y="659.5"/>
      <point x="460" y="695.5"/>
      <point x="506.5" y="695" type="curve" smooth="yes"/>
      <point x="553.5" y="694.5"/>
      <point x="588" y="658"/>
      <point x="582" y="611.5" type="curve" smooth="yes"/>
      <point x="576" y="566"/>
      <point x="531.5" y="531"/>
      <point x="485" y="531.5" type="curve" smooth="yes"/>
      <point x="438" y="532"/>
      <point x="402.5" y="567.5"/>
    </contour>
    <contour>
      <point x="171" y="614" type="curve" smooth="yes"/>
      <point x="177" y="659.5"/>
      <point x="222.5" y="695.5"/>
      <point x="269" y="695" type="curve" smooth="yes"/>
      <point x="316" y="694.5"/>
      <point x="351" y="658"/>
      <point x="345" y="611.5" type="curve" smooth="yes"/>
      <point x="339" y="566"/>
      <point x="293.5" y="531"/>
      <point x="247" y="531.5" type="curve" smooth="yes"/>
      <point x="200" y="532"/>
      <point x="165" y="567.5"/>
    </contour>
  </outline>
</glyph>
<glyph name="aring" format="2">
  <advance width="598"/>
  <unicode hex="00E5"/>
  <outline>
    <contour>
      <point x="447" y="460" type="line"/>
      <point x="597" y="460" type="line"/>
      <point x="518" y="0" type="line"/>
      <point x="369" y="0" type="line"/>
    </contour>
    <contour>
      <point x="42" y="230" type="curve" smooth="yes"/>
      <point x="60" y="367"/>
      <point x="168" y="471"/>
      <point x="291" y="470" type="curve" smooth="yes"/>
      <point x="415" y="469"/>
      <point x="465" y="355"/>
      <point x="449" y="230" type="curve" smooth="yes"/>
      <point x="431" y="99"/>
      <point x="342" y="-10"/>
      <point x="219" y="-10" type="curve" smooth="yes"/>
      <point x="96" y="-10"/>
      <point x="25" y="98"/>
    </contour>
    <contour>
      <point x="199" y="230" type="curve" smooth="yes"/>
      <point x="190" y="170"/>
      <point x="220" y="114"/>
      <point x="281" y="113" type="curve" smooth="yes"/>
      <point x="338" y="112"/>
      <point x="395" y="165"/>
      <point x="406" y="230" type="curve" smooth="yes"/>
      <point x="415" y="290"/>
      <point x="383" y="345"/>
      <point x="328" y="347" type="curve" smooth="yes"/>
      <point x="266" y="349"/>
      <point x="210" y="294"/>
    </contour>
    <contour>
      <point x="250" y="647" type="curve" smooth="yes"/>
      <point x="259" y="712"/>
      <point x="321" y="762"/>
      <point x="388" y="762" type="curve" smooth="yes"/>
      <point x="455" y="762"/>
      <point x="505" y="711"/>
      <point x="496" y="645" type="curve" smooth="yes"/>
      <point x="487" y="579"/>
      <point x="424" y="531"/>
      <point x="357" y="531" type="curve" smooth="yes"/>
      <point x="290" y="531"/>
      <point x="241" y="582"/>
    </contour>
    <contour>
      <point x="327" y="646" type="curve" smooth="yes"/>
      <point x="324" y="623"/>
      <point x="338" y="600"/>
      <point x="361" y="600" type="curve" smooth="yes"/>
      <point x="385" y="600"/>
      <point x="415" y="622"/>
      <point x="418" y="647" type="curve" smooth="yes"/>
      <point x="421" y="670"/>
      <point x="406" y="694"/>
      <point x="383" y="694" type="curve" smooth="yes"/>
      <point x="359" y="694"/>
      <point x="330" y="671"/>
    </contour>
  </outline>
</glyph>
<glyph name="ae" format="2">
  <advance width="870"/>
  <unicode hex="00E6"/>
  <outline>
    <contour>
      <point x="168" y="137" type="curve" smooth="yes"/>
      <point x="163" y="106"/>
      <point x="187" y="91"/>
      <point x="220" y="90" type="curve" smooth="yes"/>
      <point x="278" y="88"/>
      <point x="323" y="125"/>
      <point x="337" y="186" type="curve"/>
      <point x="400" y="128" type="line"/>
      <point x="378" y="38"/>
      <point x="301" y="-10"/>
      <point x="187" y="-10" type="curve" smooth="yes"/>
      <point x="85" y="-10"/>
      <point x="2" y="36"/>
      <point x="16" y="129" type="curve" smooth="yes"/>
      <point x="30" y="225"/>
      <point x="126" y="279"/>
      <point x="232" y="279" type="curve" smooth="yes"/>
      <point x="293" y="279"/>
      <point x="349" y="257"/>
      <point x="379" y="229" type="curve"/>
      <point x="369" y="159" type="line"/>
      <point x="338" y="183"/>
      <point x="305" y="197"/>
      <point x="260" y="196" type="curve" smooth="yes"/>
      <point x="216" y="195"/>
      <point x="174" y="175"/>
    </contour>
    <contour>
      <point x="143" y="318" type="curve"/>
      <point x="107" y="421" type="line"/>
      <point x="166" y="447"/>
      <point x="239" y="473"/>
      <point x="317" y="473" type="curve" smooth="yes"/>
      <point x="427" y="472"/>
      <point x="469" y="418"/>
      <point x="456" y="324" type="curve"/>
      <point x="423" y="130" type="line"/>
      <point x="328" y="130" type="line"/>
      <point x="358" y="290" type="line"/>
      <point x="362" y="328"/>
      <point x="338" y="354"/>
      <point x="294" y="356" type="curve" smooth="yes"/>
      <point x="235" y="359"/>
      <point x="177" y="334"/>
    </contour>
    <contour>
      <point x="413" y="198" type="line"/>
      <point x="427" y="281" type="line"/>
      <point x="842" y="282" type="line"/>
      <point x="845" y="197" type="line"/>
    </contour>
    <contour>
      <point x="696" y="244" type="line" smooth="yes"/>
      <point x="703" y="306"/>
      <point x="698" y="365"/>
      <point x="633" y="367" type="curve" smooth="yes"/>
      <point x="569" y="369"/>
      <point x="526" y="317"/>
      <point x="513" y="254" type="curve"/>
      <point x="506" y="230" type="line"/>
      <point x="496" y="158"/>
      <point x="517" y="104"/>
      <point x="581" y="101" type="curve" smooth="yes"/>
      <point x="632" y="99"/>
      <point x="674" y="125"/>
      <point x="702" y="158" type="curve"/>
      <point x="834" y="124" type="line"/>
      <point x="775" y="44"/>
      <point x="695" y="-11"/>
      <point x="575" y="-10" type="curve" smooth="yes"/>
      <point x="420" y="-9"/>
      <point x="368" y="99"/>
      <point x="389" y="230" type="curve" smooth="yes"/>
      <point x="392" y="247"/>
      <point x="398" y="263"/>
      <point x="404" y="279" type="curve" smooth="yes"/>
      <point x="441" y="389"/>
      <point x="535" y="471"/>
      <point x="666" y="470" type="curve" smooth="yes"/>
      <point x="801" y="469"/>
      <point x="868" y="368"/>
      <point x="852" y="237" type="curve" smooth="yes"/>
      <point x="851" y="226"/>
      <point x="848" y="213"/>
      <point x="845" y="198" type="curve"/>
      <point x="692" y="218" type="line"/>
    </contour>
  </outline>
</glyph>
<glyph name="ccedilla" format="1">
  <advance width="478"/>
  <unicode hex="00E7"/>
  <outline>
    <contour>
      <point x="194" y="229.5" type="curve" smooth="yes"/>
      <point x="183.5" y="164.5"/>
      <point x="221.5" y="113.5"/>
      <point x="288" y="112" type="curve" smooth="yes"/>
      <point x="344.5" y="110.5"/>
      <point x="398" y="140"/>
      <point x="433.5" y="178.5" type="curve"/>
      <point x="412" y="31" type="line"/>
      <point x="373" y="6"/>
      <point x="325" y="-10"/>
      <point x="264" y="-10" type="curve" smooth="yes"/>
      <point x="119" y="-10"/>
      <point x="20" y="91.5"/>
      <point x="40" y="230.5" type="curve" smooth="yes"/>
      <point x="61" y="372.5"/>
      <point x="187" y="470"/>
      <point x="336" y="470" type="curve" smooth="yes"/>
      <point x="395.5" y="470"/>
      <point x="440.5" y="454.5"/>
      <point x="477" y="430" type="curve"/>
      <point x="454.5" y="281" type="line"/>
      <point x="430.5" y="323.5"/>
      <point x="386" y="349"/>
      <point x="337" y="348.5" type="curve" smooth="yes"/>
      <point x="269" y="348"/>
      <point x="205.5" y="295"/>
    </contour>
    <contour>
      <point x="210.5" y="60" type="line"/>
      <point x="323.5" y="56.5" type="line"/>
      <point x="214.5" y="-65.5" type="line"/>
      <point x="225" y="-63"/>
      <point x="236.5" y="-61.5"/>
      <point x="248" y="-62" type="curve" smooth="yes"/>
      <point x="294" y="-64.5"/>
      <point x="332.5" y="-103.5"/>
      <point x="325.5" y="-160.5" type="curve" smooth="yes"/>
      <point x="316" y="-229"/>
      <point x="245.5" y="-267"/>
      <point x="182" y="-268.5" type="curve" smooth="yes"/>
      <point x="129" y="-269.5"/>
      <point x="87.5" y="-255"/>
      <point x="43" y="-227.5" type="curve"/>
      <point x="97" y="-161" type="line"/>
      <point x="119.5" y="-176"/>
      <point x="146" y="-186"/>
      <point x="169" y="-185.5" type="curve" smooth="yes"/>
      <point x="195.5" y="-185"/>
      <point x="229" y="-172.5"/>
      <point x="231" y="-149" type="curve" smooth="yes"/>
      <point x="233" y="-125.5"/>
      <point x="203" y="-119"/>
      <point x="180.5" y="-118.5" type="curve" smooth="yes"/>
      <point x="161" y="-117.5"/>
      <point x="126.5" y="-123"/>
      <point x="94.5" y="-133" type="curve"/>
    </contour>
  </outline>
</glyph>
<glyph name="ecircumflex" format="2">
  <advance width="556"/>
  <unicode hex="00EA"/>
  <outline>
    <contour>
      <point x="122" y="198" type="line"/>
      <point x="135" y="281" type="line"/>
      <point x="385" y="282" type="line"/>
      <point x="384" y="329"/>
      <point x="371" y="367"/>
      <point x="319" y="368" type="curve" smooth="yes"/>
      <point x="255" y="370"/>
      <point x="212" y="315"/>
      <point x="199" y="253" type="curve"/>
      <point x="192" y="230" type="line"/>
      <point x="182" y="158"/>
      <point x="205" y="104"/>
      <point x="269" y="101" type="curve" smooth="yes"/>
      <point x="320" y="99"/>
      <point x="361" y="125"/>
      <point x="389" y="158" type="curve"/>
      <point x="521" y="124" type="line"/>
      <point x="462" y="44"/>
      <point x="382" y="-11"/>
      <point x="262" y="-10" type="curve" smooth="yes"/>
      <point x="107" y="-9"/>
      <point x="22" y="94"/>
      <point x="42" y="230" type="curve" smooth="yes"/>
      <point x="44" y="247"/>
      <point x="48" y="263"/>
      <point x="53" y="279" type="curve" smooth="yes"/>
      <point x="90" y="393"/>
      <point x="192" y="470"/>
      <point x="331" y="470" type="curve" smooth="yes"/>
      <point x="481" y="470"/>
      <point x="557" y="375"/>
      <point x="539" y="237" type="curve" smooth="yes"/>
      <point x="538" y="226"/>
      <point x="535" y="213"/>
      <point x="532" y="198" type="curve"/>
    </contour>
    <contour>
      <point x="364" y="615" type="line"/>
      <point x="261" y="531" type="line"/>
      <point x="166" y="605" type="line"/>
      <point x="378" y="743" type="line"/>
      <point x="551" y="600" type="line"/>
      <point x="438" y="530" type="line"/>
    </contour>
  </outline>
</glyph>
<glyph name="edieresis" format="1">
  <advance width="557"/>
  <unicode hex="00EB"/>
  <outline>
    <contour>
      <point x="121.5" y="198" type="line"/>
      <point x="134.5" y="281.5" type="line"/>
      <point x="385" y="282.5" type="line"/>
      <point x="384" y="329.5"/>
      <point x="371" y="366"/>
      <point x="319" y="367.5" type="curve" smooth="yes"/>
      <point x="255.5" y="370"/>
      <point x="212.5" y="316"/>
      <point x="199.5" y="253.5" type="curve"/>
      <point x="192.5" y="229.5" type="line"/>
      <point x="182.5" y="157"/>
      <point x="205" y="103.5"/>
      <point x="268.5" y="100.5" type="curve" smooth="yes"/>
      <point x="320" y="98.5"/>
      <point x="360.5" y="125.5"/>
      <point x="389" y="158.5" type="curve"/>
      <point x="520.5" y="124.5" type="line"/>
      <point x="462" y="44"/>
      <point x="381.5" y="-10.5"/>
      <point x="261.5" y="-10" type="curve" smooth="yes"/>
      <point x="107.5" y="-9.5"/>
      <point x="22.5" y="93.5"/>
      <point x="42" y="230" type="curve" smooth="yes"/>
      <point x="44.5" y="247"/>
      <point x="48" y="263"/>
      <point x="53" y="279" type="curve" smooth="yes"/>
      <point x="90" y="393"/>
      <point x="192.5" y="470"/>
      <point x="331" y="470" type="curve" smooth="yes"/>
      <point x="481.5" y="470"/>
      <point x="556.5" y="375"/>
      <point x="539" y="237" type="curve" smooth="yes"/>
      <point x="537.5" y="226.5"/>
      <point x="535" y="212.5"/>
      <point x="532" y="198" type="curve"/>
    </contour>
    <contour>
      <point x="392" y="614" type="curve" smooth="yes"/>
      <point x="398" y="659.5"/>
      <point x="443.5" y="695.5"/>
      <point x="490" y="695" type="curve" smooth="yes"/>
      <point x="537" y="694.5"/>
      <point x="572" y="658"/>
      <point x="566" y="611.5" type="curve" smooth="yes"/>
      <point x="560" y="566"/>
      <point x="515" y="531"/>
      <point x="468.5" y="531.5" type="curve" smooth="yes"/>
      <point x="421.5" y="532"/>
      <point x="386" y="567.5"/>
    </contour>
    <contour>
      <point x="154.5" y="614" type="curve" smooth="yes"/>
      <point x="160.5" y="659.5"/>
      <point x="206" y="695.5"/>
      <point x="252.5" y="695" type="curve" smooth="yes"/>
      <point x="299.5" y="694.5"/>
      <point x="335" y="658"/>
      <point x="329" y="611.5" type="curve" smooth="yes"/>
      <point x="323" y="566"/>
      <point x="277" y="531"/>
      <point x="230.5" y="531.5" type="curve" smooth="yes"/>
      <point x="183.5" y="532"/>
      <point x="148.5" y="567.5"/>
    </contour>
  </outline>
</glyph>
<glyph name="igrave" format="2">
  <advance width="267"/>
  <unicode hex="00EC"/>
  <outline>
    <contour>
      <point x="112" y="460" type="line"/>
      <point x="259" y="460" type="line"/>
      <point x="179" y="0" type="line"/>
      <point x="34" y="0" type="line"/>
    </contour>
    <contour>
      <point x="49" y="690" type="line"/>
      <point x="168" y="741" type="line"/>
      <point x="289" y="578" type="line"/>
      <point x="201" y="538" type="line"/>
    </contour>
  </outline>
</glyph>
<glyph name="iacute" format="1">
  <advance width="268"/>
  <unicode hex="00ED"/>
  <outline>
    <contour>
      <point x="112" y="460" type="line"/>
      <point x="259" y="460" type="line"/>
      <point x="179.5" y="0" type="line"/>
      <point x="34" y="0" type="line"/>
    </contour>
    <contour>
      <point x="392.5" y="684.5" type="line"/>
      <point x="195" y="538.5" type="line"/>
      <point x="113.5" y="583.5" type="line"/>
      <point x="284" y="740" type="line"/>
    </contour>
  </outline>
</glyph>
<glyph name="icircumflex" format="2">
  <advance width="267"/>
  <unicode hex="00EE"/>
  <outline>
    <contour>
      <point x="112" y="460" type="line"/>
      <point x="259" y="460" type="line"/>
      <point x="179" y="0" type="line"/>
      <point x="34" y="0" type="line"/>
    </contour>
    <contour>
      <point x="216" y="618" type="line"/>
      <point x="113" y="534" type="line"/>
      <point x="18" y="609" type="line"/>
      <point x="230" y="746" type="line"/>
      <point x="402" y="603" type="line"/>
      <point x="290" y="534" type="line"/>
    </contour>
  </outline>
</glyph>
<glyph name="idieresis" format="2">
  <advance width="267"/>
  <unicode hex="00EF"/>
  <outline>
    <contour>
      <point x="112" y="460" type="line"/>
      <point x="259" y="460" type="line"/>
      <point x="179" y="0" type="line"/>
      <point x="34" y="0" type="line"/>
    </contour>
    <contour>
      <point x="245" y="625" type="curve" smooth="yes"/>
      <point x="251" y="670"/>
      <point x="297" y="707"/>
      <point x="343" y="706" type="curve" smooth="yes"/>
      <point x="390" y="705"/>
      <point x="425" y="669"/>
      <point x="419" y="623" type="curve" smooth="yes"/>
      <point x="413" y="578"/>
      <point x="367" y="541"/>
      <point x="321" y="542" type="curve" smooth="yes"/>
      <point x="274" y="543"/>
      <point x="239" y="579"/>
    </contour>
    <contour>
      <point x="8" y="625" type="curve" smooth="yes"/>
      <point x="14" y="670"/>
      <point x="60" y="707"/>
      <point x="106" y="706" type="curve" smooth="yes"/>
      <point x="153" y="705"/>
      <point x="188" y="669"/>
      <point x="182" y="623" type="curve" smooth="yes"/>
      <point x="176" y="578"/>
      <point x="130" y="541"/>
      <point x="84" y="542" type="curve" smooth="yes"/>
      <point x="37" y="543"/>
      <point x="2" y="579"/>
    </contour>
  </outline>
</glyph>
<glyph name="eth" format="2">
  <advance width="649"/>
  <unicode hex="00F0"/>
  <outline>
    <contour>
      <point x="454" y="246" type="curve" smooth="yes"/>
      <point x="464" y="307"/>
      <point x="431" y="363"/>
      <point x="365" y="364" type="curve" smooth="yes"/>
      <point x="298" y="365"/>
      <point x="238" y="312"/>
      <point x="227" y="246" type="curve" smooth="yes"/>
      <point x="217" y="184"/>
      <point x="250" y="131"/>
      <point x="316" y="130" type="curve" smooth="yes"/>
      <point x="383" y="129"/>
      <point x="443" y="180"/>
    </contour>
    <contour>
      <point x="417" y="697" type="line"/>
      <point x="570" y="442" type="line" smooth="yes"/>
      <point x="606" y="382"/>
      <point x="629" y="318"/>
      <point x="619" y="246" type="curve" smooth="yes"/>
      <point x="596" y="85"/>
      <point x="458" y="-16"/>
      <point x="301" y="-16" type="curve" smooth="yes"/>
      <point x="147" y="-16"/>
      <point x="40" y="89"/>
      <point x="62" y="247" type="curve" smooth="yes"/>
      <point x="80" y="376"/>
      <point x="193" y="473"/>
      <point x="308" y="474" type="curve" smooth="yes"/>
      <point x="356" y="474"/>
      <point x="385" y="462"/>
      <point x="420" y="428" type="curve"/>
      <point x="389" y="444" type="line"/>
      <point x="212" y="697" type="line"/>
    </contour>
    <contour>
      <point x="195" y="520" type="line"/>
      <point x="206" y="598" type="line"/>
      <point x="635" y="598" type="line"/>
      <point x="622" y="520" type="line"/>
    </contour>
  </outline>
</glyph>
<glyph name="ntilde" format="2">
  <advance width="557"/>
  <unicode hex="00F1"/>
  <outline>
    <contour>
      <point x="259" y="460" type="line"/>
      <point x="180" y="0" type="line"/>
      <point x="28" y="0" type="line"/>
      <point x="108" y="460" type="line"/>
    </contour>
    <contour>
      <point x="368" y="280" type="line"/>
      <point x="372" y="323"/>
      <point x="368" y="360"/>
      <point x="321" y="363" type="curve" smooth="yes"/>
      <point x="273" y="366"/>
      <point x="239" y="325"/>
      <point x="228" y="281" type="curve"/>
      <point x="196" y="275" type="line"/>
      <point x="214" y="377"/>
      <point x="276" y="470"/>
      <point x="390" y="470" type="curve" smooth="yes"/>
      <point x="500" y="470"/>
      <point x="538" y="397"/>
      <point x="526" y="296" type="curve"/>
      <point x="475" y="0" type="line"/>
      <point x="318" y="0" type="line"/>
    </contour>
    <contour>
      <point x="163" y="599" type="line"/>
      <point x="184" y="645"/>
      <point x="229" y="693"/>
      <point x="291" y="691" type="curve" smooth="yes"/>
      <point x="346" y="690"/>
      <point x="365" y="638"/>
      <point x="415" y="640" type="curve" smooth="yes"/>
      <point x="444" y="641"/>
      <point x="467" y="667"/>
      <point x="489" y="693" type="curve"/>
      <point x="550" y="616" type="line"/>
      <point x="524" y="578"/>
      <point x="468" y="530"/>
      <point x="408" y="532" type="curve" smooth="yes"/>
      <point x="359" y="534"/>
      <point x="328" y="587"/>
      <point x="282" y="584" type="curve" smooth="yes"/>
      <point x="249" y="582"/>
      <point x="233" y="552"/>
      <point x="225" y="534" type="curve"/>
    </contour>
  </outline>
</glyph>
<glyph name="ograve" format="2">
  <advance width="571"/>
  <unicode hex="00F2"/>
  <outline>
    <contour>
      <point x="42" y="230" type="curve" smooth="yes"/>
      <point x="62" y="371"/>
      <point x="188" y="470"/>
      <point x="335" y="470" type="curve" smooth="yes"/>
      <point x="479" y="470"/>
      <point x="576" y="368"/>
      <point x="556" y="230" type="curve" smooth="yes"/>
      <point x="536" y="89"/>
      <point x="408" y="-10"/>
      <point x="262" y="-10" type="curve" smooth="yes"/>
      <point x="118" y="-10"/>
      <point x="22" y="92"/>
    </contour>
    <contour>
      <point x="196" y="230" type="curve" smooth="yes"/>
      <point x="187" y="171"/>
      <point x="215" y="117"/>
      <point x="275" y="116" type="curve" smooth="yes"/>
      <point x="336" y="115"/>
      <point x="391" y="167"/>
      <point x="402" y="230" type="curve" smooth="yes"/>
      <point x="411" y="289"/>
      <point x="382" y="343"/>
      <point x="322" y="344" type="curve" smooth="yes"/>
      <point x="261" y="345"/>
      <point x="207" y="293"/>
    </contour>
    <contour>
      <point x="222" y="690" type="line"/>
      <point x="340" y="741" type="line"/>
      <point x="461" y="578" type="line"/>
      <point x="374" y="538" type="line"/>
    </contour>
  </outline>
</glyph>
<glyph name="oacute" format="2">
  <advance width="571"/>
  <unicode hex="00F3"/>
  <outline>
    <contour>
      <point x="42" y="230" type="curve" smooth="yes"/>
      <point x="62" y="371"/>
      <point x="188" y="470"/>
      <point x="335" y="470" type="curve" smooth="yes"/>
      <point x="479" y="470"/>
      <point x="576" y="368"/>
      <point x="556" y="230" type="curve" smooth="yes"/>
      <point x="536" y="89"/>
      <point x="408" y="-10"/>
      <point x="262" y="-10" type="curve" smooth="yes"/>
      <point x="118" y="-10"/>
      <point x="22" y="92"/>
    </contour>
    <contour>
      <point x="196" y="230" type="curve" smooth="yes"/>
      <point x="187" y="171"/>
      <point x="215" y="117"/>
      <point x="275" y="116" type="curve" smooth="yes"/>
      <point x="336" y="115"/>
      <point x="391" y="167"/>
      <point x="402" y="230" type="curve" smooth="yes"/>
      <point x="411" y="289"/>
      <point x="382" y="343"/>
      <point x="322" y="344" type="curve" smooth="yes"/>
      <point x="261" y="345"/>
      <point x="207" y="293"/>
    </contour>
    <contour>
      <point x="533" y="685" type="line"/>
      <point x="335" y="538" type="line"/>
      <point x="254" y="584" type="line"/>
      <point x="424" y="740" type="line"/>
    </contour>
  </outline>
</glyph>
<glyph name="ocircumflex" format="2">
  <advance width="571"/>
  <unicode hex="00F4"/>
  <outline>
    <contour>
      <point x="42" y="230" type="curve" smooth="yes"/>
      <point x="62" y="371"/>
      <point x="188" y="470"/>
      <point x="335" y="470" type="curve" smooth="yes"/>
      <point x="479" y="470"/>
      <point x="576" y="368"/>
      <point x="556" y="230" type="curve" smooth="yes"/>
      <point x="536" y="89"/>
      <point x="408" y="-10"/>
      <point x="262" y="-10" type="curve" smooth="yes"/>
      <point x="118" y="-10"/>
      <point x="22" y="92"/>
    </contour>
    <contour>
      <point x="196" y="230" type="curve" smooth="yes"/>
      <point x="187" y="171"/>
      <point x="215" y="117"/>
      <point x="275" y="116" type="curve" smooth="yes"/>
      <point x="336" y="115"/>
      <point x="391" y="167"/>
      <point x="402" y="230" type="curve" smooth="yes"/>
      <point x="411" y="289"/>
      <point x="382" y="343"/>
      <point x="322" y="344" type="curve" smooth="yes"/>
      <point x="261" y="345"/>
      <point x="207" y="293"/>
    </contour>
    <contour>
      <point x="369" y="622" type="line"/>
      <point x="267" y="538" type="line"/>
      <point x="171" y="612" type="line"/>
      <point x="384" y="750" type="line"/>
      <point x="555" y="607" type="line"/>
      <point x="443" y="537" type="line"/>
    </contour>
  </outline>
</glyph>
<glyph name="otilde" format="1">
  <advance width="572"/>
  <unicode hex="00F5"/>
  <outline>
    <contour>
      <point x="41.5" y="230.5" type="curve" smooth="yes"/>
      <point x="62" y="371.5"/>
      <point x="188.5" y="470.5"/>
      <point x="335" y="470.5" type="curve" smooth="yes"/>
      <point x="478" y="470.5"/>
      <point x="576" y="367.5"/>
      <point x="556" y="229.5" type="curve" smooth="yes"/>
      <point x="535.5" y="88.5"/>
      <point x="409" y="-10"/>
      <point x="262.5" y="-10" type="curve" smooth="yes"/>
      <point x="119.5" y="-10"/>
      <point x="21.5" y="92.5"/>
    </contour>
    <contour>
      <point x="195.5" y="229.5" type="curve" smooth="yes"/>
      <point x="186.5" y="170.5"/>
      <point x="216" y="117.5"/>
      <point x="275.5" y="116.5" type="curve" smooth="yes"/>
      <point x="336.5" y="115.5"/>
      <point x="391" y="167.5"/>
      <point x="401.5" y="230.5" type="curve" smooth="yes"/>
      <point x="410.5" y="289.5"/>
      <point x="381.5" y="343.5"/>
      <point x="322" y="344.5" type="curve" smooth="yes"/>
      <point x="261" y="345.5"/>
      <point x="206" y="292.5"/>
    </contour>
    <contour>
      <point x="169.5" y="598.5" type="line"/>
      <point x="169.5" y="647"/>
      <point x="249" y="692"/>
      <point x="298.5" y="691.5" type="curve" smooth="yes"/>
      <point x="353.5" y="691"/>
      <point x="372" y="639"/>
      <point x="422" y="640.5" type="curve" smooth="yes"/>
      <point x="451" y="641.5"/>
      <point x="474.5" y="666.5"/>
      <point x="496" y="692.5" type="curve"/>
      <point x="557" y="616" type="line"/>
      <point x="531" y="578"/>
      <point x="475.5" y="530"/>
      <point x="415.5" y="532.5" type="curve" smooth="yes"/>
      <point x="366.5" y="534.5"/>
      <point x="335" y="587.5"/>
      <point x="288.5" y="584.5" type="curve" smooth="yes"/>
      <point x="255" y="582.5"/>
      <point x="241" y="552.5"/>
      <point x="232.5" y="534.5" type="curve"/>
    </contour>
  </outline>
</glyph>
<glyph name="odieresis" format="1">
  <advance width="572"/>
  <unicode hex="00F6"/>
  <outline>
    <contour>
      <point x="41.5" y="230.5" type="curve" smooth="yes"/>
      <point x="62" y="371.5"/>
      <point x="188.5" y="470.5"/>
      <point x="335" y="470.5" type="curve" smooth="yes"/>
      <point x="478" y="470.5"/>
      <point x="576" y="367.5"/>
      <point x="556" y="229.5" type="curve" smooth="yes"/>
      <point x="535.5" y="88.5"/>
      <point x="409" y="-10"/>
      <point x="262.5" y="-10" type="curve" smooth="yes"/>
      <point x="119.5" y="-10"/>
      <point x="21.5" y="92.5"/>
    </contour>
    <contour>
      <point x="195.5" y="229.5" type="curve" smooth="yes"/>
      <point x="186.5" y="170.5"/>
      <point x="216" y="117.5"/>
      <point x="275.5" y="116.5" type="curve" smooth="yes"/>
      <point x="336.5" y="115.5"/>
      <point x="391" y="167.5"/>
      <point x="401.5" y="230.5" type="curve" smooth="yes"/>
      <point x="410.5" y="289.5"/>
      <point x="381.5" y="343.5"/>
      <point x="322" y="344.5" type="curve" smooth="yes"/>
      <point x="261" y="345.5"/>
      <point x="206" y="292.5"/>
    </contour>
    <contour>
      <point x="397.5" y="625.5" type="curve" smooth="yes"/>
      <point x="403.5" y="671"/>
      <point x="448.5" y="706"/>
      <point x="495" y="705.5" type="curve" smooth="yes"/>
      <point x="542" y="705"/>
      <point x="577" y="669"/>
      <point x="571" y="622.5" type="curve" smooth="yes"/>
      <point x="565" y="577"/>
      <point x="519.5" y="541.5"/>
      <point x="473" y="542" type="curve" smooth="yes"/>
      <point x="426" y="542.5"/>
      <point x="391.5" y="579"/>
    </contour>
    <contour>
      <point x="160" y="625.5" type="curve" smooth="yes"/>
      <point x="166" y="671"/>
      <point x="211.5" y="706"/>
      <point x="258" y="705.5" type="curve" smooth="yes"/>
      <point x="305" y="705"/>
      <point x="340" y="669"/>
      <point x="334" y="622.5" type="curve" smooth="yes"/>
      <point x="328" y="577"/>
      <point x="282.5" y="541.5"/>
      <point x="236" y="542" type="curve" smooth="yes"/>
      <point x="189" y="542.5"/>
      <point x="154" y="579"/>
    </contour>
  </outline>
</glyph>
<glyph name="divide" format="1">
  <advance width="620"/>
  <unicode hex="00F7"/>
  <outline>
    <contour>
      <point x="284.5" y="555.5" type="curve" smooth="yes"/>
      <point x="291" y="604"/>
      <point x="338" y="647.5"/>
      <point x="390.5" y="647" type="curve" smooth="yes"/>
      <point x="443.5" y="646.5"/>
      <point x="477.5" y="602"/>
      <point x="471" y="553.5" type="curve" smooth="yes"/>
      <point x="464.5" y="505"/>
      <point x="418" y="461.5"/>
      <point x="365.5" y="462" type="curve" smooth="yes"/>
      <point x="312.5" y="462.5"/>
      <point x="278" y="507"/>
    </contour>
    <contour>
      <point x="206.5" y="99.5" type="curve" smooth="yes"/>
      <point x="213" y="148"/>
      <point x="260" y="191.5"/>
      <point x="312.5" y="191" type="curve" smooth="yes"/>
      <point x="365.5" y="190.5"/>
      <point x="399" y="146"/>
      <point x="392.5" y="97.5" type="curve" smooth="yes"/>
      <point x="386" y="49"/>
      <point x="339.5" y="5.5"/>
      <point x="287" y="6" type="curve" smooth="yes"/>
      <point x="234" y="6.5"/>
      <point x="200" y="51"/>
    </contour>
    <contour>
      <point x="40.5" y="260" type="line"/>
      <point x="64.5" y="397" type="line"/>
      <point x="639" y="397" type="line"/>
      <point x="615" y="260" type="line"/>
    </contour>
  </outline>
</glyph>
